<svg xmlns="http://www.w3.org/2000/svg" viewBox="0 0 111.8 39.119999" height="39.12" width="111.8"><path d="M0 38.457h20.064c5.3053 0 9.9147-1.139 13.183-4.021 3.268-2.88 5.2718-7.5358 5.276-14.7665-.0027-7.7656-1.8725-12.4818-4.9845-15.275C30.4265 1.5992 25.9708.66 20.6535.6615V.6602H0v8.163h17.4932c2.6505-.0145 4.4625.9257 5.4865 2.745 1.027 1.8047 1.3348 4.3723 1.3386 7.715-.0038 3.2302-.285 5.7693-1.289 7.575-1.0028 1.8167-2.8028 2.789-5.4824 2.774h-3.9857V16.2528H0V38.457m41.4683 0h13.561V24.746h16.8952v-8.4932H55.0292V8.823h16.8953V.66H41.4683v37.797M81.263 4.7643c-4.0062 3.1693-6.539 7.8817-6.5442 14.242.0052 6.7892 2.4427 11.7804 6.3932 15.1137 3.953 3.3318 9.4557 5 15.599 5 5.7535-.0016 10.2994-.5807 15.0833-2V19.68h-11.5235v10.1577l-.2552.0984c-.9687.37-2.177.3545-3.198.3597-2.9712.0084-5.0884-1.2338-6.388-3.16-1.302-1.9234-1.8255-4.4852-1.828-7.19-.0027-3.5952 1.2187-6.4115 3.3828-8.2943 2.163-1.8843 5.223-2.828 8.8516-2.828 3.711 0 6.6353.8343 8.716 1.9307V1.3503c-3.427-.837-6.0348-1.35-12.841-1.3527h-.0026c-5.9272 0-11.4376 1.6016-15.4453 4.7667" fill="#fff"/></svg>
