<svg width="2500" height="2422" viewBox="0 0 256 248" xmlns="http://www.w3.org/2000/svg" preserveAspectRatio="xMidYMid"><path d="M143.337 167.832c22.063-8.473 33.082-33.23 24.612-55.3-8.47-22.07-33.223-33.093-55.285-24.62-22.063 8.472-33.08 33.23-24.612 55.3a42.796 42.796 0 0 0 24.612 24.62l-28.823 75.13C20.3 218.564-11.44 147.26 12.95 83.698c24.388-63.562 95.67-95.31 159.21-70.915 63.542 24.397 95.282 95.7 70.893 159.262a123.254 123.254 0 0 1-70.892 70.915l-28.823-75.13" fill="#3DA639"/><path d="M172.16 247.37a4.404 4.404 0 0 1-4.113-2.83l-28.824-75.13a4.408 4.408 0 0 1 2.535-5.693c9.57-3.675 17.14-10.86 21.31-20.23 4.17-9.37 4.442-19.802.767-29.376-7.585-19.765-29.83-29.672-49.59-22.084-19.76 7.59-29.664 29.842-22.078 49.607a38.446 38.446 0 0 0 22.077 22.084 4.408 4.408 0 0 1 2.535 5.694l-28.825 75.13a4.406 4.406 0 0 1-5.692 2.536c-31.83-12.22-56.998-36.11-70.867-67.266-13.868-31.156-14.778-65.85-2.56-97.69C21.05 50.28 44.933 25.104 76.08 11.23c31.146-13.873 65.83-14.783 97.66-2.562 31.83 12.22 56.998 36.11 70.866 67.266 13.87 31.156 14.778 65.85 2.56 97.69-12.942 33.732-39.706 60.504-73.427 73.45a4.397 4.397 0 0 1-1.58.294zM127.96 8.94c-16.434 0-32.83 3.456-48.295 10.343C50.67 32.2 28.435 55.637 17.063 85.28c-11.374 29.642-10.527 61.94 2.384 90.945 12.312 27.66 34.188 49.166 61.888 60.97l25.712-67.02a47.285 47.285 0 0 1-23.107-25.38c-9.327-24.305 2.85-51.667 27.146-60.997 24.297-9.33 51.65 2.852 60.976 27.154 4.52 11.773 4.183 24.602-.944 36.122-4.525 10.168-12.305 18.243-22.16 23.106l25.708 67.01c29.465-12.59 52.75-36.693 64.274-66.723 11.373-29.64 10.527-61.94-2.385-90.945-12.91-29.005-36.34-51.245-65.973-62.622-13.83-5.31-28.24-7.958-42.624-7.958zm109.78 220.635c-1.596 1.633-2.394 3.57-2.394 5.812 0 2.322.812 4.296 2.436 5.92 1.615 1.624 3.566 2.436 5.853 2.436 2.277 0 4.224-.816 5.84-2.45 1.614-1.642 2.42-3.61 2.42-5.906 0-2.233-.802-4.17-2.408-5.812-1.624-1.67-3.575-2.505-5.852-2.505-2.305 0-4.27.835-5.894 2.505zm12.918 13.012c-1.95 1.887-4.292 2.83-7.023 2.83-2.822 0-5.2-.966-7.132-2.898-1.933-1.934-2.9-4.31-2.9-7.133 0-2.93 1.044-5.368 3.13-7.31 1.96-1.814 4.26-2.722 6.9-2.722 2.77 0 5.133.98 7.093 2.94s2.94 4.324 2.94 7.092c0 2.85-1.003 5.25-3.008 7.2zm-6.11-10.55c-.4-.153-.963-.23-1.69-.23h-.707v3.226h1.13c.68 0 1.212-.136 1.593-.41.38-.27.572-.71.572-1.32 0-.607-.3-1.03-.898-1.265zm-5.31 8.93v-11.12c.69 0 1.722.002 3.097.007 1.375.004 2.14.01 2.293.02.88.064 1.61.254 2.192.572.99.544 1.483 1.43 1.483 2.654 0 .935-.26 1.61-.782 2.028-.52.417-1.163.667-1.925.75.698.144 1.225.357 1.58.64.652.524.98 1.355.98 2.49V240c0 .11.005.218.02.327.013.11.037.218.074.327l.094.313h-2.777c-.09-.354-.15-.867-.176-1.538-.027-.673-.086-1.126-.176-1.362a1.348 1.348 0 0 0-.817-.817c-.218-.09-.55-.15-.994-.176l-.64-.04h-.612v3.933h-2.912z" fill="#1D531D"/></svg>