<svg width="2500" height="1270" viewBox="0 0 256 130" xmlns="http://www.w3.org/2000/svg" preserveAspectRatio="xMidYMid"><path d="M51.553 89.66c-2.952-1.57-6.287-2.677-9.912-3.29-3.56-.6-7.182-.9-10.765-.9a52.43 52.43 0 0 1-8.808-.753c-2.84-.483-5.41-1.374-7.647-2.648-2.176-1.24-3.976-2.973-5.352-5.155-1.357-2.147-2.044-4.994-2.044-8.43.066-3.032.77-5.627 2.097-7.713a15.798 15.798 0 0 1 5.22-5.12c2.173-1.31 4.68-2.272 7.453-2.86 4.72-1.003 9.707-1.19 14.787-.48 1.982.278 3.943.772 5.827 1.47 1.85.684 3.59 1.625 5.168 2.79 1.556 1.15 2.93 2.595 4.086 4.292l.648.95 4.767-2.006-1.012-1.43a31.502 31.502 0 0 0-4.273-4.906c-1.57-1.45-3.413-2.68-5.482-3.657-2.043-.963-4.38-1.705-6.95-2.204-2.544-.493-5.51-.742-8.814-.742-3.17 0-6.444.363-9.73 1.08-3.333.73-6.426 1.936-9.188 3.586a20.882 20.882 0 0 0-6.914 6.678c-1.794 2.793-2.705 6.24-2.705 10.244 0 4.204.845 7.782 2.51 10.634 1.652 2.834 3.87 5.13 6.59 6.825 2.663 1.662 5.77 2.856 9.236 3.55a53.827 53.827 0 0 0 10.532 1.02c2.864 0 5.898.217 9.017.65 3.034.418 5.858 1.263 8.393 2.512 2.47 1.22 4.527 2.915 6.113 5.04 1.535 2.06 2.314 4.838 2.314 8.26 0 3.073-.75 5.694-2.227 7.794-1.525 2.17-3.506 3.962-5.89 5.324-2.433 1.39-5.19 2.415-8.192 3.043-3.053.64-6.073.963-8.977.963-4.875 0-9.69-.93-14.315-2.77a34.21 34.21 0 0 1-12.132-8.157l-.925-.963-3.803 3.295 1.068 1.067c3.402 3.405 7.627 6.37 12.554 8.813 4.988 2.476 10.895 3.73 17.554 3.73 3.167 0 6.527-.362 9.99-1.075 3.512-.727 6.808-1.966 9.793-3.69 3.032-1.75 5.556-4.038 7.503-6.803 2-2.84 3.014-6.395 3.014-10.57 0-4.23-.95-7.812-2.825-10.647-1.852-2.794-4.324-5.03-7.35-6.64m44.844 34.96c-3.44 0-6.583-.71-9.346-2.11a24.1 24.1 0 0 1-7.35-5.732c-2.088-2.4-3.746-5.207-4.93-8.344a31.28 31.28 0 0 1-2.005-9.76c0-3.056.567-6.18 1.682-9.285A27.246 27.246 0 0 1 79.27 81c2.083-2.464 4.617-4.504 7.533-6.068 2.867-1.535 6.094-2.314 9.593-2.314 3.29 0 6.397.73 9.236 2.163a25.176 25.176 0 0 1 7.524 5.8c2.12 2.4 3.815 5.21 5.037 8.347a26.827 26.827 0 0 1 1.833 9.748c0 3.053-.566 6.178-1.68 9.285a27.236 27.236 0 0 1-4.825 8.392 24.936 24.936 0 0 1-7.52 6.004c-2.868 1.504-6.1 2.265-9.604 2.265M117.26 77.58c-2.495-2.915-5.527-5.326-9.014-7.167-3.536-1.864-7.523-2.808-11.85-2.808-3.942 0-7.708.845-11.193 2.51a29.202 29.202 0 0 0-9.093 6.775c-2.564 2.83-4.62 6.165-6.11 9.91-1.492 3.75-2.25 7.746-2.25 11.878 0 3.905.698 7.728 2.077 11.36a32.466 32.466 0 0 0 5.82 9.798c2.5 2.884 5.537 5.24 9.03 7.006 3.52 1.78 7.456 2.72 11.694 2.797h.054c4.01-.077 7.807-.98 11.286-2.68a29.908 29.908 0 0 0 9.083-6.825c2.564-2.832 4.602-6.13 6.054-9.8 1.456-3.68 2.195-7.603 2.195-11.657 0-3.67-.678-7.413-2.014-11.12-1.338-3.707-3.278-7.063-5.768-9.977m33.75 45.652c-.842.21-1.584.37-2.204.473a92.12 92.12 0 0 1-2.12.326c-.7.1-1.395.15-2.062.15-1.683 0-2.92-.557-3.788-1.705-.958-1.264-1.424-2.52-1.424-3.838V45.214h-5.015v73.423c0 2.756.87 5.193 2.586 7.242 1.778 2.128 4.312 3.205 7.53 3.205 1.01 0 2.012-.06 2.98-.175a89.563 89.563 0 0 0 2.524-.336c.768-.116 1.657-.29 2.643-.516l1.7-.393-2.232-4.714-1.117.28zm21.643-50.575c-2.61 1.834-4.914 4.163-6.886 6.95v-11.12h-5.015v60.05h5.015V91.147c.695-2.45 1.65-4.746 2.846-6.83a21.716 21.716 0 0 1 4.453-5.49c1.75-1.542 3.786-2.794 6.055-3.722 2.264-.926 4.818-1.468 7.59-1.607l1.336-.067v-4.947h-1.405c-5.344 0-10.05 1.404-13.987 4.17" fill="#201F26"/><path d="M244.31 13.793l-41.534 44.903 52.2-24.082a42.138 42.138 0 0 0-10.666-20.82zM213.494.436a42.11 42.11 0 0 0-16.237 3.237l-5.573 46.964L219.534.873a42.486 42.486 0 0 0-6.04-.437zM255.388 37.2l-49.46 27.68 46.405-5.506a42.11 42.11 0 0 0 3.423-16.675c0-1.867-.133-3.698-.368-5.5zm-18.235 40.522a42.475 42.475 0 0 0 13.356-14.624l-43.497 8.638 30.14 5.986zM222.08 1.312l-24.212 52.477 44.914-41.543C237.15 6.827 230.026 2.95 222.08 1.31zm-5.054 83.49a42 42 0 0 0 13.266-3.32l-24.364-2.89 11.098 6.21zM174.97 25.326a41.993 41.993 0 0 0-3.56 13.583l6.563 11.73-3.003-25.313zM193.595 5.41a42.46 42.46 0 0 0-14.892 13.3l6.126 30.84 8.765-44.14z" fill="#C7402B"/></svg>