<?xml version="1.0" encoding="UTF-8" standalone="no"?>
<svg
   xmlns:dc="http://purl.org/dc/elements/1.1/"
   xmlns:cc="http://creativecommons.org/ns#"
   xmlns:rdf="http://www.w3.org/1999/02/22-rdf-syntax-ns#"
   xmlns:svg="http://www.w3.org/2000/svg"
   xmlns="http://www.w3.org/2000/svg"
   xmlns:sodipodi="http://sodipodi.sourceforge.net/DTD/sodipodi-0.dtd"
   xmlns:inkscape="http://www.inkscape.org/namespaces/inkscape"
   width="84"
   height="38.689"
   viewBox="0 0 84 38.688999"
   version="1.1"
   id="svg12"
   sodipodi:docname="sub-goettingen.svg"
   inkscape:version="0.92.2 (5c3e80d, 2017-08-06)">
  <metadata
     id="metadata18">
    <rdf:RDF>
      <cc:Work
         rdf:about="">
        <dc:format>image/svg+xml</dc:format>
        <dc:type
           rdf:resource="http://purl.org/dc/dcmitype/StillImage" />
      </cc:Work>
    </rdf:RDF>
  </metadata>
  <defs
     id="defs16" />
  <sodipodi:namedview
     pagecolor="#ffffff"
     bordercolor="#666666"
     borderopacity="1"
     objecttolerance="10"
     gridtolerance="10"
     guidetolerance="10"
     inkscape:pageopacity="0"
     inkscape:pageshadow="2"
     inkscape:window-width="1920"
     inkscape:window-height="1144"
     id="namedview14"
     showgrid="false"
     inkscape:zoom="34.506388"
     inkscape:cx="87.523119"
     inkscape:cy="13.141732"
     inkscape:window-x="0"
     inkscape:window-y="0"
     inkscape:window-maximized="1"
     inkscape:current-layer="svg12" />
  <g
     fill="#003867"
     id="g4" />
  <g
     id="g10">
    <path
       d="M65.914 23.312v7.562h7.8c.323 0 .633-.018.93-.052a4.51 4.51 0 0 1-1.864 1.814c-.807.42-1.77.628-2.89.628h-7.8v-9.952h3.824zm0-13.828v6.978h7.33c.357 0 .702-.02 1.03-.06-.232.466-.552.872-.957 1.217-.955.822-2.257 1.233-3.9 1.233H62.09v-9.37h3.824zM78.81 23.67a9.267 9.267 0 0 0-.544-.677c-.41-.6-.97-1.08-1.684-1.443a8.598 8.598 0 0 0-1.292-.637c.776-.298 1.5-.77 2.172-1.41.675-.657 1.21-1.456 1.614-2.4.42-.955.63-1.993.63-3.113 0-1.81-.405-3.384-1.21-4.73-.794-1.358-1.944-2.397-3.453-3.116-1.495-.73-3.227-1.096-5.2-1.096h-8.905V2.655h12.73c1.973 0 3.706.366 5.2 1.1 1.506.717 2.657 1.755 3.45 3.115.808 1.345 1.21 2.922 1.21 4.728 0 1.12-.21 2.16-.627 3.115a7.324 7.324 0 0 1-1.612 2.4c-.67.642-1.396 1.112-2.175 1.41 1.405.538 2.577 1.456 3.52 2.757.94 1.3 1.412 2.907 1.412 4.82 0 1.972-.42 3.652-1.254 5.04-.823 1.376-1.99 2.422-3.496 3.138-.396.188-.81.35-1.235.485.337-.376.64-.786.906-1.23.835-1.392 1.254-3.072 1.254-5.043 0-1.912-.47-3.518-1.41-4.82zM20.737 4.89c.497.358.982.758 1.45 1.195l-3.183 3.137a7.898 7.898 0 0 0-2.104-1.5 8.775 8.775 0 0 0-2.332-.785A13.416 13.416 0 0 0 11.9 6.69c-.957 0-1.813.13-2.567.39.115-.395.278-.765.49-1.11.477-.777 1.162-1.383 2.06-1.816.897-.433 1.966-.65 3.207-.65.97 0 1.86.083 2.666.248a8.7 8.7 0 0 1 2.33.784c.22.105.44.224.65.354zm-2.474 22.577c.105-.41.16-.852.16-1.323 0-1.48-.434-2.606-1.3-3.384-.39-.39-.846-.68-1.368-.873-.508-.21-1.24-.38-2.195-.516l-3.856-.537c-2.66-.374-4.73-1.25-6.208-2.624-1.583-1.48-2.375-3.556-2.375-6.23 0-1.897.44-3.57 1.324-5.02.747-1.23 1.767-2.222 3.063-2.98C4.71 5.38 4.31 6.986 4.31 8.793c0 2.675.79 4.752 2.375 6.23 1.48 1.375 3.547 2.25 6.208 2.622l3.854.537c.956.138 1.69.31 2.197.518.52.193.978.485 1.366.874.866.777 1.302 1.904 1.302 3.383-.004 1.585-.6 2.817-1.795 3.698-.453.335-.97.607-1.554.814zM0 31.3l3.208-3.167c1.534 1.527 3.215 2.627 5.044 3.296 1.854.656 4.027.984 6.522.984 1.718 0 3.286-.21 4.706-.627.98-.3 1.873-.694 2.68-1.185a8.662 8.662 0 0 1-2.146 2.467c-1.06.835-2.302 1.472-3.722 1.903-1.418.42-2.986.627-4.706.63-2.495 0-4.668-.33-6.52-.987C3.225 33.944 1.54 32.836 0 31.3zM30.6 2.655h3.825v21.427c0 1.434.275 2.69.828 3.765.108.208.226.403.35.593a6.425 6.425 0 0 1-1.82-.677 5.92 5.92 0 0 1-2.353-2.465c-.554-1.076-.83-2.332-.83-3.765V2.656zm22.314 21.65c0 2.21-.508 4.177-1.522 5.896a10.423 10.423 0 0 1-4.215 3.988c-1.776.942-3.78 1.413-6.006 1.413-2.21 0-4.205-.47-5.982-1.413a10.545 10.545 0 0 1-2.713-2.034c1.485.598 3.11.896 4.872.896 2.225 0 4.23-.47 6.006-1.412a10.427 10.427 0 0 0 4.214-3.988c1.016-1.718 1.524-3.683 1.524-5.894V2.656h3.824v21.65z"
       fill="#003867"
       id="path8" />
  </g>
</svg>
