<svg xmlns="http://www.w3.org/2000/svg" width="491.472" height="44.14" viewBox="0 0 491.47198 44.139999"><g fill="#fff"><path d="M55.305 11.724a1270.92 1270.92 0 0 0-5.06-5.4c-.013.363-.026.85-.04 1.46-.012.61-.018 1.44-.018 2.49 0 .273.002.61.01 1.012.006.402.01.826.02 1.267.003.44.015.887.027 1.342a175.747 175.747 0 0 0 .078 2.287c.013.292.027.49.04.594a5.313 5.313 0 0 0-.682-.04c-.26 0-.5.013-.72.04.025-.13.055-.37.088-.72.03-.352.06-.77.088-1.257.026-.486.054-1.016.087-1.587.032-.57.058-1.142.077-1.71.02-.572.036-1.13.05-1.676.012-.544.02-1.03.02-1.46 0-1.245-.004-2.314-.01-3.21a43.576 43.576 0 0 0-.05-2.005h.313c.79.857 1.638 1.775 2.54 2.755.9.98 1.797 1.944 2.685 2.898.888.954 1.732 1.854 2.53 2.705.798.85 1.496 1.573 2.092 2.17v-2.647c0-1.362-.01-2.688-.03-3.98a90.22 90.22 0 0 0-.125-3.647c.26.065.48.097.66.097.158 0 .365-.03.624-.097-.026.286-.055.714-.088 1.285a266.81 266.81 0 0 0-.186 3.735 39.404 39.404 0 0 0-.038 1.498v1.17c0 .44.003.9.01 1.38a6900.772 6900.772 0 0 1 .04 2.81c.006.425.01.79.01 1.102v.642h-.273a195.65 195.65 0 0 0-4.77-5.303zM64.305 5.926a448.22 448.22 0 0 0-.106-2.52c.168.023.33.05.485.066a3.664 3.664 0 0 0 .934 0c.156-.018.318-.043.487-.067-.038.855-.074 1.694-.107 2.52a62.967 62.967 0 0 0-.048 2.52v3.347c0 .857.016 1.702.048 2.53.033.83.07 1.647.107 2.453-.298-.027-.617-.04-.954-.04-.335 0-.653.013-.95.04.037-.806.073-1.623.105-2.453.034-.828.05-1.673.05-2.53V8.445c0-.856-.016-1.695-.05-2.52zM69.813 5.895c-.033-.828-.068-1.66-.107-2.49.583.025 1.164.05 1.74.068a49.54 49.54 0 0 0 3.475 0c.57-.018 1.148-.043 1.73-.067a2.955 2.955 0 0 0 .002 1.168 90.418 90.418 0 0 1-1.138-.078l-1.09-.08c-.382-.024-.8-.047-1.254-.066-.455-.02-1-.03-1.635-.03-.012.417-.03.814-.048 1.187-.02.38-.03.806-.03 1.285 0 .507.003 1 .01 1.48s.01.843.01 1.09a54.264 54.264 0 0 0 2.784-.07c.377-.02.724-.038 1.042-.06.318-.02.62-.04.905-.066-.04.195-.058.396-.058.603 0 .195.017.39.057.582a24.52 24.52 0 0 0-1.176-.097c-.448-.024-.895-.043-1.342-.047l-1.265-.02c-.396-.008-.71-.012-.944-.012 0 .116-.004.245-.01.38-.008.138-.01.31-.01.516V13c0 .74.002 1.35.01 1.828.006.48.015.845.028 1.09h1.363a37.656 37.656 0 0 0 2.792-.105c.423-.034.79-.08 1.1-.146-.026.09-.042.19-.048.302-.006.11-.01.208-.01.3 0 .207.02.376.058.507a37.712 37.712 0 0 0-1.74-.04H71.48c-.585 0-1.174.013-1.77.04.038-.83.073-1.66.106-2.482.032-.824.048-1.663.048-2.52V8.428a70.01 70.01 0 0 0-.05-2.532zM79.64 5.926c-.033-.826-.07-1.665-.107-2.52.493.023.983.05 1.47.066.486.02.976.03 1.468.03.495 0 .985-.017 1.47-.048.487-.034.977-.05 1.47-.05 1.142 0 2.118.148 2.928.448.813.297 1.477.722 1.997 1.273.518.552.898 1.225 1.138 2.023.24.8.36 1.697.36 2.696 0 1.297-.224 2.39-.672 3.28-.446.886-1.016 1.603-1.712 2.148a6.347 6.347 0 0 1-2.295 1.157 9.184 9.184 0 0 1-2.404.34c-.442 0-.876-.006-1.304-.02-.428-.014-.863-.02-1.303-.02H80.84c-.43 0-.864.013-1.305.04.038-.806.074-1.623.108-2.453.032-.828.047-1.673.047-2.53V8.44c-.002-.85-.017-1.69-.05-2.514zm1.76 9.99c.273.066.642.115 1.11.147.467.033.948.05 1.44.05a9.27 9.27 0 0 0 2.14-.255 4.634 4.634 0 0 0 1.918-.952c.563-.468 1.025-1.107 1.38-1.918.358-.81.537-1.858.537-3.142 0-1.13-.14-2.057-.42-2.784-.278-.727-.66-1.3-1.147-1.722a4.048 4.048 0 0 0-1.74-.875 9.507 9.507 0 0 0-2.22-.243c-.584 0-1.128.02-1.635.06-.504.037-.958.082-1.36.134-.04.623-.07 1.276-.09 1.956a74.41 74.41 0 0 0-.028 2.072v3.347c0 1.404.04 2.78.116 4.127zM94.877 5.895c-.033-.828-.068-1.66-.107-2.49.583.025 1.164.05 1.742.068a49.482 49.482 0 0 0 3.473 0c.572-.018 1.148-.043 1.733-.067a2.885 2.885 0 0 0 0 1.168 88.358 88.358 0 0 1-1.14-.078l-1.09-.08c-.38-.024-.8-.047-1.253-.066-.455-.02-1-.03-1.635-.03-.013.417-.028.814-.048 1.187-.02.38-.03.806-.03 1.285 0 .507.004 1 .01 1.48.007.48.01.843.01 1.09a54.19 54.19 0 0 0 2.784-.07c.377-.02.722-.038 1.042-.06.317-.02.62-.04.905-.066a2.993 2.993 0 0 0 0 1.186c-.34-.038-.73-.07-1.177-.097a30.165 30.165 0 0 0-1.344-.047l-1.265-.02a57.17 57.17 0 0 0-.943-.012c0 .116-.004.245-.01.38-.006.138-.01.31-.01.516V13c0 .74.003 1.35.01 1.828.006.48.016.845.028 1.09h1.363a37.94 37.94 0 0 0 2.793-.105c.42-.034.788-.08 1.1-.146-.027.09-.043.19-.05.302-.005.11-.008.208-.008.3 0 .207.018.376.058.507a37.615 37.615 0 0 0-1.74-.04h-3.532c-.585 0-1.176.013-1.772.04.04-.83.074-1.66.107-2.482.033-.824.05-1.663.05-2.52V8.428a74.888 74.888 0 0 0-.053-2.532zM104.705 5.926c-.034-.826-.068-1.665-.108-2.52.376.023.748.05 1.11.066.363.02.734.03 1.11.03.375 0 .744-.017 1.107-.048.364-.034.733-.05 1.11-.05.546 0 1.063.052 1.556.155.493.103.925.276 1.295.515.37.24.662.556.875.943.215.39.322.875.322 1.46 0 .624-.14 1.157-.418 1.605-.28.447-.62.816-1.022 1.11a5.094 5.094 0 0 1-1.294.68c-.46.163-.877.27-1.254.32.156.196.37.47.643.817.272.35.577.738.915 1.16.337.42.688.86 1.05 1.322.362.462.713.902 1.05 1.323.34.42.656.806.956 1.157.297.35.538.616.72.8a4.235 4.235 0 0 0-.585-.04H112.696c-.194 0-.383.012-.565.04-.193-.273-.488-.683-.884-1.228a76.62 76.62 0 0 0-1.313-1.75c-.48-.625-.97-1.243-1.47-1.86-.5-.616-.956-1.14-1.37-1.566h-.74v1.42c0 .857.016 1.702.048 2.53.033.83.068 1.647.108 2.453-.298-.026-.616-.04-.953-.04-.338 0-.655.014-.955.04.04-.805.075-1.622.108-2.452.03-.828.048-1.673.048-2.53V8.44a73.85 73.85 0 0 0-.05-2.514zm2.237 3.707c.214.012.45.02.71.02.402 0 .82-.046 1.256-.137a3.67 3.67 0 0 0 1.196-.477c.364-.23.665-.532.905-.915.24-.385.36-.866.36-1.452 0-.506-.094-.922-.282-1.253a2.24 2.24 0 0 0-.73-.788 2.767 2.767 0 0 0-.973-.4 5.244 5.244 0 0 0-1.03-.105c-.456 0-.832.01-1.13.028-.298.02-.55.04-.76.068-.024.713-.052 1.42-.076 2.12a54.66 54.66 0 0 0-.04 2.102v1.11c.18.038.378.064.592.078zM116.73 14.954a3.187 3.187 0 0 0 1.528 1.13c.336.123.712.184 1.127.184.428 0 .815-.074 1.16-.225.342-.148.634-.35.874-.604.238-.253.422-.552.553-.895.13-.344.193-.71.193-1.1 0-.597-.15-1.07-.457-1.42a3.766 3.766 0 0 0-1.138-.876 13.857 13.857 0 0 0-1.47-.646 7.458 7.458 0 0 1-1.47-.73 3.892 3.892 0 0 1-1.14-1.118c-.303-.454-.456-1.063-.456-1.827 0-.548.097-1.043.292-1.49a3.21 3.21 0 0 1 .846-1.158 4.03 4.03 0 0 1 1.333-.76 5.33 5.33 0 0 1 1.752-.272c.622 0 1.16.076 1.614.225a4 4 0 0 1 1.265.69 4.2 4.2 0 0 0-.293.7c-.078.248-.156.56-.234.935h-.233a4.783 4.783 0 0 0-.264-.595c-.11-.214-.26-.41-.448-.592a2.514 2.514 0 0 0-.67-.46 2.2 2.2 0 0 0-.934-.184c-.364 0-.698.058-1.002.175a2.38 2.38 0 0 0-.8.497 2.17 2.17 0 0 0-.523.768c-.126.3-.186.624-.186.973 0 .61.15 1.092.457 1.44.305.35.685.646 1.14.887.453.238.943.454 1.468.642a8.183 8.183 0 0 1 1.47.69c.453.272.833.62 1.138 1.052.304.427.457 1 .457 1.712a4.5 4.5 0 0 1-.32 1.693c-.216.53-.527.993-.937 1.39-.407.396-.907.7-1.5.916-.59.212-1.26.32-2.01.32-.807 0-1.46-.108-1.957-.32-.5-.216-.92-.46-1.257-.73.117-.298.198-.568.243-.81.046-.238.088-.547.126-.922h.234c.11.233.25.47.424.71zM132.464 5.596a535.6 535.6 0 0 0 3.298 7.782c.33.76.63 1.438.896 2.036.266.594.48 1.05.65 1.36a3.51 3.51 0 0 0-.516-.04H135.76c-.16 0-.333.014-.514.04-.09-.3-.214-.658-.37-1.08a39.216 39.216 0 0 0-.516-1.322l-.574-1.4a78.623 78.623 0 0 1-.544-1.354 100.92 100.92 0 0 0-1.266-.03c-.428-.004-.855-.01-1.283-.01-.403 0-.8.006-1.188.01-.388.008-.784.02-1.186.03a85.47 85.47 0 0 0-1.13 2.89c-.337.916-.59 1.67-.76 2.27a5.92 5.92 0 0 0-.72-.04c-.26 0-.5.012-.72.04a522.58 522.58 0 0 0 3.075-6.773 1031.32 1031.32 0 0 0 3.017-6.85h.37c.31.753.648 1.565 1.012 2.443zM128.534.29a.957.957 0 0 1 .7-.29c.27 0 .505.097.7.29.195.196.292.43.292.702a.954.954 0 0 1-.292.7.964.964 0 0 1-.7.293.963.963 0 0 1-.7-.293.955.955 0 0 1-.294-.7c0-.27.098-.505.293-.702zm.154 10.433c.337 0 .688.007 1.05.018.363.015.714.022 1.052.022.362 0 .726-.002 1.09-.01.362-.006.726-.018 1.088-.028l-2.16-4.943-2.12 4.943zM132.365.29a.964.964 0 0 1 .7-.29c.272 0 .506.097.7.29.196.196.294.43.294.702a.96.96 0 0 1-.294.7.964.964 0 0 1-.7.293.967.967 0 0 1-.7-.293.96.96 0 0 1-.292-.7.97.97 0 0 1 .29-.702zM149.15 16.318a5.52 5.52 0 0 1-.915.33c-.357.096-.756.186-1.196.262a7.84 7.84 0 0 1-1.383.117c-1.025 0-1.97-.146-2.84-.437a6.002 6.002 0 0 1-2.248-1.335 6.27 6.27 0 0 1-1.48-2.188c-.356-.864-.536-1.846-.536-2.948 0-1.103.18-2.087.536-2.95a6.15 6.15 0 0 1 1.5-2.19 6.434 6.434 0 0 1 2.305-1.36c.895-.313 1.88-.468 2.958-.468.855 0 1.638.087 2.345.263.707.176 1.333.388 1.877.633-.104.183-.187.428-.252.74-.065.31-.117.57-.155.776l-.117.04a4.344 4.344 0 0 0-.543-.526 6.074 6.074 0 0 0-.818-.563 5.232 5.232 0 0 0-1.052-.46 4.31 4.31 0 0 0-1.284-.184 5.99 5.99 0 0 0-2.13.372 4.52 4.52 0 0 0-1.712 1.137c-.487.513-.867 1.16-1.138 1.946-.273.785-.41 1.715-.41 2.793 0 1.075.136 2.007.41 2.79.27.785.65 1.434 1.138 1.946a4.53 4.53 0 0 0 1.71 1.14c.656.245 1.367.37 2.132.37.467 0 .898-.06 1.294-.177a6.776 6.776 0 0 0 1.985-.943c.266-.19.488-.355.67-.496l.08.077-.175 1.148c-.12.104-.304.22-.558.343zM162.403 5.926c-.033-.826-.07-1.665-.107-2.52.168.023.33.05.486.066a3.648 3.648 0 0 0 .934 0c.154-.018.316-.043.485-.067-.04.855-.074 1.694-.107 2.52a62.967 62.967 0 0 0-.048 2.52v3.347c0 .857.016 1.702.048 2.53.033.83.068 1.647.107 2.453-.3-.027-.616-.04-.953-.04-.34 0-.657.013-.954.04.038-.806.074-1.623.107-2.453.03-.828.048-1.673.048-2.53v-1.75a216.613 216.613 0 0 0-8.134 0v1.75c0 .857.016 1.702.048 2.53.033.83.07 1.647.107 2.453-.297-.027-.616-.04-.952-.04-.336 0-.656.013-.953.04.038-.806.074-1.623.107-2.453.032-.828.048-1.673.048-2.53V8.445c0-.855-.017-1.694-.048-2.52-.033-.825-.07-1.664-.107-2.52.168.024.33.05.486.067a3.648 3.648 0 0 0 .934 0c.156-.018.318-.043.487-.067-.037.855-.073 1.694-.106 2.52a62.967 62.967 0 0 0-.048 2.52v.683c.7.013 1.377.024 2.034.038a95.236 95.236 0 0 0 4.066 0c.656-.014 1.334-.025 2.035-.038v-.683c0-.856-.016-1.695-.047-2.52zM167.95 14.954c.173.24.386.46.64.652a3.24 3.24 0 0 0 2.015.662c.427 0 .813-.074 1.158-.225a2.598 2.598 0 0 0 1.43-1.498c.13-.344.195-.71.195-1.1 0-.597-.152-1.07-.457-1.42a3.75 3.75 0 0 0-1.138-.876 13.75 13.75 0 0 0-1.47-.646 7.477 7.477 0 0 1-1.468-.73 3.856 3.856 0 0 1-1.14-1.118c-.305-.454-.457-1.063-.457-1.827 0-.548.098-1.043.292-1.49.194-.45.475-.834.845-1.158a4.04 4.04 0 0 1 1.333-.76c.52-.18 1.103-.272 1.752-.272.622 0 1.16.076 1.614.225.455.148.876.378 1.266.69-.117.22-.213.455-.292.7a9.58 9.58 0 0 0-.234.935h-.234a5.045 5.045 0 0 0-.26-.595 2.32 2.32 0 0 0-.45-.592 2.525 2.525 0 0 0-.67-.46c-.26-.12-.572-.184-.935-.184-.363 0-.7.058-1.003.175-.304.117-.57.28-.798.497-.226.214-.4.47-.525.768a2.52 2.52 0 0 0-.186.973c0 .61.153 1.092.457 1.44.306.35.686.646 1.14.887a11.5 11.5 0 0 0 1.47.642 8.29 8.29 0 0 1 1.47.69c.453.272.833.62 1.137 1.052.306.427.457 1 .457 1.712a4.5 4.5 0 0 1-.32 1.693c-.214.53-.526.993-.934 1.39-.408.396-.908.7-1.5.916-.588.212-1.26.32-2.012.32-.805 0-1.457-.108-1.957-.32-.498-.216-.915-.46-1.252-.73a4.55 4.55 0 0 0 .243-.81c.046-.238.087-.547.127-.922h.233c.104.233.244.47.42.71zM177.737 5.926a449.37 449.37 0 0 0-.107-2.52c.168.023.33.05.486.066a3.648 3.648 0 0 0 .934 0c.155-.018.317-.043.486-.067-.04.855-.074 1.694-.106 2.52-.034.825-.05 1.664-.05 2.52v3.347c0 .857.017 1.702.05 2.53.032.83.067 1.647.106 2.453-.298-.027-.616-.04-.953-.04-.336 0-.655.013-.953.04.04-.806.074-1.623.107-2.453.032-.828.048-1.673.048-2.53V8.445c0-.856-.016-1.695-.048-2.52zM183.283 14.954c.174.24.388.46.64.652a3.245 3.245 0 0 0 2.015.662c.428 0 .814-.074 1.16-.225a2.588 2.588 0 0 0 1.43-1.498c.128-.344.194-.71.194-1.1 0-.597-.152-1.07-.457-1.42a3.75 3.75 0 0 0-1.14-.876 13.66 13.66 0 0 0-1.468-.646 7.477 7.477 0 0 1-1.47-.73 3.88 3.88 0 0 1-1.138-1.118c-.306-.454-.46-1.063-.46-1.827 0-.548.1-1.043.293-1.49.195-.45.476-.834.848-1.158a4.04 4.04 0 0 1 1.332-.76 5.33 5.33 0 0 1 1.752-.272c.623 0 1.16.076 1.615.225a4 4 0 0 1 1.264.69c-.116.22-.213.455-.292.7-.08.248-.155.56-.234.935h-.234a4.885 4.885 0 0 0-.26-.595c-.112-.214-.26-.41-.45-.592a2.525 2.525 0 0 0-.67-.46c-.26-.12-.572-.184-.935-.184-.364 0-.7.058-1.003.175a2.37 2.37 0 0 0-.797.497c-.228.214-.403.47-.527.768a2.52 2.52 0 0 0-.185.973c0 .61.153 1.092.457 1.44.306.35.685.646 1.14.887a11.5 11.5 0 0 0 1.47.642 8.29 8.29 0 0 1 1.47.69 3.7 3.7 0 0 1 1.136 1.052c.307.427.46 1 .46 1.712a4.5 4.5 0 0 1-.322 1.693 4.01 4.01 0 0 1-.934 1.39c-.408.396-.908.7-1.5.916-.588.212-1.26.32-2.012.32-.805 0-1.457-.108-1.957-.32-.5-.216-.916-.46-1.253-.73a4.55 4.55 0 0 0 .243-.81c.045-.238.086-.547.126-.922h.234c.104.233.244.47.42.71zM202.626 16.318a5.487 5.487 0 0 1-.915.33 13.67 13.67 0 0 1-1.195.262c-.44.08-.902.117-1.382.117-1.024 0-1.972-.146-2.84-.437a5.994 5.994 0 0 1-2.25-1.335 6.256 6.256 0 0 1-1.478-2.188c-.357-.864-.536-1.846-.536-2.948 0-1.103.178-2.087.535-2.95a6.11 6.11 0 0 1 1.5-2.19 6.426 6.426 0 0 1 2.305-1.36c.895-.313 1.88-.468 2.956-.468.858 0 1.64.087 2.345.263.71.176 1.335.388 1.88.633-.104.183-.19.428-.254.74-.065.31-.116.57-.155.776l-.116.04a4.16 4.16 0 0 0-.545-.526 5.997 5.997 0 0 0-.818-.563 5.207 5.207 0 0 0-1.05-.46 4.307 4.307 0 0 0-1.286-.184c-.765 0-1.474.125-2.13.372a4.54 4.54 0 0 0-1.712 1.137c-.487.513-.866 1.16-1.14 1.946-.27.785-.407 1.715-.407 2.793 0 1.075.135 2.007.408 2.79.272.785.65 1.434 1.14 1.946a4.535 4.535 0 0 0 1.71 1.14c.657.245 1.366.37 2.13.37.47 0 .9-.06 1.296-.177.396-.118.76-.258 1.09-.42.33-.162.63-.338.895-.524.267-.188.49-.354.673-.495l.076.077-.174 1.148c-.117.104-.302.22-.554.343zM215.878 5.926c-.034-.826-.07-1.665-.108-2.52.17.023.332.05.487.066a3.67 3.67 0 0 0 .934 0c.155-.018.318-.043.486-.067-.04.855-.075 1.694-.107 2.52a64.897 64.897 0 0 0-.048 2.52v3.347c0 .857.016 1.702.048 2.53.032.83.068 1.647.107 2.453a10.58 10.58 0 0 0-.953-.04c-.337 0-.655.013-.954.04.038-.806.074-1.623.108-2.453.032-.828.047-1.673.047-2.53v-1.75a216.49 216.49 0 0 0-8.133 0v1.75c0 .857.016 1.702.048 2.53.03.83.067 1.647.108 2.453-.3-.027-.618-.04-.954-.04-.338 0-.655.013-.955.04.04-.806.075-1.623.107-2.453.03-.828.047-1.673.047-2.53V8.445c0-.855-.016-1.694-.047-2.52-.033-.825-.07-1.664-.108-2.52.168.024.33.05.485.067a3.67 3.67 0 0 0 .935 0c.154-.018.318-.043.487-.067-.04.855-.077 1.694-.108 2.52a62.967 62.967 0 0 0-.05 2.52v.683c.702.013 1.38.024 2.034.038a95.236 95.236 0 0 0 4.068 0c.655-.014 1.332-.025 2.032-.038v-.683c0-.856-.015-1.695-.046-2.52zM221.385 5.895c-.034-.828-.068-1.66-.108-2.49.585.025 1.165.05 1.742.068a49.482 49.482 0 0 0 3.474 0c.57-.018 1.145-.043 1.73-.067a2.955 2.955 0 0 0 0 1.168 89.373 89.373 0 0 1-1.14-.078l-1.088-.08c-.384-.024-.8-.047-1.256-.066-.455-.02-1-.03-1.634-.03-.014.417-.03.814-.048 1.187-.02.38-.03.806-.03 1.285 0 .507.003 1 .01 1.48s.01.843.01 1.09a54.115 54.115 0 0 0 2.78-.07c.378-.02.725-.038 1.043-.06.318-.02.62-.04.906-.066a3.01 3.01 0 0 0 0 1.186c-.337-.04-.73-.07-1.177-.098a30.18 30.18 0 0 0-1.343-.047l-1.265-.02c-.396-.008-.71-.012-.944-.012 0 .116-.002.245-.01.38-.006.138-.01.31-.01.516V13c0 .74.004 1.35.01 1.828.008.48.017.845.03 1.09h1.362a38 38 0 0 0 2.792-.105c.42-.034.79-.08 1.1-.146a1.3 1.3 0 0 0-.048.302c-.008.11-.01.208-.01.3 0 .207.02.376.06.507a37.647 37.647 0 0 0-1.742-.04h-3.532c-.584 0-1.174.013-1.77.04.04-.83.073-1.66.107-2.482.032-.824.05-1.663.05-2.52V8.428a70.01 70.01 0 0 0-.052-2.532zM236.757 14.954c.175.24.39.46.643.652a3.25 3.25 0 0 0 2.014.662c.427 0 .813-.074 1.158-.225.343-.148.634-.35.875-.604a2.68 2.68 0 0 0 .554-.895c.13-.344.195-.71.195-1.1 0-.597-.152-1.07-.457-1.42a3.77 3.77 0 0 0-1.138-.876 13.93 13.93 0 0 0-1.47-.646 7.458 7.458 0 0 1-1.47-.73 3.892 3.892 0 0 1-1.138-1.118c-.304-.454-.457-1.063-.457-1.827 0-.548.098-1.043.292-1.49.194-.45.476-.834.846-1.158a4.03 4.03 0 0 1 1.333-.76 5.33 5.33 0 0 1 1.752-.272c.623 0 1.16.076 1.615.225.455.15.875.378 1.265.69a4.2 4.2 0 0 0-.292.7c-.078.248-.156.56-.233.935h-.234a4.92 4.92 0 0 0-.264-.595 2.23 2.23 0 0 0-.448-.592 2.504 2.504 0 0 0-.67-.46c-.26-.12-.572-.184-.935-.184-.362 0-.698.058-1 .175a2.37 2.37 0 0 0-.8.497c-.228.214-.403.47-.524.768a2.52 2.52 0 0 0-.186.973c0 .61.15 1.092.457 1.44.305.35.685.646 1.14.887.452.238.943.454 1.47.642a8.206 8.206 0 0 1 1.467.69c.454.272.834.62 1.14 1.052.303.427.456 1 .456 1.712a4.46 4.46 0 0 1-.32 1.693c-.214.53-.526.993-.935 1.39-.41.396-.908.7-1.5.916-.59.212-1.26.32-2.012.32-.806 0-1.458-.108-1.956-.32-.5-.216-.918-.46-1.256-.73.117-.298.198-.568.243-.81.046-.238.088-.547.127-.922h.233c.105.233.245.47.42.71zM249.24 4.416c-.337 0-.69.004-1.06.01-.37.006-.74.02-1.11.04a57.9 57.9 0 0 0-1.07.067c-.344.026-.65.06-.924.1.064-.235.098-.442.098-.624 0-.146-.034-.346-.098-.605.856.024 1.693.05 2.51.067a102.84 102.84 0 0 0 5.02 0c.82-.018 1.655-.043 2.513-.067-.066.26-.1.466-.1.62 0 .17.033.372.1.606-.273-.04-.583-.07-.927-.098a50.52 50.52 0 0 0-1.068-.067 25.88 25.88 0 0 0-1.11-.04c-.37-.006-.724-.01-1.06-.01-.04 1.337-.06 2.68-.06 4.028v3.347c0 .857.017 1.702.048 2.53.033.83.068 1.647.107 2.453-.3-.027-.615-.04-.953-.04-.338 0-.655.013-.952.04.038-.806.072-1.623.105-2.453.032-.828.05-1.673.05-2.53V8.443c0-1.346-.02-2.69-.06-4.027zM266.813 16.775a3.53 3.53 0 0 0-.516-.04h-1.03a3.51 3.51 0 0 0-.516.04c-.092-.3-.215-.66-.37-1.08a39.216 39.216 0 0 0-.516-1.323l-.575-1.402a114.4 114.4 0 0 1-.546-1.353c-.415-.012-.837-.022-1.265-.03-.43-.004-.856-.01-1.285-.01-.4 0-.798.006-1.188.01-.39.008-.785.02-1.187.03a89.822 89.822 0 0 0-1.13 2.89c-.337.916-.59 1.67-.758 2.27a5.96 5.96 0 0 0-.72-.04c-.26 0-.5.012-.72.04a485.025 485.025 0 0 0 3.073-6.773c1-2.244 2.006-4.528 3.018-6.85h.37c.31.753.648 1.565 1.012 2.443a535.6 535.6 0 0 0 3.3 7.782c.33.76.628 1.437.893 2.035.27.593.486 1.048.655 1.36zm-8.62-6.052c.336 0 .687.007 1.05.018.363.015.715.022 1.052.022.363 0 .727-.002 1.09-.01.363-.006.727-.018 1.09-.028l-2.16-4.943-2.122 4.943zM279.89 16.775a3.51 3.51 0 0 0-.516-.04h-1.032a3.52 3.52 0 0 0-.516.04c-.092-.3-.214-.66-.37-1.08a35.587 35.587 0 0 0-.517-1.323c-.188-.462-.38-.928-.575-1.402-.193-.473-.375-.923-.544-1.353a99.726 99.726 0 0 0-1.263-.03c-.43-.004-.856-.01-1.285-.01-.402 0-.798.006-1.188.01-.39.008-.785.02-1.187.03a87.538 87.538 0 0 0-1.13 2.89c-.336.916-.59 1.67-.758 2.27-.222-.028-.462-.04-.722-.04-.26 0-.5.012-.72.04 1.05-2.272 2.076-4.53 3.074-6.773 1-2.244 2.005-4.528 3.017-6.85h.37c.31.753.647 1.565 1.01 2.443.365.873.734 1.76 1.11 2.655.377.894.75 1.782 1.128 2.665a307.054 307.054 0 0 0 1.958 4.497c.268.593.486 1.048.654 1.36zm-8.62-6.052c.337 0 .688.007 1.05.018.363.015.714.022 1.052.022.362 0 .727-.002 1.09-.01.36-.006.727-.018 1.09-.028l-2.16-4.943-2.123 4.943zM283.432 4.416c-.338 0-.69.004-1.062.01-.37.006-.74.02-1.108.04-.37.02-.727.042-1.07.067-.344.026-.65.06-.924.1.064-.235.097-.442.097-.624 0-.146-.032-.346-.097-.605.855.024 1.692.05 2.51.067a102.723 102.723 0 0 0 5.02 0c.818-.018 1.655-.043 2.51-.067-.064.26-.096.466-.096.62 0 .17.03.372.097.606a13.97 13.97 0 0 0-.926-.098c-.343-.025-.7-.048-1.07-.067a25.56 25.56 0 0 0-1.108-.04c-.37-.006-.722-.01-1.06-.01-.04 1.337-.06 2.68-.06 4.028v3.347c0 .857.017 1.702.05 2.53.032.83.067 1.647.106 2.453-.3-.027-.617-.04-.954-.04-.337 0-.655.013-.952.04.038-.806.073-1.623.105-2.453.034-.828.05-1.673.05-2.53V8.443c0-1.346-.02-2.69-.058-4.027zM291.692 14.954c.175.24.39.46.644.652a3.246 3.246 0 0 0 2.012.662c.43 0 .815-.074 1.16-.225a2.592 2.592 0 0 0 1.43-1.498c.13-.344.195-.71.195-1.1 0-.597-.153-1.07-.457-1.42a3.763 3.763 0 0 0-1.14-.876 13.592 13.592 0 0 0-1.47-.646 7.54 7.54 0 0 1-1.47-.73 3.885 3.885 0 0 1-1.136-1.118c-.307-.454-.458-1.063-.458-1.827 0-.548.097-1.043.29-1.49.194-.45.478-.834.847-1.158a4.04 4.04 0 0 1 1.334-.76 5.31 5.31 0 0 1 1.75-.272c.622 0 1.16.076 1.615.225a3.98 3.98 0 0 1 1.264.69c-.117.22-.214.455-.29.7a9.33 9.33 0 0 0-.234.935h-.234a4.783 4.783 0 0 0-.264-.595c-.11-.214-.26-.41-.447-.592a2.52 2.52 0 0 0-.67-.46c-.26-.12-.57-.184-.935-.184-.363 0-.698.058-1.002.175a2.38 2.38 0 0 0-.8.497c-.227.214-.4.47-.523.768a2.52 2.52 0 0 0-.185.973c0 .61.15 1.092.457 1.44a3.9 3.9 0 0 0 1.14.887c.45.238.94.454 1.467.642a8.183 8.183 0 0 1 1.47.69 3.7 3.7 0 0 1 1.14 1.052c.305.427.455 1 .455 1.712 0 .597-.106 1.16-.32 1.693a4.05 4.05 0 0 1-.934 1.39 4.2 4.2 0 0 1-1.5.916c-.59.212-1.262.32-2.014.32-.806 0-1.456-.108-1.956-.32a5.36 5.36 0 0 1-1.253-.73 4.69 4.69 0 0 0 .24-.81c.048-.238.09-.547.13-.922h.23c.103.233.245.47.42.71zM305.285 11.636v1.207h-4.846v-1.207h4.845zM323.733 5.467c-.014-.997-.046-1.686-.098-2.062.143.024.28.05.408.067a2.063 2.063 0 0 0 .974-.068c-.04.455-.078.995-.116 1.625a77.94 77.94 0 0 0-.1 2.022c-.023.72-.05 1.458-.075 2.217-.027.76-.045 1.496-.06 2.21-.013.868-.145 1.646-.397 2.333a4.914 4.914 0 0 1-1.08 1.75 4.507 4.507 0 0 1-1.722 1.093c-.683.245-1.463.37-2.346.37-1.946 0-3.36-.442-4.242-1.324-.883-.882-1.323-2.277-1.323-4.184 0-.61.016-1.15.05-1.625.03-.473.047-.957.047-1.45a102.44 102.44 0 0 0-.117-5.04c.155.025.324.05.506.068.184.022.353.03.508.03.142 0 .28-.01.42-.03.134-.017.273-.042.417-.066-.026.286-.052.657-.078 1.118a101.147 101.147 0 0 0-.136 3.453c-.012.675-.02 1.377-.02 2.104 0 .437.008.896.02 1.37.013.475.06.934.137 1.38.078.45.204.877.38 1.284.176.41.423.766.75 1.07.324.305.73.546 1.224.722.494.175 1.105.263 1.83.263.715 0 1.315-.106 1.802-.314.487-.208.885-.48 1.197-.817a3.74 3.74 0 0 0 .728-1.17c.175-.437.302-.9.38-1.38.077-.48.122-.96.136-1.44.013-.478.018-.92.018-1.322-.002-1.84-.007-3.262-.02-4.26zM335.04 11.724a1338.95 1338.95 0 0 0-5.06-5.4c-.014.363-.027.85-.04 1.46-.013.61-.02 1.44-.02 2.49 0 .273.003.61.01 1.012l.02 1.267c.005.44.017.887.03 1.342.01.455.024.876.038 1.265.013.39.024.73.038 1.022.014.292.026.49.04.594a5.35 5.35 0 0 0-.682-.04c-.26 0-.5.013-.72.04.024-.13.056-.37.087-.72.033-.352.063-.77.09-1.257.024-.486.054-1.016.087-1.587.03-.57.06-1.142.076-1.71.02-.572.036-1.13.05-1.676.014-.544.02-1.03.02-1.46 0-1.245-.004-2.314-.01-3.21a45.44 45.44 0 0 0-.048-2.005h.31c.793.857 1.64 1.775 2.54 2.755.902.98 1.798 1.944 2.688 2.898.887.954 1.73 1.854 2.53 2.705a97.54 97.54 0 0 0 2.09 2.17v-2.647c0-1.362-.01-2.688-.03-3.98a92.157 92.157 0 0 0-.125-3.647c.26.065.48.097.662.097.155 0 .362-.03.62-.097-.024.286-.054.714-.087 1.285-.03.57-.065 1.18-.097 1.828l-.088 1.907a41.63 41.63 0 0 0-.038 1.498v1.17c0 .44.002.9.01 1.38l.02 1.45.02 1.36c.005.425.01.79.01 1.102v.642h-.272a193.905 193.905 0 0 0-4.77-5.303zM344.038 5.926a448.22 448.22 0 0 0-.106-2.52c.493.023.98.05 1.47.066.486.02.975.03 1.468.03s.983-.017 1.47-.048c.486-.034.977-.05 1.47-.05 1.14 0 2.118.148 2.928.448.81.297 1.477.722 1.994 1.273.52.552.898 1.225 1.14 2.023.24.8.36 1.697.36 2.696 0 1.297-.224 2.39-.672 3.28-.447.886-1.02 1.603-1.712 2.148a6.35 6.35 0 0 1-2.296 1.157 9.195 9.195 0 0 1-2.404.34c-.44 0-.875-.006-1.303-.02a40.1 40.1 0 0 0-1.306-.02h-1.304c-.428 0-.862.013-1.304.04.038-.806.074-1.623.106-2.453.033-.828.05-1.673.05-2.53V8.44c0-.85-.017-1.69-.05-2.514zm1.762 9.99c.272.066.642.115 1.11.147.466.033.944.05 1.44.05a9.29 9.29 0 0 0 2.14-.255 4.63 4.63 0 0 0 1.916-.952c.564-.468 1.023-1.107 1.382-1.918.357-.81.535-1.858.535-3.142 0-1.13-.14-2.057-.418-2.784-.28-.727-.662-1.3-1.148-1.722a4.046 4.046 0 0 0-1.742-.875 9.495 9.495 0 0 0-2.22-.243c-.582 0-1.127.02-1.633.06-.507.037-.962.082-1.362.134a65.357 65.357 0 0 0-.117 4.028v3.347c0 1.404.04 2.78.117 4.127zM10.198 29.314c-.014-1-.046-1.688-.097-2.064.143.027.28.05.41.07.128.018.26.026.39.026.168 0 .362-.03.583-.097-.04.454-.08.994-.117 1.624a83.84 83.84 0 0 0-.098 2.023l-.078 2.22c-.027.758-.045 1.494-.06 2.207-.01.87-.145 1.65-.397 2.337a4.89 4.89 0 0 1-1.08 1.752 4.49 4.49 0 0 1-1.722 1.09c-.68.247-1.462.368-2.344.368-1.946 0-3.36-.44-4.242-1.323C.462 38.667.02 37.272.02 35.365c0-.61.016-1.152.05-1.625.03-.475.048-.957.048-1.452 0-1.09-.013-2.055-.04-2.898-.025-.842-.052-1.556-.078-2.14.156.026.325.05.506.07.18.017.35.025.505.025.144 0 .283-.01.42-.026.134-.022.275-.044.418-.07-.027.285-.052.658-.08 1.118-.023.46-.05.983-.075 1.566a70.69 70.69 0 0 0-.06 1.888c-.013.676-.02 1.375-.02 2.103 0 .44.007.898.02 1.37.013.476.06.935.136 1.383.078.447.204.875.38 1.285.175.407.424.765.75 1.068.323.308.73.546 1.225.722.493.176 1.103.263 1.83.263.712 0 1.313-.104 1.8-.31.486-.208.884-.48 1.196-.817.313-.338.556-.728.73-1.168.177-.44.303-.903.38-1.382.078-.48.123-.962.136-1.44.014-.48.02-.92.02-1.324.002-1.84-.004-3.263-.018-4.26zM21.503 35.568c-1.686-1.81-3.372-3.61-5.06-5.4-.012.366-.025.853-.038 1.46a118.18 118.18 0 0 0-.01 3.504c.008.403.012.824.02 1.265.006.44.017.89.03 1.342.013.454.026.877.04 1.267.01.387.025.73.038 1.02.014.292.026.49.04.594a5.314 5.314 0 0 0-.68-.037c-.26 0-.502.01-.72.038.023-.13.053-.368.085-.72.033-.35.062-.767.09-1.255.024-.486.053-1.016.086-1.585.033-.57.057-1.14.078-1.713.02-.57.036-1.13.048-1.675.012-.544.02-1.03.02-1.458 0-1.244-.003-2.316-.01-3.212A40.25 40.25 0 0 0 15.51 27h.312c.79.854 1.637 1.772 2.54 2.752a768.332 768.332 0 0 0 5.215 5.603 95.16 95.16 0 0 0 2.093 2.17V34.88c0-1.363-.01-2.69-.03-3.98a88.547 88.547 0 0 0-.126-3.648c.26.065.48.097.66.097.157 0 .365-.032.624-.098-.026.286-.054.714-.087 1.285a270.865 270.865 0 0 0-.184 3.736 37.72 37.72 0 0 0-.04 1.5v1.165c0 .44.003.902.01 1.382l.02 1.45.02 1.363c.005.42.01.787.01 1.098v.643h-.273a193.82 193.82 0 0 0-4.77-5.305zM30.505 29.77a604.35 604.35 0 0 0-.107-2.52c.167.026.33.05.486.07a4.048 4.048 0 0 0 .934 0c.155-.022.317-.044.486-.07-.04.856-.074 1.696-.107 2.52a63.003 63.003 0 0 0-.048 2.52v3.35c0 .854.015 1.698.047 2.528.033.83.068 1.647.107 2.45a10.638 10.638 0 0 0-.953-.037c-.337 0-.655.012-.952.04.038-.805.074-1.62.107-2.452.032-.83.048-1.674.048-2.53v-3.35c0-.854-.016-1.694-.048-2.518zM38.823 37.855c-.43-1.076-.886-2.21-1.372-3.405a793.028 793.028 0 0 0-1.498-3.657 569.444 569.444 0 0 0-1.47-3.543c.182.027.358.05.526.07a4.584 4.584 0 0 0 .973 0c.168-.02.344-.043.526-.07.285.857.6 1.756.943 2.696.344.938.706 1.897 1.088 2.87.383.972.775 1.958 1.177 2.957.403 1 .81 1.992 1.227 2.978.234-.53.486-1.124.76-1.78a124.304 124.304 0 0 0 1.653-4.203l.788-2.11a101.9 101.9 0 0 0 1.218-3.407c.286.065.525.097.72.097.195 0 .435-.03.72-.097a319.135 319.135 0 0 0-2.92 6.714 236.74 236.74 0 0 0-2.684 6.655 4.993 4.993 0 0 0-.643-.04c-.26 0-.473.012-.642.04-.296-.766-.658-1.687-1.087-2.765zM49.088 29.74c-.03-.83-.067-1.66-.105-2.49.583.027 1.164.05 1.74.07a55.893 55.893 0 0 0 3.475 0c.57-.02 1.147-.043 1.73-.07-.038.196-.06.39-.06.585 0 .194.022.39.06.583a90.418 90.418 0 0 1-1.138-.078c-.343-.025-.708-.052-1.09-.077a53.56 53.56 0 0 0-1.255-.07c-.454-.018-1-.026-1.635-.026-.012.414-.03.81-.047 1.187-.02.376-.03.804-.03 1.285 0 .503.003.998.01 1.478s.01.842.01 1.09a53.99 53.99 0 0 0 2.783-.07 85.39 85.39 0 0 0 1.04-.058c.318-.02.62-.042.907-.07a2.928 2.928 0 0 0 0 1.19c-.34-.042-.73-.073-1.18-.1-.445-.025-.895-.04-1.34-.048l-1.266-.02c-.396-.008-.71-.01-.944-.01a7.5 7.5 0 0 1-.01.38c-.007.136-.01.31-.01.516v1.927c0 .738.003 1.35.01 1.828.007.48.016.844.03 1.09h1.36c.494 0 .978-.01 1.452-.028.474-.02.92-.047 1.342-.078.42-.032.79-.08 1.1-.146-.026.093-.043.192-.048.303-.008.11-.01.21-.01.302 0 .207.018.375.058.506a37.696 37.696 0 0 0-1.74-.037h-3.533c-.584 0-1.174.01-1.77.038.038-.83.074-1.655.105-2.48.033-.822.05-1.662.05-2.52v-3.347c-.003-.86-.02-1.7-.052-2.532zM58.917 29.77c-.034-.823-.07-1.663-.108-2.52.375.026.745.05 1.11.07.36.017.73.025 1.107.025s.746-.016 1.11-.047c.36-.034.732-.05 1.11-.05.543 0 1.062.052 1.555.155.493.104.925.277 1.294.516.37.24.662.555.875.944.214.39.323.875.323 1.458 0 .624-.14 1.16-.418 1.607-.28.447-.62.816-1.022 1.106-.403.292-.834.52-1.294.682-.462.162-.88.27-1.257.32.155.195.372.468.644.818.272.35.576.736.914 1.157.338.423.69.864 1.052 1.323.362.462.713.902 1.05 1.323.337.42.656.808.954 1.156.298.35.538.616.72.8a4.208 4.208 0 0 0-.584-.04h-1.148c-.196 0-.382.012-.565.04-.194-.273-.49-.683-.885-1.228a81.518 81.518 0 0 0-1.314-1.75 96.4 96.4 0 0 0-1.468-1.86c-.5-.614-.958-1.137-1.373-1.566h-.74v1.423c0 .855.015 1.7.05 2.53.03.83.066 1.646.105 2.45a10.616 10.616 0 0 0-.952-.038c-.338 0-.656.01-.955.038.04-.804.074-1.62.108-2.45.03-.83.048-1.675.048-2.53v-3.35c0-.85-.016-1.69-.047-2.515zm2.237 3.707c.214.014.45.02.71.02.4 0 .82-.046 1.254-.137.435-.09.833-.25 1.198-.477.362-.228.664-.53.905-.914.24-.384.36-.867.36-1.45 0-.507-.094-.925-.28-1.256a2.24 2.24 0 0 0-.73-.788 2.734 2.734 0 0 0-.973-.398 5.197 5.197 0 0 0-1.03-.107c-.456 0-.83.01-1.13.03-.298.02-.552.042-.76.067-.026.713-.05 1.42-.078 2.122-.026.7-.04 1.4-.04 2.1v1.11c.182.04.38.063.594.077zM70.942 38.8c.175.238.388.457.64.65a3.273 3.273 0 0 0 2.015.663c.428 0 .813-.074 1.158-.224.343-.15.636-.352.875-.604a2.68 2.68 0 0 0 .556-.896c.13-.344.193-.71.193-1.1 0-.595-.152-1.07-.458-1.42a3.778 3.778 0 0 0-1.138-.876 13.186 13.186 0 0 0-1.47-.642 7.726 7.726 0 0 1-1.468-.73 3.926 3.926 0 0 1-1.14-1.117c-.304-.455-.456-1.064-.456-1.83 0-.545.097-1.042.292-1.49.193-.445.476-.833.846-1.156a3.96 3.96 0 0 1 1.333-.76c.52-.183 1.104-.272 1.752-.272.624 0 1.16.074 1.615.223.454.152.877.382 1.266.692-.117.22-.215.454-.292.702a9.56 9.56 0 0 0-.233.932h-.233a5.265 5.265 0 0 0-.262-.592 2.32 2.32 0 0 0-.448-.595 2.504 2.504 0 0 0-.67-.457c-.262-.124-.572-.185-.936-.185a2.77 2.77 0 0 0-1.002.175c-.304.115-.57.28-.797.495-.23.214-.404.47-.528.768-.123.3-.185.624-.185.975 0 .61.153 1.09.457 1.44.306.35.686.645 1.14.886.454.24.942.454 1.468.642a8.36 8.36 0 0 1 1.47.69c.454.272.833.624 1.138 1.052.305.428.457 1 .457 1.713 0 .596-.107 1.16-.32 1.692a3.954 3.954 0 0 1-.935 1.39 4.147 4.147 0 0 1-1.5.917c-.59.214-1.26.32-2.013.32-.805 0-1.458-.106-1.958-.32a5.272 5.272 0 0 1-1.254-.73c.117-.298.198-.568.243-.807.046-.24.09-.55.127-.925h.234c.107.233.246.47.422.71zM80.73 29.77c-.034-.823-.068-1.663-.108-2.52.17.026.33.05.486.07a4.09 4.09 0 0 0 .934 0c.157-.022.32-.044.487-.07-.04.856-.075 1.696-.108 2.52-.03.824-.05 1.664-.05 2.52v3.35c0 .854.02 1.698.05 2.528.033.83.068 1.647.107 2.45a10.608 10.608 0 0 0-.954-.037c-.337 0-.655.012-.954.04.04-.805.074-1.62.108-2.452.032-.83.048-1.674.048-2.53v-3.35c0-.854-.016-1.694-.048-2.518zM88.932 28.262c-.338 0-.69.003-1.06.01a37.648 37.648 0 0 0-2.18.107c-.343.023-.652.058-.924.096a2.39 2.39 0 0 0 .097-.623c0-.142-.033-.345-.097-.604.855.026 1.693.05 2.51.07a120.816 120.816 0 0 0 5.02 0c.82-.022 1.656-.044 2.512-.07-.065.258-.098.468-.098.623 0 .168.033.37.098.603a14.253 14.253 0 0 0-.924-.097 39.754 39.754 0 0 0-2.18-.11c-.37-.005-.723-.008-1.06-.008-.04 1.335-.06 2.68-.06 4.026v3.35c0 .855.017 1.7.05 2.53.032.83.067 1.646.106 2.45a10.63 10.63 0 0 0-.952-.038c-.337 0-.657.01-.954.038.038-.804.074-1.62.108-2.45.03-.83.047-1.675.047-2.53v-3.35c0-1.347-.02-2.69-.058-4.026zM103.1 29.44a529.69 529.69 0 0 0 2.237 5.32 269.02 269.02 0 0 0 1.956 4.497c.265.597.482 1.05.65 1.36a3.5 3.5 0 0 0-.516-.037H106.396c-.162 0-.334.01-.516.038-.09-.3-.213-.657-.37-1.08-.155-.42-.328-.862-.516-1.323l-.574-1.4c-.194-.475-.377-.925-.546-1.353a72.57 72.57 0 0 0-2.548-.038 66.277 66.277 0 0 0-2.375.038 81.664 81.664 0 0 0-1.127 2.89c-.337.914-.592 1.67-.76 2.267a5.945 5.945 0 0 0-.72-.04c-.26 0-.5.012-.72.04a522.44 522.44 0 0 0 3.074-6.773 980.8 980.8 0 0 0 3.017-6.85h.37c.315.752.65 1.567 1.015 2.443zm-3.932-5.303a.95.95 0 0 1 .7-.293c.273 0 .506.097.702.293.194.193.29.428.29.7a.954.954 0 0 1-.29.7.955.955 0 0 1-.7.292.952.952 0 0 1-.702-.294.952.952 0 0 1-.293-.7.95.95 0 0 1 .293-.7zm.155 10.43c.337 0 .688.007 1.05.02.365.012.714.02 1.052.02a56.413 56.413 0 0 0 2.178-.04l-2.16-4.94-2.12 4.94zm3.68-10.43a.952.952 0 0 1 .7-.293c.27 0 .505.097.7.293a.958.958 0 0 1 .292.7.955.955 0 0 1-.292.7.953.953 0 0 1-.7.292.952.952 0 0 1-.7-.294.952.952 0 0 1-.294-.7.95.95 0 0 1 .292-.7zM112.926 28.262c-.337 0-.69.003-1.06.01a37.34 37.34 0 0 0-2.18.107c-.345.023-.653.058-.925.096.065-.233.1-.44.1-.623a2.75 2.75 0 0 0-.1-.604c.857.026 1.693.05 2.512.07a120.84 120.84 0 0 0 5.02 0c.817-.022 1.654-.044 2.51-.07-.064.258-.097.468-.097.623 0 .168.032.37.098.603-.272-.038-.58-.072-.925-.097a39.41 39.41 0 0 0-2.178-.11 65.72 65.72 0 0 0-1.063-.008c-.038 1.335-.056 2.68-.056 4.026v3.35c0 .855.017 1.7.048 2.53.032.83.07 1.646.108 2.45a10.67 10.67 0 0 0-.955-.038c-.336 0-.654.01-.952.038.04-.804.076-1.62.107-2.45.033-.83.048-1.675.048-2.53v-3.35c0-1.347-.018-2.69-.057-4.026zM121.187 38.8c.174.238.39.457.64.65a3.277 3.277 0 0 0 2.015.663c.43 0 .815-.074 1.16-.224.342-.15.635-.352.876-.604a2.66 2.66 0 0 0 .553-.896c.132-.344.196-.71.196-1.1 0-.595-.152-1.07-.457-1.42a3.803 3.803 0 0 0-1.14-.876 13.267 13.267 0 0 0-1.47-.642 7.774 7.774 0 0 1-1.47-.73 3.938 3.938 0 0 1-1.138-1.117c-.304-.455-.457-1.064-.457-1.83 0-.545.097-1.042.293-1.49.193-.445.477-.833.846-1.156.37-.325.814-.58 1.333-.76.52-.183 1.103-.272 1.75-.272.624 0 1.162.074 1.617.223a4.1 4.1 0 0 1 1.265.692 4.25 4.25 0 0 0-.294.702c-.076.245-.155.556-.233.932h-.233a5.108 5.108 0 0 0-.263-.592 2.298 2.298 0 0 0-.448-.595 2.49 2.49 0 0 0-.672-.457c-.26-.124-.572-.185-.934-.185a2.77 2.77 0 0 0-1.002.175 2.37 2.37 0 0 0-.798.495c-.228.214-.403.47-.524.768-.124.3-.186.624-.186.975 0 .61.152 1.09.458 1.44.304.35.683.645 1.136.886.455.24.945.454 1.47.642a8.262 8.262 0 0 1 1.47.69c.455.272.833.624 1.14 1.052.303.428.456 1 .456 1.713a4.47 4.47 0 0 1-.322 1.692 3.927 3.927 0 0 1-.934 1.39 4.134 4.134 0 0 1-1.498.917c-.59.214-1.262.32-2.015.32-.805 0-1.456-.106-1.955-.32a5.268 5.268 0 0 1-1.256-.73c.117-.298.198-.568.243-.807.045-.24.087-.55.127-.925h.233c.105.233.244.47.42.71zM130.975 29.74c-.033-.83-.07-1.66-.108-2.49.337.027.682.05 1.033.07.35.018.693.026 1.03.026.338 0 .682-.016 1.032-.047.35-.035.693-.05 1.032-.05.557 0 1.083.042 1.577.125.494.086.928.234 1.304.448s.674.504.896.866c.22.36.33.816.33 1.36 0 .962-.3 1.713-.904 2.258-.604.545-1.392.928-2.366 1.148v.04c1.155.052 2.066.33 2.735.835.667.508 1 1.317 1 2.434 0 .728-.147 1.337-.447 1.83a3.608 3.608 0 0 1-1.166 1.197c-.48.305-1.01.52-1.587.643a8.18 8.18 0 0 1-1.722.185c-.312 0-.626-.007-.944-.02-.32-.012-.635-.02-.945-.02h-.943c-.32 0-.633.012-.945.04.04-.83.075-1.657.108-2.48a62.96 62.96 0 0 0 .048-2.522V32.27c0-.857-.015-1.698-.048-2.53zm4.048 3.348a3.68 3.68 0 0 0 1.196-.457c.35-.213.63-.5.845-.856.214-.356.322-.806.322-1.354 0-.53-.097-.956-.292-1.273a2.113 2.113 0 0 0-.74-.738 2.815 2.815 0 0 0-1.01-.352 7.278 7.278 0 0 0-1.13-.088 10.337 10.337 0 0 0-1.478.096l-.078 1.85a43.36 43.36 0 0 0-.04 1.848v1.46h1.05c.453 0 .903-.046 1.353-.136zm-2.365 4.807l.078 1.965c.247.027.538.05.875.068.337.02.682.03 1.033.03.414 0 .814-.07 1.196-.215a2.843 2.843 0 0 0 1.002-.633 3.09 3.09 0 0 0 .68-1.03c.17-.41.253-.874.253-1.394 0-.556-.1-1.013-.3-1.37a2.146 2.146 0 0 0-.867-.838c-.375-.2-.827-.34-1.353-.42a12.364 12.364 0 0 0-1.76-.113h-.876v1.982c0 .663.013 1.317.038 1.968zM142.962 29.77a470.48 470.48 0 0 0-.107-2.52c.168.026.33.05.485.07a4.09 4.09 0 0 0 .935 0c.157-.022.32-.044.487-.07-.04.856-.074 1.696-.108 2.52a64.936 64.936 0 0 0-.048 2.52v3.35c0 .854.017 1.698.048 2.528.034.83.07 1.647.108 2.45a10.66 10.66 0 0 0-.954-.037c-.338 0-.655.012-.953.04.04-.805.074-1.62.107-2.452.03-.83.05-1.674.05-2.53v-3.35c0-.854-.02-1.694-.05-2.518zM148.47 29.74c-.035-.83-.068-1.66-.11-2.49.338.027.683.05 1.034.07.35.018.693.026 1.03.026.34 0 .682-.016 1.032-.047.35-.035.693-.05 1.032-.05.557 0 1.083.042 1.577.125.493.086.927.234 1.303.448.376.214.675.504.896.866.22.36.33.816.33 1.36 0 .962-.3 1.713-.903 2.258-.603.545-1.39.928-2.365 1.148v.04c1.155.052 2.066.33 2.735.835.668.508 1 1.317 1 2.434 0 .728-.147 1.337-.447 1.83a3.6 3.6 0 0 1-1.167 1.197c-.48.305-1.01.52-1.586.643a8.18 8.18 0 0 1-1.722.185c-.312 0-.626-.007-.945-.02-.317-.012-.632-.02-.943-.02h-.943c-.32 0-.634.012-.945.04.04-.83.074-1.657.108-2.48.03-.824.048-1.664.048-2.522V32.27c0-.857-.017-1.698-.05-2.53zm4.046 3.348c.448-.09.846-.243 1.197-.457.35-.213.632-.5.846-.856.213-.356.32-.806.32-1.354 0-.53-.097-.956-.29-1.273a2.113 2.113 0 0 0-.74-.738 2.815 2.815 0 0 0-1.012-.352 7.27 7.27 0 0 0-1.13-.088 10.353 10.353 0 0 0-1.478.096l-.077 1.85a41.76 41.76 0 0 0-.04 1.848v1.46h1.05a6.83 6.83 0 0 0 1.353-.136zm-2.363 4.807l.077 1.965c.248.027.538.05.876.068.336.02.68.03 1.032.03.414 0 .813-.07 1.196-.215a2.852 2.852 0 0 0 1.003-.633c.283-.28.51-.623.68-1.03.168-.41.253-.874.253-1.394 0-.556-.1-1.013-.3-1.37a2.146 2.146 0 0 0-.867-.838c-.375-.2-.828-.34-1.353-.42a12.374 12.374 0 0 0-1.76-.113h-.876v1.982c0 .663.012 1.317.04 1.968zM160.455 29.77c-.032-.823-.067-1.663-.106-2.52.167.026.33.05.485.07a4.066 4.066 0 0 0 .934 0c.155-.022.317-.044.486-.07-.04.856-.074 1.696-.107 2.52a62.98 62.98 0 0 0-.05 2.52c0 1.636.006 3.054.02 4.253l.038 3.22c.922 0 1.803-.01 2.647-.028.843-.02 1.75-.094 2.725-.225a2.31 2.31 0 0 0-.098.585c0 .142.034.317.098.524a39.664 39.664 0 0 0-1.79-.04h-3.59c-.578 0-1.178.012-1.8.04.038-.805.073-1.62.105-2.452.033-.83.05-1.674.05-2.53v-3.35c0-.854-.017-1.694-.05-2.518zM170.283 29.77a467.56 467.56 0 0 0-.105-2.52c.167.026.33.05.485.07a4.073 4.073 0 0 0 .935 0c.155-.022.317-.044.486-.07-.04.856-.074 1.696-.108 2.52a64.936 64.936 0 0 0-.048 2.52v3.35c0 .854.017 1.698.048 2.528.034.83.067 1.647.108 2.45a10.66 10.66 0 0 0-.954-.037c-.338 0-.655.012-.952.04.038-.805.073-1.62.105-2.452.032-.83.05-1.674.05-2.53v-3.35c0-.854-.018-1.694-.05-2.518zM175.284 31.015a6.167 6.167 0 0 1 1.5-2.19c.64-.596 1.41-1.05 2.305-1.36.894-.312 1.873-.467 2.937-.467 1.077 0 2.063.155 2.958.466a6.505 6.505 0 0 1 2.307 1.36c.642.6 1.14 1.33 1.498 2.19.357.865.535 1.847.535 2.95 0 1.1-.178 2.086-.535 2.947a6.147 6.147 0 0 1-1.498 2.19 6.134 6.134 0 0 1-2.307 1.333c-.895.29-1.88.437-2.958.437-1.064 0-2.043-.146-2.938-.437-.897-.292-1.666-.735-2.307-1.332a6.158 6.158 0 0 1-1.5-2.19c-.356-.86-.535-1.845-.535-2.947s.18-2.084.536-2.948zm11.725.155c-.274-.785-.652-1.432-1.14-1.944a4.55 4.55 0 0 0-1.71-1.14 6 6 0 0 0-2.133-.368c-.75 0-1.456.12-2.11.368a4.538 4.538 0 0 0-1.714 1.14c-.486.513-.867 1.16-1.14 1.944-.27.785-.407 1.717-.407 2.793s.135 2.008.408 2.793c.272.786.652 1.434 1.14 1.945a4.524 4.524 0 0 0 1.712 1.14c.655.247 1.36.37 2.11.37a6 6 0 0 0 2.133-.37 4.528 4.528 0 0 0 1.71-1.14c.487-.51.865-1.158 1.14-1.944.27-.785.408-1.717.408-2.793s-.137-2.008-.41-2.793zM194.073 28.262c-.337 0-.69.003-1.06.01a37.103 37.103 0 0 0-2.18.107c-.343.023-.65.058-.923.096a2.39 2.39 0 0 0 .097-.623c0-.142-.033-.345-.097-.604.855.026 1.692.05 2.51.07a120.84 120.84 0 0 0 5.022 0c.816-.022 1.652-.044 2.508-.07-.065.258-.097.468-.097.623 0 .168.032.37.097.603-.272-.038-.58-.072-.924-.097a39.674 39.674 0 0 0-2.18-.11c-.368-.005-.722-.008-1.06-.008-.038 1.335-.058 2.68-.058 4.026v3.35c0 .855.016 1.7.048 2.53.033.83.067 1.646.107 2.45-.3-.027-.617-.038-.953-.038-.337 0-.656.01-.953.038.038-.804.073-1.62.106-2.45.032-.83.05-1.675.05-2.53v-3.35c0-1.347-.022-2.69-.06-4.026zM212.025 29.77c-.033-.823-.07-1.663-.108-2.52.168.026.332.05.488.07a4.048 4.048 0 0 0 .933 0c.157-.022.32-.044.487-.07-.04.856-.075 1.696-.107 2.52a64.936 64.936 0 0 0-.048 2.52v3.35c0 .854.016 1.698.048 2.528.032.83.068 1.647.107 2.45-.3-.026-.617-.037-.953-.037-.338 0-.656.012-.955.04.04-.805.075-1.62.108-2.452.033-.83.048-1.674.048-2.53v-1.75c-.7-.014-1.378-.025-2.034-.032-.656-.004-1.333-.01-2.034-.01-.7 0-1.38.006-2.034.01-.655.007-1.333.02-2.032.032v1.75c0 .856.016 1.7.047 2.53.032.83.068 1.647.108 2.45a10.67 10.67 0 0 0-.955-.037c-.337 0-.655.012-.954.04.04-.805.077-1.62.108-2.452.033-.83.048-1.674.048-2.53v-3.35c0-.853-.016-1.693-.048-2.518a283.19 283.19 0 0 0-.108-2.52c.17.026.33.05.487.07a4.073 4.073 0 0 0 .935 0c.154-.022.317-.044.486-.07-.04.856-.076 1.696-.108 2.52a64.96 64.96 0 0 0-.047 2.52v.682l2.03.038a95.262 95.262 0 0 0 4.068 0l2.034-.038v-.683c0-.856-.015-1.696-.047-2.52zM217.532 29.74c-.034-.83-.067-1.66-.107-2.49.583.027 1.164.05 1.74.07a55.893 55.893 0 0 0 3.476 0c.57-.02 1.148-.043 1.732-.07-.038.196-.06.39-.06.585 0 .194.022.39.06.583a90.656 90.656 0 0 1-1.14-.078c-.342-.025-.706-.052-1.088-.077-.383-.026-.8-.05-1.256-.07-.454-.018-1-.026-1.634-.026-.013.414-.03.81-.05 1.187-.017.376-.028.804-.028 1.285 0 .503.004.998.01 1.478s.01.842.01 1.09a54.138 54.138 0 0 0 2.784-.07c.377-.02.723-.04 1.04-.058.318-.02.62-.042.906-.07a3.06 3.06 0 0 0 0 1.188c-.338-.04-.73-.07-1.177-.1-.45-.023-.897-.04-1.343-.046l-1.265-.02c-.396-.008-.71-.01-.944-.01 0 .117-.003.243-.01.38-.006.136-.01.31-.01.516v1.927c0 .738.004 1.35.01 1.828.006.48.017.844.03 1.09h1.362c.493 0 .976-.01 1.45-.028a43.5 43.5 0 0 0 1.343-.078c.42-.032.788-.08 1.098-.146-.025.093-.04.192-.047.303-.006.11-.01.21-.01.302 0 .207.02.375.058.506a37.635 37.635 0 0 0-1.74-.037h-3.532c-.583 0-1.173.01-1.77.038.04-.83.073-1.655.107-2.48.032-.822.05-1.662.05-2.52v-3.347c-.004-.86-.02-1.7-.053-2.532zM227.36 38.167c.032-.83.048-1.674.048-2.53v-3.35c0-.853-.017-1.693-.048-2.518a470.48 470.48 0 0 0-.107-2.522c.167.027.33.05.486.07a4.048 4.048 0 0 0 .933 0c.155-.02.317-.043.486-.07-.04.857-.076 1.697-.108 2.52a64.936 64.936 0 0 0-.048 2.52v1.07c0 .105.04.156.116.156.053 0 .143-.058.273-.175.454-.39.93-.832 1.43-1.324.5-.49 1-1.004 1.506-1.538a68.475 68.475 0 0 0 1.498-1.625c.493-.55.965-1.084 1.42-1.604.142.026.28.05.41.07.13.017.26.025.39.025.155 0 .31-.01.467-.026.155-.022.31-.044.467-.07-.455.39-.968.85-1.54 1.38-.57.534-1.144 1.077-1.72 1.635-.578.56-1.13 1.107-1.654 1.646-.526.54-.963 1.01-1.314 1.412a500.78 500.78 0 0 1 3.182 3.61 387.337 387.337 0 0 0 3.26 3.687 4.257 4.257 0 0 0-.586-.04h-1.119c-.172 0-.353.012-.534.04a70.24 70.24 0 0 1-1.547-1.83 286.57 286.57 0 0 0-3.112-3.725 20.5 20.5 0 0 0-.963-1.08c-.104-.104-.182-.155-.234-.155-.064 0-.096.038-.096.117v1.692c0 .854.016 1.698.048 2.528.032.83.068 1.647.107 2.45-.3-.026-.618-.037-.954-.037-.337 0-.656.012-.953.04.038-.805.074-1.622.107-2.453zM255.322 28.924a5.215 5.215 0 0 0-.975-.614 6.036 6.036 0 0 0-1.186-.428 5.665 5.665 0 0 0-1.392-.164c-.805 0-1.554.12-2.247.368a4.788 4.788 0 0 0-1.81 1.14c-.512.513-.915 1.16-1.205 1.944-.293.785-.44 1.717-.44 2.793 0 .947.13 1.803.39 2.568.26.77.64 1.412 1.14 1.94.5.523 1.11.93 1.828 1.215.722.285 1.534.428 2.443.428a10.2 10.2 0 0 0 1.72-.155 6.01 6.01 0 0 0 .78-.196c.24-.076.442-.167.61-.272.015-.387.023-.776.03-1.166.007-.39.01-.785.01-1.188 0-.452-.01-.906-.03-1.36-.018-.455-.04-.89-.067-1.304a4.43 4.43 0 0 0 1.365.076c.14-.013.275-.04.406-.077-.025.297-.044.77-.058 1.41-.014.642-.02 1.488-.02 2.54 0 .258.004.52.01.787.007.265.01.528.01.787a12.266 12.266 0 0 1-2.325.593c-.46.072-.92.135-1.382.193-.46.06-.88.088-1.256.088-1.155 0-2.195-.14-3.123-.415-.928-.28-1.716-.71-2.365-1.294a5.84 5.84 0 0 1-1.498-2.18c-.35-.87-.525-1.875-.525-3.017 0-1.103.18-2.084.543-2.948a6.08 6.08 0 0 1 1.537-2.19c.662-.596 1.463-1.05 2.404-1.36.94-.312 1.98-.467 3.122-.467.662 0 1.248.036 1.762.105a9.51 9.51 0 0 1 1.362.284 8.83 8.83 0 0 1 1.04.37c.3.13.565.25.798.368a3.35 3.35 0 0 0-.28.7 4.38 4.38 0 0 0-.165.8h-.234a4.795 4.795 0 0 0-.728-.7zM259.583 31.015a6.167 6.167 0 0 1 1.5-2.19c.64-.596 1.41-1.05 2.305-1.36.895-.312 1.874-.467 2.938-.467 1.077 0 2.063.155 2.958.466a6.514 6.514 0 0 1 2.307 1.36c.643.6 1.142 1.33 1.5 2.19.355.865.533 1.847.533 2.95 0 1.1-.178 2.086-.534 2.947a6.16 6.16 0 0 1-1.5 2.19 6.134 6.134 0 0 1-2.306 1.333c-.896.29-1.88.437-2.958.437-1.064 0-2.044-.146-2.938-.437a6.115 6.115 0 0 1-2.306-1.332 6.158 6.158 0 0 1-1.5-2.19c-.355-.86-.534-1.845-.534-2.947s.18-2.084.535-2.948zm11.726.155c-.274-.785-.653-1.432-1.14-1.944a4.53 4.53 0 0 0-1.712-1.14 6 6 0 0 0-2.132-.368 5.93 5.93 0 0 0-2.11.368 4.546 4.546 0 0 0-1.714 1.14c-.485.513-.866 1.16-1.14 1.944-.272.785-.406 1.717-.406 2.793s.135 2.008.407 2.793c.272.786.653 1.434 1.14 1.945.485.514 1.058.894 1.712 1.14a5.93 5.93 0 0 0 2.11.37 6 6 0 0 0 2.133-.37 4.517 4.517 0 0 0 1.71-1.14c.488-.51.867-1.158 1.14-1.944.272-.785.41-1.717.41-2.793s-.138-2.008-.41-2.793zm-7.59-7.033a.95.95 0 0 1 .7-.293c.27 0 .504.097.7.293a.958.958 0 0 1 .292.7.96.96 0 0 1-.292.7.955.955 0 0 1-.7.292.95.95 0 0 1-.7-.294.954.954 0 0 1-.292-.7c0-.27.097-.506.29-.7zm3.832 0a.952.952 0 0 1 .7-.293.95.95 0 0 1 .7.293.95.95 0 0 1 .293.7.95.95 0 0 1-.292.7.95.95 0 0 1-.7.292.952.952 0 0 1-.7-.294.954.954 0 0 1-.292-.7c0-.27.098-.506.292-.7zM279.092 28.262c-.338 0-.69.003-1.06.01a37.103 37.103 0 0 0-2.18.107c-.344.023-.652.058-.924.096a2.44 2.44 0 0 0 .098-.623 2.75 2.75 0 0 0-.098-.604c.856.026 1.692.05 2.51.07a120.768 120.768 0 0 0 5.02 0c.818-.022 1.655-.044 2.512-.07-.065.258-.097.468-.097.623 0 .168.03.37.097.603-.272-.038-.58-.072-.925-.097a39.86 39.86 0 0 0-2.178-.11 65.6 65.6 0 0 0-1.062-.008c-.04 1.335-.058 2.68-.058 4.026v3.35c0 .855.017 1.7.048 2.53.033.83.068 1.646.107 2.45-.3-.027-.616-.038-.954-.038-.337 0-.654.01-.953.038.04-.804.074-1.62.107-2.45.032-.83.05-1.675.05-2.53v-3.35c0-1.347-.02-2.69-.06-4.026zM290.008 28.262c-.338 0-.69.003-1.06.01a37.58 37.58 0 0 0-2.18.107c-.343.023-.65.058-.924.096a2.35 2.35 0 0 0 .097-.623c0-.142-.03-.345-.096-.604.857.026 1.692.05 2.51.07a120.816 120.816 0 0 0 5.022 0c.816-.022 1.654-.044 2.51-.07a2.83 2.83 0 0 0-.098.623c0 .168.034.37.097.603a14.07 14.07 0 0 0-.923-.097 40.022 40.022 0 0 0-2.178-.11 65.79 65.79 0 0 0-1.062-.008c-.04 1.335-.057 2.68-.057 4.026v3.35c0 .855.016 1.7.047 2.53.032.83.068 1.646.108 2.45a10.66 10.66 0 0 0-.954-.038c-.338 0-.655.01-.954.038.04-.804.076-1.62.107-2.45.03-.83.047-1.675.047-2.53v-3.35c0-1.347-.02-2.69-.06-4.026zM298.23 29.77c-.03-.823-.067-1.663-.105-2.52.168.026.33.05.485.07a4.044 4.044 0 0 0 .935 0c.155-.022.317-.044.486-.07-.038.856-.073 1.696-.107 2.52-.03.824-.047 1.664-.047 2.52v3.35c0 .854.016 1.698.047 2.528.034.83.07 1.647.108 2.45-.3-.026-.616-.037-.954-.037-.337 0-.654.012-.95.04.037-.805.073-1.62.104-2.452.033-.83.05-1.674.05-2.53v-3.35c0-.854-.017-1.694-.05-2.518zM309.974 35.568c-1.686-1.81-3.372-3.61-5.06-5.4a114.634 114.634 0 0 0-.06 3.95c0 .273.006.61.012 1.014.005.403.012.824.02 1.265.006.44.017.89.028 1.342.014.454.026.877.04 1.267.012.387.025.73.04 1.02.012.292.023.49.037.594a5.33 5.33 0 0 0-.682-.037c-.26 0-.497.01-.72.038.026-.13.056-.368.09-.72.03-.35.06-.767.086-1.255l.087-1.585c.035-.57.06-1.14.08-1.713a113.416 113.416 0 0 0 .068-3.133c0-1.244-.002-2.316-.01-3.212a40.25 40.25 0 0 0-.05-2.003h.314c.79.854 1.636 1.772 2.538 2.752a1024.464 1024.464 0 0 0 5.215 5.603 91.195 91.195 0 0 0 2.092 2.17V34.88c0-1.363-.01-2.69-.027-3.98a88.34 88.34 0 0 0-.13-3.648c.263.065.483.097.663.097.155 0 .364-.032.623-.098-.026.286-.056.714-.087 1.285a270.865 270.865 0 0 0-.186 3.736c-.027.623-.04 1.123-.04 1.5v1.165c0 .44.004.902.01 1.382.008.48.015.963.02 1.45.006.485.013.94.02 1.363.007.42.01.787.01 1.098v.643h-.27a200.64 200.64 0 0 0-4.77-5.305zM329.445 28.924a5.248 5.248 0 0 0-.975-.614 6.022 6.022 0 0 0-1.187-.428 5.643 5.643 0 0 0-1.39-.164c-.807 0-1.557.12-2.25.368-.692.248-1.298.626-1.81 1.14-.513.513-.913 1.16-1.206 1.944-.292.785-.438 1.717-.438 2.793 0 .947.13 1.803.39 2.568.258.77.638 1.412 1.138 1.94.5.523 1.11.93 1.83 1.215.72.285 1.532.428 2.44.428.273 0 .56-.014.856-.04.3-.025.587-.063.866-.115.28-.052.538-.117.78-.196.24-.076.442-.167.61-.272a74.673 74.673 0 0 0 .04-2.354c0-.452-.01-.906-.028-1.36a79.8 79.8 0 0 0-.07-1.304c.325.064.638.097.935.097.145 0 .286-.008.43-.022.143-.012.28-.038.407-.076-.024.297-.045.77-.058 1.41-.012.643-.02 1.488-.02 2.54 0 .258.003.52.01.787.007.265.01.528.01.787-.272.104-.612.21-1.022.32-.407.11-.842.2-1.303.273-.46.072-.92.135-1.38.193-.46.06-.88.088-1.255.088-1.157 0-2.196-.14-3.124-.415-.927-.28-1.717-.71-2.364-1.294a5.84 5.84 0 0 1-1.5-2.18c-.348-.87-.523-1.875-.523-3.017 0-1.103.183-2.084.545-2.948a6.08 6.08 0 0 1 1.537-2.19c.66-.596 1.463-1.05 2.403-1.36.94-.312 1.98-.467 3.124-.467.662 0 1.247.036 1.76.105a9.394 9.394 0 0 1 2.404.653c.3.13.564.252.8.37a3.24 3.24 0 0 0-.284.698c-.086.286-.14.554-.165.8h-.233a5.116 5.116 0 0 0-.73-.7zM334.21 29.74c-.032-.83-.068-1.66-.106-2.49.585.027 1.163.05 1.74.07a55.94 55.94 0 0 0 3.474 0c.57-.02 1.15-.043 1.732-.07-.038.196-.06.39-.06.585 0 .194.022.39.06.583a91.975 91.975 0 0 1-1.14-.078c-.344-.025-.706-.052-1.088-.077a53.26 53.26 0 0 0-1.256-.07 40.3 40.3 0 0 0-1.635-.026c-.012.414-.028.81-.048 1.187-.02.376-.027.804-.027 1.285 0 .503.002.998.01 1.478.006.48.008.842.008 1.09a54.138 54.138 0 0 0 2.784-.07 87.67 87.67 0 0 0 1.04-.058c.317-.02.62-.042.905-.07a3.073 3.073 0 0 0 0 1.19c-.338-.042-.73-.073-1.178-.1-.447-.025-.896-.04-1.344-.048a669.14 669.14 0 0 1-1.265-.02 53.29 53.29 0 0 0-.943-.01c0 .117-.002.243-.01.38-.006.136-.008.31-.008.516v1.927c0 .738.002 1.35.01 1.828.006.48.015.844.028 1.09h1.362c.492 0 .977-.01 1.45-.028.474-.02.92-.047 1.343-.078.42-.032.787-.08 1.098-.146-.026.093-.042.192-.047.303a4.87 4.87 0 0 0-.012.302c0 .207.02.375.06.506a37.604 37.604 0 0 0-1.742-.037h-3.532c-.582 0-1.175.01-1.77.038.037-.83.073-1.655.106-2.48.032-.822.048-1.662.048-2.52v-3.347c.003-.86-.013-1.7-.045-2.532zM350.275 35.568c-1.686-1.81-3.37-3.61-5.058-5.4-.014.366-.026.853-.04 1.46-.014.61-.02 1.44-.02 2.49 0 .273.004.61.01 1.014.008.403.012.824.02 1.265a181.78 181.78 0 0 0 .07 2.61c.012.386.023.728.037 1.02.014.29.026.49.038.593a5.314 5.314 0 0 0-.68-.037c-.262 0-.5.01-.72.038.024-.13.054-.368.087-.72.03-.35.06-.767.087-1.255.024-.486.054-1.016.088-1.585.03-.57.06-1.14.076-1.713.022-.57.037-1.13.05-1.675.013-.544.02-1.03.02-1.458 0-1.244-.003-2.316-.01-3.212a41.836 41.836 0 0 0-.05-2.003h.314c.79.854 1.64 1.772 2.54 2.752a875.9 875.9 0 0 0 5.215 5.603c.798.852 1.493 1.573 2.092 2.17V34.88c0-1.363-.01-2.69-.028-3.98a90.203 90.203 0 0 0-.128-3.648c.26.065.48.097.66.097.16 0 .366-.032.625-.098-.026.286-.056.714-.09 1.285-.03.572-.064 1.18-.096 1.83a177.44 177.44 0 0 0-.088 1.906 39.4 39.4 0 0 0-.038 1.5v1.165c0 .44.002.902.01 1.382l.02 1.45c.007.485.01.94.02 1.363.005.42.01.787.01 1.098v.643h-.272a195.563 195.563 0 0 0-4.77-5.305z"/></g><path fill="#fff" d="M375.107 40.92V3.086h1.007V40.92z"/><g><path d="M470.576 26.89v8.713h8.99c.37 0 .728-.02 1.068-.06a5.206 5.206 0 0 1-2.147 2.09c-.93.485-2.04.725-3.328.725h-8.99v-11.47h4.406zm0-15.936v8.04h8.447c.41 0 .81-.02 1.186-.067a4.398 4.398 0 0 1-1.102 1.4c-1.1.95-2.602 1.424-4.494 1.424h-8.445V10.955h4.406zm14.862 16.35c-.2-.275-.41-.537-.626-.78-.473-.692-1.118-1.246-1.94-1.664a9.835 9.835 0 0 0-1.49-.734c.897-.343 1.73-.886 2.504-1.625.778-.756 1.396-1.677 1.86-2.764.482-1.102.726-2.298.726-3.59 0-2.083-.466-3.898-1.396-5.448-.914-1.566-2.24-2.764-3.977-3.592-1.726-.843-3.72-1.263-5.995-1.263h-10.26V3.086h14.67c2.272 0 4.27.422 5.993 1.267 1.732.826 3.06 2.022 3.972 3.59.933 1.55 1.398 3.367 1.398 5.448 0 1.293-.243 2.49-.725 3.59-.464 1.088-1.083 2.008-1.86 2.766-.77.74-1.608 1.283-2.504 1.628 1.617.618 2.968 1.677 4.053 3.175 1.087 1.498 1.63 3.35 1.63 5.553 0 2.273-.484 4.21-1.446 5.81-.95 1.585-2.293 2.79-4.03 3.615-.457.217-.932.404-1.423.56.39-.434.736-.906 1.045-1.418.962-1.604 1.443-3.54 1.443-5.812 0-2.205-.54-4.056-1.625-5.555zM418.518 5.66c.572.413 1.132.874 1.673 1.378l-3.668 3.614c-.757-.74-1.566-1.315-2.427-1.73-.86-.43-1.755-.73-2.687-.903a15.45 15.45 0 0 0-3.072-.285c-1.105 0-2.09.15-2.96.447.133-.454.32-.88.564-1.278.55-.896 1.34-1.594 2.373-2.094 1.035-.498 2.266-.75 3.695-.75 1.116 0 2.143.097 3.072.287a10.05 10.05 0 0 1 2.685.903c.258.123.508.26.753.41zm-2.852 26.018c.122-.473.185-.98.185-1.525 0-1.703-.5-3.003-1.496-3.9a4.366 4.366 0 0 0-1.577-1.005c-.585-.242-1.427-.438-2.53-.594l-4.442-.62c-3.065-.432-5.45-1.44-7.155-3.024-1.823-1.702-2.736-4.096-2.736-7.18 0-2.186.51-4.113 1.525-5.784.86-1.415 2.034-2.56 3.528-3.43-.92 1.612-1.382 3.46-1.382 5.542 0 3.082.91 5.477 2.74 7.18 1.705 1.585 4.086 2.592 7.15 3.02l4.444.62c1.1.157 1.946.355 2.53.596a4.31 4.31 0 0 1 1.574 1.007c1 .897 1.502 2.195 1.502 3.9-.005 1.825-.69 3.245-2.068 4.26a6.9 6.9 0 0 1-1.792.938zm-21.044 4.416l3.695-3.648c1.77 1.76 3.705 3.026 5.813 3.798 2.137.757 4.642 1.136 7.516 1.136 1.98 0 3.788-.242 5.424-.723 1.128-.346 2.158-.8 3.088-1.365a9.93 9.93 0 0 1-2.474 2.843c-1.222.963-2.653 1.696-4.29 2.194-1.634.48-3.44.722-5.42.724-2.878 0-5.38-.38-7.517-1.137-2.117-.776-4.06-2.05-5.835-3.823zm35.26-33.008h4.41v24.69c0 1.652.316 3.1.953 4.34.126.238.26.464.402.682a7.407 7.407 0 0 1-2.098-.78 6.82 6.82 0 0 1-2.71-2.84c-.64-1.24-.96-2.69-.96-4.34V3.087zm25.714 24.95c0 2.546-.585 4.812-1.753 6.792-1.173 1.98-2.79 3.513-4.857 4.596-2.048 1.087-4.355 1.63-6.92 1.63-2.55 0-4.85-.543-6.897-1.63a12.148 12.148 0 0 1-3.127-2.344c1.713.688 3.583 1.032 5.615 1.032 2.564 0 4.873-.54 6.92-1.627 2.065-1.083 3.686-2.617 4.856-4.597 1.17-1.98 1.758-4.243 1.758-6.79V3.085h4.404v24.95z" fill="#fff"/></g></svg>