<svg xmlns="http://www.w3.org/2000/svg" width="491.472" height="44.14" viewBox="0 0 491.47198 44.139999"><path d="M55.305 11.724a1270.92 1270.92 0 0 0-5.06-5.4c-.012.363-.025.85-.04 1.46-.01.61-.017 1.44-.017 2.49 0 .273.002.61.01 1.012.006.402.01.826.02 1.266.004.442.015.887.027 1.342.013.455.026.876.04 1.265.012.388.025.728.038 1.02.013.293.027.49.04.595a5.137 5.137 0 0 0-.682-.04c-.257 0-.498.012-.72.04.026-.13.056-.37.09-.72.03-.352.06-.77.087-1.257.026-.485.054-1.014.087-1.586.032-.57.058-1.14.077-1.71.022-.572.037-1.13.05-1.675.013-.544.02-1.03.02-1.46 0-1.246-.003-2.315-.01-3.21a43.21 43.21 0 0 0-.05-2.005h.313c.79.857 1.638 1.775 2.54 2.755a860.686 860.686 0 0 0 5.215 5.603c.798.85 1.495 1.573 2.092 2.17v-2.646c0-1.363-.01-2.688-.03-3.98a88.353 88.353 0 0 0-.126-3.648c.26.065.48.096.66.096.158 0 .365-.03.623-.096-.024.286-.054.714-.086 1.285a319.973 319.973 0 0 0-.186 3.734 39.404 39.404 0 0 0-.037 1.5v1.168c0 .44.003.903.01 1.382.006.48.012.963.02 1.45.006.486.012.94.02 1.36.005.424.01.79.01 1.1v.643h-.274a193.657 193.657 0 0 0-4.768-5.303M64.304 5.926a448.22 448.22 0 0 0-.106-2.52c.17.024.33.05.486.067a3.655 3.655 0 0 0 .934 0c.155-.018.317-.043.486-.068-.038.856-.074 1.695-.107 2.52a64.897 64.897 0 0 0-.048 2.52v3.346c0 .86.015 1.703.047 2.532.033.83.07 1.647.107 2.453-.298-.028-.616-.04-.954-.04-.336 0-.654.012-.952.04.038-.806.074-1.623.106-2.453.034-.83.05-1.673.05-2.53V8.444c0-.856-.016-1.695-.05-2.52M69.813 5.895c-.033-.828-.068-1.66-.107-2.49.583.025 1.164.05 1.74.068a48 48 0 0 0 1.742.03c.585 0 1.16-.01 1.733-.03.57-.017 1.15-.043 1.732-.067a2.948 2.948 0 0 0 0 1.168c-.414-.027-.795-.052-1.138-.078l-1.09-.08c-.382-.025-.8-.047-1.254-.067-.455-.02-1-.03-1.635-.03-.013.416-.03.812-.05 1.185-.02.38-.028.806-.028 1.286 0 .507.002 1 .01 1.48.006.48.01.844.01 1.09a54.264 54.264 0 0 0 2.782-.07c.375-.02.722-.037 1.04-.057.32-.02.62-.04.905-.067a3.057 3.057 0 0 0 0 1.185 24.52 24.52 0 0 0-1.176-.096c-.45-.024-.897-.043-1.344-.046l-1.266-.02c-.396-.008-.71-.012-.944-.012 0 .116-.003.245-.01.38-.007.138-.01.31-.01.516V13c0 .74.003 1.35.01 1.828.007.48.016.844.03 1.09h1.362c.493 0 .976-.01 1.45-.03a35.39 35.39 0 0 0 1.342-.076c.422-.034.788-.08 1.1-.146-.026.09-.042.19-.05.3-.006.112-.008.21-.008.302 0 .207.018.376.058.507a37.712 37.712 0 0 0-1.74-.04h-3.534c-.584 0-1.173.013-1.77.04.04-.83.074-1.66.107-2.483.032-.824.048-1.663.048-2.518v-3.35c0-.855-.016-1.7-.047-2.53M81.4 15.917c.272.065.64.114 1.11.146.467.034.947.05 1.44.05.713 0 1.427-.086 2.14-.255a4.628 4.628 0 0 0 1.917-.952c.563-.468 1.025-1.107 1.38-1.918.358-.81.536-1.858.536-3.14 0-1.13-.14-2.058-.42-2.785-.277-.727-.66-1.3-1.146-1.722a4.054 4.054 0 0 0-1.74-.874 9.507 9.507 0 0 0-2.22-.243c-.584 0-1.13.02-1.636.058-.503.04-.957.084-1.36.136-.04.623-.068 1.276-.088 1.956a74.41 74.41 0 0 0-.03 2.072v3.347c0 1.403.04 2.778.118 4.127m-1.76-9.99c-.034-.827-.07-1.666-.108-2.522.493.025.983.05 1.47.068.485.02.975.03 1.468.03.494 0 .984-.017 1.47-.048.486-.034.976-.05 1.468-.05 1.142 0 2.118.15 2.93.45.81.295 1.475.72 1.995 1.272.518.552.898 1.225 1.138 2.023.24.8.36 1.698.36 2.697 0 1.297-.223 2.39-.67 3.28-.448.886-1.018 1.603-1.714 2.148a6.36 6.36 0 0 1-2.296 1.158 9.216 9.216 0 0 1-2.403.34c-.442 0-.876-.005-1.304-.02a39.87 39.87 0 0 0-1.303-.02h-1.304c-.43 0-.863.014-1.304.04.038-.804.074-1.622.108-2.452.03-.827.047-1.672.047-2.53V8.445c0-.855-.016-1.694-.047-2.518M94.876 5.895c-.033-.828-.068-1.66-.107-2.49.582.025 1.163.05 1.74.068.577.02 1.158.03 1.742.03.584 0 1.16-.01 1.732-.03.572-.017 1.148-.043 1.733-.067a2.878 2.878 0 0 0 0 1.168c-.417-.027-.796-.052-1.14-.078l-1.09-.08c-.382-.025-.8-.047-1.254-.067-.455-.02-1-.03-1.635-.03-.013.416-.03.812-.05 1.185-.02.38-.028.806-.028 1.286 0 .507.003 1 .01 1.48.006.48.01.844.01 1.09a54.19 54.19 0 0 0 2.782-.07c.377-.02.722-.037 1.042-.057.318-.02.62-.04.905-.067a3.057 3.057 0 0 0 0 1.185c-.34-.037-.732-.068-1.178-.096a28.726 28.726 0 0 0-1.344-.046l-1.265-.02a57.17 57.17 0 0 0-.943-.012c0 .116-.004.245-.01.38-.007.138-.01.31-.01.516V13c0 .74.003 1.35.01 1.828.006.48.016.844.028 1.09h1.363c.495 0 .977-.01 1.452-.03.472-.017.92-.045 1.342-.076.42-.034.788-.08 1.1-.146-.027.09-.043.19-.05.3-.007.112-.01.21-.01.302 0 .207.02.376.06.507a37.626 37.626 0 0 0-1.743-.04H96.54c-.584 0-1.175.013-1.77.04.038-.83.073-1.66.106-2.483.032-.824.048-1.663.048-2.518v-3.35c0-.855-.016-1.7-.048-2.53M106.94 9.633c.215.012.45.02.71.02.403 0 .822-.046 1.257-.137.433-.092.834-.25 1.197-.477a2.81 2.81 0 0 0 .904-.915c.24-.385.36-.866.36-1.452 0-.506-.093-.922-.28-1.253a2.24 2.24 0 0 0-.732-.788 2.78 2.78 0 0 0-.973-.4 5.17 5.17 0 0 0-1.03-.106c-.455 0-.83.01-1.13.028-.298.02-.55.04-.76.07-.023.712-.05 1.42-.075 2.12-.028.7-.04 1.4-.04 2.1v1.11c.18.04.38.065.593.08m-2.236-3.708c-.034-.826-.068-1.665-.108-2.52.376.024.747.05 1.11.067.363.02.734.03 1.11.03.375 0 .744-.016 1.107-.048.364-.034.733-.05 1.11-.05.546 0 1.064.052 1.556.156.493.104.925.278 1.295.516.37.24.66.556.874.944.214.388.32.875.32 1.46 0 .624-.14 1.157-.417 1.605a3.93 3.93 0 0 1-1.022 1.11 5.08 5.08 0 0 1-1.294.68c-.46.163-.877.27-1.254.32.156.197.37.47.642.818.272.35.578.738.915 1.16.336.42.687.86 1.05 1.322.362.462.713.903 1.05 1.324.338.42.655.804.955 1.156.297.35.537.616.718.8a4.084 4.084 0 0 0-.584-.04h-1.148a3.72 3.72 0 0 0-.565.04c-.194-.274-.49-.683-.885-1.228a76.62 76.62 0 0 0-1.313-1.75c-.482-.625-.97-1.243-1.47-1.86s-.957-1.14-1.373-1.567h-.74v1.42c0 .86.017 1.703.05 2.53.03.832.067 1.65.106 2.455-.298-.028-.615-.04-.953-.04-.338 0-.655.012-.954.04.04-.806.074-1.623.108-2.454a67.6 67.6 0 0 0 .05-2.53V8.446c0-.856-.02-1.695-.05-2.52M116.73 14.954a3.187 3.187 0 0 0 1.527 1.13c.337.123.713.183 1.128.183.427 0 .815-.074 1.16-.224.342-.15.634-.35.874-.604.238-.253.422-.55.553-.894.13-.344.194-.71.194-1.1 0-.596-.15-1.07-.457-1.42a3.798 3.798 0 0 0-1.137-.876 13.637 13.637 0 0 0-1.47-.644 7.486 7.486 0 0 1-1.47-.73 3.892 3.892 0 0 1-1.138-1.118c-.304-.454-.457-1.062-.457-1.827 0-.546.097-1.04.293-1.49.194-.448.477-.832.847-1.157.37-.323.813-.578 1.332-.76a5.33 5.33 0 0 1 1.75-.272c.624 0 1.162.077 1.616.226.455.148.876.378 1.265.69-.116.22-.213.455-.29.7-.078.25-.157.56-.234.935h-.233a5.1 5.1 0 0 0-.264-.594 2.23 2.23 0 0 0-.45-.59 2.483 2.483 0 0 0-.67-.46 2.185 2.185 0 0 0-.933-.185c-.364 0-.698.06-1.002.177a2.38 2.38 0 0 0-.8.497c-.226.214-.402.47-.523.767-.125.3-.185.625-.185.974 0 .61.15 1.092.457 1.44.304.35.684.646 1.138.887.453.24.944.455 1.47.643a8.147 8.147 0 0 1 1.468.69c.453.273.834.62 1.14 1.052.303.427.456 1 .456 1.712a4.5 4.5 0 0 1-.32 1.693c-.216.53-.527.994-.936 1.39a4.18 4.18 0 0 1-1.5.917c-.59.212-1.26.32-2.01.32-.807 0-1.46-.108-1.957-.32-.5-.216-.918-.46-1.256-.732a4.46 4.46 0 0 0 .243-.808c.046-.238.088-.547.126-.922h.235c.105.23.245.468.42.71M132.364.29a.964.964 0 0 1 .7-.29c.273 0 .507.097.7.29.196.196.295.43.295.702 0 .273-.1.505-.295.7a.957.957 0 0 1-.7.293.963.963 0 0 1-.7-.293.96.96 0 0 1-.292-.7.97.97 0 0 1 .29-.702m-3.675 10.433c.337 0 .687.006 1.05.017.363.014.714.02 1.052.02.362 0 .725 0 1.09-.008.362-.007.726-.02 1.09-.03l-2.16-4.943-2.122 4.943zM128.53.29a.96.96 0 0 1 .702-.29c.272 0 .506.097.7.29.195.196.292.43.292.702a.952.952 0 0 1-.292.7.957.957 0 0 1-.7.293.96.96 0 0 1-.7-.293.956.956 0 0 1-.293-.7c0-.27.097-.506.29-.702m3.932 5.306a579.12 579.12 0 0 0 2.238 5.32 329.452 329.452 0 0 0 1.956 4.497c.266.595.482 1.05.65 1.362a3.51 3.51 0 0 0-.515-.04h-1.03c-.162 0-.333.013-.515.04-.09-.3-.214-.66-.37-1.08a41.473 41.473 0 0 0-.515-1.323l-.575-1.4a78.623 78.623 0 0 1-.544-1.354 100.92 100.92 0 0 0-1.265-.03c-.428-.004-.855-.01-1.283-.01-.403 0-.8.006-1.188.01-.39.008-.785.018-1.186.03a83.4 83.4 0 0 0-1.13 2.89c-.337.916-.59 1.67-.76 2.268a5.92 5.92 0 0 0-.718-.04c-.26 0-.5.013-.72.04a516.53 516.53 0 0 0 3.074-6.772 981.714 981.714 0 0 0 3.017-6.85h.37c.31.753.65 1.566 1.012 2.444M149.15 16.317a5.52 5.52 0 0 1-.916.33 13.67 13.67 0 0 1-1.196.262 7.84 7.84 0 0 1-1.382.116c-1.025 0-1.97-.146-2.84-.437a6.006 6.006 0 0 1-2.25-1.336 6.266 6.266 0 0 1-1.478-2.187c-.356-.864-.535-1.846-.535-2.948 0-1.104.18-2.087.535-2.95a6.166 6.166 0 0 1 1.5-2.19 6.443 6.443 0 0 1 2.305-1.36c.896-.314 1.88-.47 2.958-.47.856 0 1.638.088 2.346.264.707.175 1.332.387 1.877.632-.104.183-.187.428-.252.74-.064.31-.116.57-.154.777l-.118.04c-.13-.157-.31-.33-.544-.526a5.983 5.983 0 0 0-.818-.563 5.29 5.29 0 0 0-1.05-.46 4.31 4.31 0 0 0-1.285-.183 6 6 0 0 0-2.13.372 4.536 4.536 0 0 0-1.712 1.137c-.487.512-.867 1.16-1.138 1.946-.273.785-.41 1.715-.41 2.793 0 1.075.137 2.007.41 2.79.27.785.65 1.433 1.138 1.946a4.53 4.53 0 0 0 1.71 1.14c.656.245 1.368.37 2.133.37.468 0 .9-.06 1.295-.177a6.776 6.776 0 0 0 1.985-.943c.266-.19.488-.355.67-.496l.078.077-.174 1.148a2.564 2.564 0 0 1-.555.342M162.4 5.926c-.032-.826-.068-1.665-.106-2.52.17.024.33.05.486.067a3.637 3.637 0 0 0 .934 0c.155-.018.317-.043.486-.068-.038.856-.074 1.695-.107 2.52a64.897 64.897 0 0 0-.048 2.52v3.346c0 .86.016 1.703.048 2.532.033.83.07 1.647.107 2.453-.3-.028-.615-.04-.953-.04-.338 0-.656.012-.953.04.038-.806.074-1.623.107-2.453.032-.83.05-1.673.05-2.53V10.04a191.082 191.082 0 0 0-4.067-.038 191.322 191.322 0 0 0-4.068.038v1.75c0 .86.016 1.703.048 2.532.033.83.07 1.647.107 2.453-.298-.028-.616-.04-.953-.04-.336 0-.656.012-.953.04.038-.806.074-1.623.107-2.453.033-.83.05-1.673.05-2.53V8.444c0-.856-.017-1.695-.05-2.52-.032-.825-.068-1.664-.106-2.52.168.025.33.05.486.068a3.66 3.66 0 0 0 .934 0c.156-.018.318-.043.486-.068-.038.856-.074 1.695-.107 2.52a64.897 64.897 0 0 0-.048 2.52v.682l2.034.038a95.236 95.236 0 0 0 4.065 0l2.034-.038v-.682c0-.856-.018-1.695-.05-2.52M167.948 14.954c.174.24.387.46.64.652a3.24 3.24 0 0 0 2.015.66 2.87 2.87 0 0 0 1.158-.223 2.602 2.602 0 0 0 1.432-1.497c.128-.344.194-.71.194-1.1 0-.596-.152-1.07-.458-1.42a3.778 3.778 0 0 0-1.138-.876 13.637 13.637 0 0 0-1.47-.644 7.533 7.533 0 0 1-1.468-.73 3.852 3.852 0 0 1-1.138-1.118c-.307-.454-.458-1.062-.458-1.827 0-.546.098-1.04.292-1.49.195-.448.476-.832.846-1.157.37-.323.814-.578 1.333-.76a5.325 5.325 0 0 1 1.752-.272c.62 0 1.16.077 1.613.226.455.148.876.378 1.266.69a4.2 4.2 0 0 0-.293.7c-.078.25-.156.56-.234.935h-.234a5.045 5.045 0 0 0-.262-.594 2.297 2.297 0 0 0-.448-.59 2.536 2.536 0 0 0-.67-.46 2.183 2.183 0 0 0-.936-.185c-.363 0-.698.06-1.003.177a2.39 2.39 0 0 0-.796.497c-.226.214-.402.47-.526.767a2.54 2.54 0 0 0-.184.974c0 .61.153 1.092.457 1.44.305.35.686.646 1.14.887.454.24.943.455 1.47.643a8.19 8.19 0 0 1 1.47.69c.45.273.832.62 1.136 1.052.306.427.457 1 .457 1.712a4.5 4.5 0 0 1-.32 1.693c-.214.53-.527.994-.934 1.39-.41.396-.91.7-1.5.917-.59.212-1.262.32-2.014.32-.804 0-1.457-.108-1.957-.32a5.39 5.39 0 0 1-1.254-.732 4.54 4.54 0 0 0 .243-.808c.044-.238.086-.547.125-.922h.233c.105.23.244.468.42.71M177.735 5.926a449.37 449.37 0 0 0-.107-2.52c.17.024.33.05.486.067a3.66 3.66 0 0 0 .934 0c.155-.018.317-.043.486-.068a448.22 448.22 0 0 0-.106 2.52c-.033.825-.05 1.664-.05 2.52v3.346c0 .86.017 1.703.05 2.532.032.83.068 1.647.106 2.453-.298-.028-.615-.04-.953-.04-.335 0-.654.012-.952.04.04-.806.074-1.623.107-2.453.032-.83.048-1.673.048-2.53V8.444c0-.856-.016-1.695-.048-2.52M183.282 14.954c.174.24.388.46.64.652a3.245 3.245 0 0 0 2.015.66c.427 0 .813-.073 1.157-.223a2.592 2.592 0 0 0 1.43-1.497c.13-.344.195-.71.195-1.1 0-.596-.152-1.07-.458-1.42a3.778 3.778 0 0 0-1.138-.876 13.55 13.55 0 0 0-1.47-.644 7.533 7.533 0 0 1-1.468-.73 3.876 3.876 0 0 1-1.138-1.118c-.305-.454-.458-1.062-.458-1.827 0-.546.098-1.04.292-1.49a3.22 3.22 0 0 1 .848-1.157c.37-.323.812-.578 1.33-.76a5.33 5.33 0 0 1 1.753-.272c.623 0 1.16.077 1.615.226a3.98 3.98 0 0 1 1.265.69c-.116.22-.214.455-.292.7-.077.25-.154.56-.233.935h-.234a4.734 4.734 0 0 0-.26-.594c-.112-.214-.26-.41-.45-.59a2.536 2.536 0 0 0-.67-.46 2.183 2.183 0 0 0-.935-.185c-.363 0-.697.06-1.002.177a2.37 2.37 0 0 0-.797.497c-.228.214-.404.47-.528.767a2.54 2.54 0 0 0-.184.974c0 .61.153 1.092.457 1.44.306.35.685.646 1.138.887.455.24.944.455 1.47.643a8.19 8.19 0 0 1 1.47.69c.453.273.833.62 1.137 1.052.306.427.458 1 .458 1.712a4.5 4.5 0 0 1-.32 1.693c-.215.53-.527.994-.935 1.39-.41.396-.91.7-1.5.917-.59.212-1.26.32-2.013.32-.804 0-1.457-.108-1.957-.32a5.39 5.39 0 0 1-1.253-.732 4.54 4.54 0 0 0 .243-.808c.045-.238.087-.547.126-.922h.232c.105.23.244.468.42.71M202.625 16.317a5.487 5.487 0 0 1-.915.33 13.67 13.67 0 0 1-1.196.262 7.84 7.84 0 0 1-1.382.116c-1.024 0-1.972-.146-2.84-.437a5.986 5.986 0 0 1-2.25-1.336 6.252 6.252 0 0 1-1.478-2.187c-.356-.864-.535-1.846-.535-2.948 0-1.104.178-2.087.534-2.95a6.127 6.127 0 0 1 1.5-2.19 6.434 6.434 0 0 1 2.305-1.36c.894-.314 1.88-.47 2.955-.47.858 0 1.64.088 2.345.264a11.11 11.11 0 0 1 1.88.632c-.105.183-.19.428-.255.74-.065.31-.115.57-.155.777l-.117.04c-.13-.157-.31-.33-.544-.526a5.97 5.97 0 0 0-.818-.563 5.248 5.248 0 0 0-1.052-.46 4.308 4.308 0 0 0-1.285-.183c-.765 0-1.474.125-2.13.372a4.547 4.547 0 0 0-1.712 1.137c-.487.512-.866 1.16-1.138 1.946-.273.785-.408 1.715-.408 2.793 0 1.075.135 2.007.408 2.79.272.785.65 1.433 1.138 1.946a4.543 4.543 0 0 0 1.712 1.14c.656.245 1.365.37 2.13.37.468 0 .9-.06 1.296-.177a6.99 6.99 0 0 0 1.09-.42c.33-.162.63-.338.894-.524.268-.19.49-.354.674-.495l.076.077-.174 1.148a2.59 2.59 0 0 1-.555.342M215.877 5.926c-.034-.826-.07-1.665-.108-2.52.168.024.33.05.486.067a3.682 3.682 0 0 0 .934 0c.156-.018.32-.043.486-.068-.04.856-.075 1.695-.107 2.52a64.897 64.897 0 0 0-.05 2.52v3.346c0 .86.017 1.703.05 2.532.03.83.067 1.647.106 2.453-.298-.028-.615-.04-.953-.04-.337 0-.655.012-.954.04.037-.806.073-1.623.107-2.453.032-.83.047-1.673.047-2.53V10.04a191.344 191.344 0 0 0-4.067-.038 191.13 191.13 0 0 0-4.065.038v1.75c0 .86.015 1.703.048 2.532.03.83.067 1.647.108 2.453-.3-.028-.618-.04-.954-.04-.338 0-.656.012-.955.04.04-.806.075-1.623.108-2.453.03-.83.046-1.673.046-2.53V8.444a67 67 0 0 0-.046-2.52c-.033-.825-.07-1.664-.11-2.52.17.025.332.05.487.068a3.702 3.702 0 0 0 .935 0c.155-.018.32-.043.488-.068-.04.856-.077 1.695-.108 2.52a62.967 62.967 0 0 0-.048 2.52v.682l2.033.038a95.14 95.14 0 0 0 4.067 0l2.032-.038v-.682c0-.856-.015-1.695-.047-2.52M221.384 5.895c-.034-.828-.068-1.66-.108-2.49.586.025 1.165.05 1.742.068.577.02 1.158.03 1.742.03.584 0 1.162-.01 1.732-.03.57-.017 1.147-.043 1.732-.067a2.948 2.948 0 0 0 0 1.168c-.416-.027-.795-.052-1.14-.078l-1.088-.08a59.99 59.99 0 0 0-1.256-.067c-.455-.02-1-.03-1.634-.03-.014.416-.03.812-.048 1.185-.02.38-.03.806-.03 1.286 0 .507.003 1 .01 1.48s.01.844.01 1.09a54.167 54.167 0 0 0 2.78-.07c.378-.02.725-.037 1.043-.057.32-.02.62-.04.906-.067a3.01 3.01 0 0 0 0 1.185c-.337-.038-.73-.07-1.177-.097a28.735 28.735 0 0 0-1.343-.046l-1.266-.02a57.17 57.17 0 0 0-.942-.012c0 .116-.003.245-.01.38-.007.138-.01.31-.01.516V13c0 .74.003 1.35.01 1.828.007.48.016.844.03 1.09h1.36c.494 0 .976-.01 1.45-.03.473-.017.922-.045 1.343-.076.422-.034.79-.08 1.1-.146a1.29 1.29 0 0 0-.047.3c-.01.112-.01.21-.01.302 0 .207.02.376.058.507a37.647 37.647 0 0 0-1.74-.04h-3.532c-.584 0-1.174.013-1.772.04.04-.83.074-1.66.108-2.483.032-.824.05-1.663.05-2.518v-3.35c0-.855-.017-1.7-.05-2.53M236.756 14.954c.175.24.39.46.643.652a3.25 3.25 0 0 0 2.014.66c.425 0 .812-.073 1.157-.223.344-.15.635-.35.876-.604.24-.253.423-.55.554-.894.13-.344.194-.71.194-1.1 0-.596-.15-1.07-.456-1.42a3.803 3.803 0 0 0-1.138-.876 13.724 13.724 0 0 0-1.47-.644 7.486 7.486 0 0 1-1.47-.73 3.892 3.892 0 0 1-1.138-1.118c-.304-.454-.457-1.062-.457-1.827 0-.546.098-1.04.293-1.49.194-.448.476-.832.846-1.157.37-.323.813-.578 1.332-.76a5.33 5.33 0 0 1 1.752-.272c.623 0 1.16.077 1.615.226.455.148.875.378 1.265.69-.117.22-.214.455-.29.7a9.4 9.4 0 0 0-.234.935h-.235a4.92 4.92 0 0 0-.264-.594 2.21 2.21 0 0 0-.448-.59 2.504 2.504 0 0 0-.67-.46 2.18 2.18 0 0 0-.935-.185c-.362 0-.697.06-1 .177a2.37 2.37 0 0 0-.8.497c-.227.214-.403.47-.524.767a2.52 2.52 0 0 0-.186.974c0 .61.15 1.092.457 1.44.305.35.685.646 1.14.887.452.24.943.455 1.47.643a8.17 8.17 0 0 1 1.467.69c.454.273.834.62 1.14 1.052.303.427.456 1 .456 1.712a4.48 4.48 0 0 1-.32 1.693c-.215.53-.527.994-.935 1.39-.41.396-.908.7-1.5.917-.59.212-1.26.32-2.012.32-.806 0-1.458-.108-1.956-.32a5.37 5.37 0 0 1-1.256-.732 4.46 4.46 0 0 0 .243-.808c.046-.238.088-.547.127-.922h.233a4.1 4.1 0 0 0 .42.71M249.24 4.416c-.338 0-.69.004-1.063.01-.37.006-.738.02-1.11.04-.367.02-.726.042-1.068.067-.345.027-.653.06-.925.1.064-.236.098-.443.098-.624 0-.146-.034-.346-.098-.605.856.025 1.692.05 2.51.068a102.64 102.64 0 0 0 5.02 0c.82-.018 1.655-.043 2.513-.068-.064.26-.1.466-.1.62 0 .17.035.372.1.607a14.08 14.08 0 0 0-.926-.1 50.52 50.52 0 0 0-1.068-.066c-.37-.02-.74-.034-1.11-.04-.37-.006-.724-.01-1.06-.01-.04 1.337-.06 2.68-.06 4.028v3.347c0 .858.017 1.703.048 2.53.033.83.068 1.65.107 2.454-.3-.027-.616-.04-.954-.04-.338 0-.656.013-.953.04.04-.805.074-1.623.107-2.453.03-.827.05-1.672.05-2.53V8.445c0-1.347-.023-2.69-.06-4.028M258.19 10.723c.337 0 .69.007 1.052.018.363.014.715.02 1.053.02.363 0 .725 0 1.088-.008.365-.007.727-.018 1.09-.03l-2.16-4.942-2.122 4.943zm8.623 6.05a3.387 3.387 0 0 0-.516-.04H265.266c-.162 0-.334.013-.514.04-.09-.3-.214-.658-.37-1.08a44.137 44.137 0 0 0-.516-1.323c-.19-.46-.38-.927-.574-1.402a82.388 82.388 0 0 1-.545-1.352c-.416-.012-.838-.023-1.266-.03-.43-.005-.856-.01-1.284-.01-.402 0-.8.005-1.19.01-.386.007-.784.018-1.185.03a91.256 91.256 0 0 0-1.128 2.89 32.17 32.17 0 0 0-.76 2.268c-.22-.028-.46-.04-.72-.04-.257 0-.5.012-.72.04 1.053-2.27 2.076-4.53 3.074-6.773 1-2.243 2.006-4.527 3.018-6.85h.37c.31.755.647 1.567 1.01 2.445l1.11 2.655a595.944 595.944 0 0 0 2.19 5.127c.33.76.63 1.437.895 2.035.266.595.483 1.05.653 1.362M271.268 10.723c.338 0 .69.007 1.053.018.362.014.714.02 1.052.02a56.376 56.376 0 0 0 2.178-.037l-2.16-4.943-2.122 4.943zm8.62 6.05a3.368 3.368 0 0 0-.515-.04h-1.032c-.16 0-.333.013-.513.04-.094-.3-.215-.658-.37-1.08a35.612 35.612 0 0 0-.52-1.323c-.185-.46-.376-.927-.57-1.402-.196-.473-.376-.923-.546-1.352a99.07 99.07 0 0 0-1.263-.03c-.43-.005-.855-.01-1.285-.01-.402 0-.8.005-1.188.01-.39.007-.785.018-1.188.03a86.66 86.66 0 0 0-1.13 2.89 32 32 0 0 0-.757 2.268c-.222-.028-.462-.04-.722-.04-.258 0-.5.012-.72.04 1.052-2.27 2.075-4.53 3.073-6.773 1-2.243 2.007-4.527 3.02-6.85h.37c.31.755.646 1.567 1.01 2.445.365.873.734 1.76 1.11 2.655.378.894.75 1.783 1.128 2.665a350.258 350.258 0 0 0 1.957 4.497 24 24 0 0 0 .654 1.362M283.432 4.416c-.338 0-.69.004-1.063.01-.37.006-.74.02-1.108.04-.37.02-.727.042-1.072.067-.342.027-.65.06-.922.1.064-.236.098-.443.098-.624 0-.146-.033-.346-.098-.605.855.025 1.69.05 2.51.068a102.64 102.64 0 0 0 5.02 0c.818-.018 1.656-.043 2.51-.068-.064.26-.096.466-.096.62 0 .17.03.372.096.607-.27-.04-.58-.072-.924-.1-.344-.024-.7-.047-1.07-.066a25.45 25.45 0 0 0-1.11-.04c-.368-.006-.72-.01-1.058-.01-.04 1.337-.06 2.68-.06 4.028v3.347c0 .858.017 1.703.048 2.53.033.83.07 1.65.11 2.454-.302-.027-.62-.04-.956-.04-.336 0-.656.013-.953.04.04-.805.074-1.623.105-2.453.033-.827.05-1.672.05-2.53V8.445c0-1.347-.02-2.69-.058-4.028M291.69 14.954a3.265 3.265 0 0 0 1.528 1.13 3.25 3.25 0 0 0 1.128.183c.43 0 .816-.074 1.16-.224a2.602 2.602 0 0 0 1.43-1.497c.13-.344.195-.71.195-1.1 0-.596-.153-1.07-.456-1.42a3.782 3.782 0 0 0-1.14-.876 13.25 13.25 0 0 0-1.47-.644 7.618 7.618 0 0 1-1.47-.73 3.86 3.86 0 0 1-1.136-1.118C291.15 8.204 291 7.596 291 6.83c0-.546.097-1.04.292-1.49.193-.448.477-.832.846-1.157.37-.323.816-.578 1.334-.76a5.325 5.325 0 0 1 1.752-.272c.62 0 1.158.077 1.613.226.455.148.875.378 1.266.69-.117.22-.215.455-.29.7a9.43 9.43 0 0 0-.233.935h-.236a4.75 4.75 0 0 0-.262-.594c-.11-.214-.26-.41-.45-.59a2.53 2.53 0 0 0-.67-.46 2.172 2.172 0 0 0-.933-.185c-.365 0-.698.06-1.003.177a2.38 2.38 0 0 0-.8.497 2.2 2.2 0 0 0-.522.767c-.125.3-.186.625-.186.974 0 .61.15 1.092.456 1.44.305.35.684.646 1.14.887.45.24.94.455 1.468.643a8.096 8.096 0 0 1 1.467.69c.456.273.837.62 1.142 1.052.307.427.455 1 .455 1.712 0 .597-.104 1.16-.318 1.693a4.04 4.04 0 0 1-.935 1.39c-.41.396-.91.7-1.5.917-.59.212-1.262.32-2.014.32-.804 0-1.456-.108-1.956-.32-.498-.216-.918-.46-1.252-.732.115-.296.195-.567.24-.808.05-.238.09-.547.13-.922h.23c.105.23.246.468.42.71M300.438 11.636h4.848v1.207h-4.848zM323.732 5.467c-.014-.997-.047-1.686-.098-2.062.143.025.28.05.408.068a2.057 2.057 0 0 0 .973-.068c-.04.456-.078.996-.115 1.625-.04.628-.072 1.303-.1 2.024l-.076 2.217c-.027.76-.045 1.498-.06 2.21-.013.87-.145 1.648-.397 2.335a4.928 4.928 0 0 1-1.08 1.75 4.508 4.508 0 0 1-1.723 1.092c-.682.246-1.46.37-2.344.37-1.947 0-3.36-.442-4.242-1.324-.883-.882-1.324-2.277-1.324-4.183 0-.61.016-1.15.05-1.625.03-.473.046-.957.046-1.45 0-1.09-.014-2.055-.037-2.9a202.2 202.2 0 0 0-.078-2.14c.154.025.322.05.506.068.183.02.35.03.507.03.14 0 .28-.01.418-.03.135-.018.275-.043.418-.068-.025.287-.05.658-.078 1.12a102.136 102.136 0 0 0-.135 3.452c-.012.675-.02 1.377-.02 2.104 0 .44.008.9.02 1.37.012.477.06.936.135 1.383.078.448.205.876.38 1.283.177.41.423.766.75 1.072.325.303.733.545 1.226.72.493.175 1.103.263 1.83.263.714 0 1.314-.104 1.802-.31.484-.208.883-.48 1.197-.82.308-.336.552-.725.728-1.167.174-.438.3-.9.38-1.38.077-.48.122-.96.136-1.44.014-.48.018-.92.018-1.323a371.213 371.213 0 0 0-.02-4.263M335.04 11.724c-1.69-1.81-3.374-3.61-5.062-5.4-.012.363-.025.85-.04 1.46-.01.61-.02 1.44-.02 2.49 0 .273.005.61.01 1.012.007.402.015.826.02 1.266.007.442.02.887.03 1.342.01.455.025.876.04 1.265.013.388.024.728.038 1.02.012.293.025.49.04.595a5.163 5.163 0 0 0-.683-.04c-.258 0-.5.012-.72.04.024-.13.056-.37.087-.72.03-.352.063-.77.088-1.257.025-.485.055-1.014.088-1.586.03-.57.06-1.14.076-1.71.02-.572.035-1.13.05-1.675.015-.544.02-1.03.02-1.46 0-1.246-.003-2.315-.01-3.21a45.396 45.396 0 0 0-.048-2.005h.31c.792.857 1.64 1.775 2.54 2.755a630.78 630.78 0 0 0 2.688 2.898c.887.954 1.73 1.855 2.53 2.705.796.85 1.493 1.573 2.09 2.17v-2.646c0-1.363-.01-2.688-.028-3.98a93.96 93.96 0 0 0-.127-3.648c.26.065.48.096.662.096.155 0 .362-.03.62-.096-.025.286-.055.714-.088 1.285l-.098 1.828c-.03.648-.06 1.285-.086 1.907-.025.623-.04 1.123-.04 1.498v1.17c0 .44.003.902.01 1.38.007.48.015.964.02 1.45l.02 1.362c.006.423.01.788.01 1.1v.642h-.27a198.724 198.724 0 0 0-4.77-5.303M345.8 15.917a7.1 7.1 0 0 0 1.108.146c.467.034.945.05 1.44.05.712 0 1.425-.086 2.142-.255a4.642 4.642 0 0 0 1.916-.952c.564-.468 1.023-1.107 1.38-1.918.358-.81.536-1.858.536-3.14 0-1.13-.14-2.058-.418-2.785-.28-.727-.662-1.3-1.148-1.722a4.046 4.046 0 0 0-1.742-.874 9.483 9.483 0 0 0-2.22-.243c-.58 0-1.126.02-1.632.058-.508.04-.963.084-1.363.136a72.798 72.798 0 0 0-.09 1.956c-.02.682-.028 1.373-.028 2.072v3.347c0 1.403.04 2.778.117 4.127m-1.763-9.99c-.03-.827-.068-1.666-.105-2.522.492.025.98.05 1.47.068.485.02.974.03 1.468.03s.982-.017 1.47-.048c.485-.034.976-.05 1.47-.05 1.14 0 2.117.15 2.928.45.81.295 1.477.72 1.994 1.272.52.552.898 1.225 1.14 2.023.24.8.358 1.698.358 2.697 0 1.297-.223 2.39-.67 3.28-.447.886-1.02 1.603-1.713 2.148a6.373 6.373 0 0 1-2.295 1.158c-.838.226-1.64.34-2.404.34-.44 0-.875-.005-1.303-.02a40.16 40.16 0 0 0-1.307-.02h-1.303c-.428 0-.86.014-1.303.04.037-.804.074-1.622.105-2.452.033-.827.05-1.672.05-2.53V8.445c0-.855-.017-1.694-.05-2.518M10.197 29.313c-.014-1-.046-1.688-.097-2.064.142.026.28.05.41.07.128.016.26.025.388.025.17 0 .363-.03.584-.097-.04.455-.078.995-.117 1.625a83.84 83.84 0 0 0-.098 2.023c-.026.72-.05 1.46-.077 2.22-.028.758-.045 1.494-.06 2.207-.01.87-.145 1.65-.397 2.337a4.903 4.903 0 0 1-1.08 1.75c-.468.48-1.04.845-1.723 1.09-.68.248-1.462.37-2.345.37-1.946 0-3.36-.44-4.242-1.324C.46 38.666.02 37.27.02 35.364c0-.61.015-1.152.05-1.625.03-.476.047-.958.047-1.453 0-1.09-.012-2.055-.04-2.898-.024-.843-.05-1.557-.077-2.142.156.027.325.05.507.07.18.017.35.026.505.026.143 0 .282-.01.418-.026.136-.02.276-.043.42-.07-.028.286-.052.66-.08 1.12-.024.46-.052.982-.076 1.565a70.69 70.69 0 0 0-.06 1.888c-.012.677-.02 1.376-.02 2.104 0 .44.008.898.02 1.37.014.476.06.935.136 1.383.08.447.205.875.38 1.285.176.407.426.765.75 1.068.324.307.732.545 1.226.72.493.177 1.103.264 1.828.264.714 0 1.315-.104 1.8-.31.487-.208.885-.48 1.197-.817.313-.337.556-.728.73-1.168.177-.442.303-.904.38-1.383.078-.48.123-.962.137-1.44.014-.48.02-.92.02-1.324 0-1.84-.006-3.262-.02-4.26M21.502 35.567c-1.686-1.81-3.372-3.61-5.06-5.4-.012.366-.024.853-.038 1.46a125.477 125.477 0 0 0-.01 3.503c.008.404.012.825.02 1.266.006.44.016.89.028 1.342l.04 1.268c.012.387.026.73.04 1.02.013.292.025.49.038.594a5.138 5.138 0 0 0-.68-.038c-.26 0-.5.01-.72.038.024-.13.053-.37.086-.72.033-.353.062-.77.09-1.256.024-.486.053-1.016.086-1.585.033-.572.057-1.142.078-1.714.02-.57.036-1.13.048-1.675.012-.543.02-1.03.02-1.457a482.3 482.3 0 0 0-.01-3.212 40.25 40.25 0 0 0-.05-2.002h.312c.79.855 1.638 1.773 2.54 2.753.903.982 1.797 1.947 2.685 2.9.89.953 1.732 1.855 2.53 2.704.8.852 1.495 1.573 2.093 2.17v-2.646c0-1.362-.01-2.688-.03-3.98a88.547 88.547 0 0 0-.126-3.647c.26.066.48.098.66.098.157 0 .365-.03.623-.097-.025.287-.053.715-.087 1.286a267.43 267.43 0 0 0-.185 3.736 39.4 39.4 0 0 0-.038 1.5v1.165c0 .44.002.902.01 1.382.006.48.012.962.02 1.448l.018 1.363c.006.423.01.79.01 1.1v.642h-.27a195.31 195.31 0 0 0-4.77-5.305M30.504 29.77a604.35 604.35 0 0 0-.107-2.52c.168.027.33.05.486.07a4.036 4.036 0 0 0 .934 0c.155-.02.317-.043.486-.07a604.35 604.35 0 0 0-.107 2.52 64.936 64.936 0 0 0-.048 2.52v3.35c0 .854.016 1.698.048 2.527.033.832.07 1.648.107 2.452a10.623 10.623 0 0 0-.953-.04c-.338 0-.656.012-.953.04.038-.805.074-1.62.107-2.453.032-.83.048-1.673.048-2.528v-3.35c0-.856-.015-1.696-.048-2.52M38.823 37.854c-.43-1.076-.886-2.21-1.372-3.405a793.028 793.028 0 0 0-1.498-3.658 608.69 608.69 0 0 0-1.468-3.542c.18.026.357.05.525.07a4.584 4.584 0 0 0 .973 0c.167-.022.343-.044.525-.07.285.856.6 1.755.943 2.695.346.938.708 1.897 1.09 2.87.383.972.776 1.958 1.178 2.957.402 1 .81 1.992 1.226 2.98a97.85 97.85 0 0 0 .76-1.782 124.304 124.304 0 0 0 1.653-4.204l.788-2.11a101.9 101.9 0 0 0 1.218-3.406c.284.064.524.096.718.096.196 0 .436-.03.722-.096a316.82 316.82 0 0 0-2.92 6.713 236.74 236.74 0 0 0-2.684 6.655 4.993 4.993 0 0 0-.643-.038c-.26 0-.473.01-.642.038-.3-.764-.66-1.685-1.09-2.764M49.087 29.74c-.03-.83-.067-1.66-.105-2.49.582.026 1.163.05 1.74.07a55.893 55.893 0 0 0 3.474 0c.57-.022 1.148-.044 1.73-.07-.037.195-.058.39-.058.584 0 .194.02.39.06.583a89.14 89.14 0 0 1-1.14-.078 59.986 59.986 0 0 0-2.345-.146c-.453-.02-.998-.028-1.634-.028-.014.414-.03.81-.048 1.187-.02.376-.03.804-.03 1.285 0 .504.002 1 .01 1.48.006.478.01.84.01 1.088a54.04 54.04 0 0 0 2.782-.07 85.39 85.39 0 0 0 1.04-.057c.32-.02.62-.043.908-.07a2.928 2.928 0 0 0 0 1.188c-.34-.04-.732-.072-1.18-.1-.445-.024-.895-.04-1.34-.047-.45-.006-.872-.013-1.266-.02-.397-.007-.712-.01-.944-.01 0 .118-.004.244-.01.382-.008.135-.01.308-.01.515v1.927c0 .738.002 1.35.01 1.828.006.48.015.844.03 1.09h1.36c.493 0 .977-.01 1.45-.028.475-.02.922-.047 1.343-.078.42-.032.79-.08 1.1-.146-.026.092-.043.19-.048.302-.007.11-.01.21-.01.302 0 .207.018.375.058.506a37.696 37.696 0 0 0-1.74-.038H50.75c-.584 0-1.174.01-1.77.038.038-.83.074-1.656.105-2.48.033-.823.05-1.663.05-2.52V32.27c0-.86-.017-1.7-.05-2.532M61.153 33.477c.214.014.45.02.71.02.4 0 .82-.046 1.254-.137.434-.09.833-.25 1.198-.477a2.86 2.86 0 0 0 .904-.914c.24-.384.36-.867.36-1.45 0-.507-.094-.925-.282-1.256a2.24 2.24 0 0 0-.73-.788 2.746 2.746 0 0 0-.974-.398 5.19 5.19 0 0 0-1.03-.107c-.455 0-.83.01-1.128.03-.3.02-.553.042-.76.067-.027.713-.052 1.42-.08 2.122-.024.7-.037 1.4-.037 2.1v1.11c.18.038.38.063.593.077m-2.237-3.707c-.034-.823-.07-1.663-.108-2.52.376.027.746.05 1.11.07.362.018.73.026 1.108.026.377 0 .746-.016 1.108-.047.363-.035.733-.052 1.11-.052a7.58 7.58 0 0 1 1.556.156 3.8 3.8 0 0 1 1.295.516c.37.24.66.556.875.945.214.39.322.875.322 1.458 0 .624-.14 1.16-.417 1.607a3.91 3.91 0 0 1-1.023 1.107c-.403.292-.834.52-1.295.682-.46.16-.88.27-1.256.318.157.196.373.47.645.82.272.348.577.735.914 1.156.336.423.687.864 1.05 1.323.363.462.715.902 1.05 1.323.338.42.656.81.954 1.157.3.35.538.616.72.8a4.208 4.208 0 0 0-.584-.04H66.903c-.196 0-.383.012-.565.04-.194-.273-.49-.683-.885-1.228a81.518 81.518 0 0 0-1.314-1.752c-.48-.623-.97-1.242-1.47-1.86a24.53 24.53 0 0 0-1.372-1.565h-.74v1.423c0 .855.016 1.7.05 2.528.03.83.067 1.648.106 2.452-.3-.027-.616-.038-.953-.038-.337 0-.655.01-.953.038.04-.804.074-1.62.108-2.452.03-.83.05-1.673.05-2.528v-3.35c0-.852-.018-1.692-.05-2.516M70.94 38.8c.176.238.39.457.642.65a3.272 3.272 0 0 0 2.015.664c.427 0 .813-.075 1.157-.225.344-.15.637-.352.876-.604a2.68 2.68 0 0 0 .555-.896c.13-.344.194-.71.194-1.1 0-.595-.152-1.07-.46-1.42a3.773 3.773 0 0 0-1.136-.876 13.186 13.186 0 0 0-1.47-.642 7.726 7.726 0 0 1-1.468-.73 3.926 3.926 0 0 1-1.14-1.117c-.304-.455-.456-1.064-.456-1.83 0-.545.097-1.042.293-1.49a3.21 3.21 0 0 1 .846-1.155 3.94 3.94 0 0 1 1.33-.76c.52-.183 1.104-.272 1.752-.272.624 0 1.16.074 1.615.223.454.152.877.382 1.266.692-.117.22-.215.454-.292.702-.078.245-.155.556-.234.932h-.233a5.09 5.09 0 0 0-.262-.592 2.32 2.32 0 0 0-.447-.595 2.49 2.49 0 0 0-.67-.457c-.26-.123-.572-.185-.936-.185-.363 0-.697.058-1.002.175-.304.115-.57.28-.797.495-.227.214-.403.47-.527.768a2.56 2.56 0 0 0-.183.975c0 .61.153 1.09.457 1.44.306.35.685.645 1.14.886.453.24.942.454 1.468.642a8.328 8.328 0 0 1 1.47.69c.453.272.833.624 1.138 1.052.305.428.457 1 .457 1.713 0 .596-.107 1.16-.32 1.692a3.967 3.967 0 0 1-.935 1.39c-.41.397-.91.703-1.5.917-.59.214-1.26.32-2.013.32-.805 0-1.458-.106-1.957-.32a5.305 5.305 0 0 1-1.254-.73c.116-.298.197-.568.242-.807.045-.24.088-.55.126-.925h.234c.104.232.243.47.42.71M80.73 29.77c-.035-.823-.07-1.663-.11-2.52.17.027.332.05.487.07a4.09 4.09 0 0 0 .934 0c.158-.02.32-.043.488-.07-.04.857-.074 1.697-.107 2.52-.03.824-.048 1.664-.048 2.52v3.35c0 .854.018 1.698.05 2.527.032.832.067 1.648.106 2.452a10.608 10.608 0 0 0-.953-.04c-.337 0-.655.012-.954.04.04-.805.075-1.62.11-2.453.03-.83.047-1.673.047-2.528v-3.35c0-.856-.016-1.696-.048-2.52M88.93 28.262c-.337 0-.69.003-1.06.01a37.648 37.648 0 0 0-2.178.107c-.344.023-.653.058-.925.096a2.39 2.39 0 0 0 .097-.623c0-.142-.033-.345-.097-.604.855.026 1.693.05 2.51.07a120.67 120.67 0 0 0 5.02 0c.818-.022 1.655-.044 2.51-.07a2.77 2.77 0 0 0-.096.623c0 .168.034.37.098.603-.273-.038-.58-.072-.923-.097a40.102 40.102 0 0 0-2.18-.11c-.37-.005-.724-.008-1.06-.008-.04 1.335-.06 2.68-.06 4.026v3.35c0 .855.016 1.7.05 2.53.03.83.067 1.646.106 2.45-.298-.027-.616-.038-.952-.038-.337 0-.657.01-.954.038.038-.804.075-1.62.108-2.45.03-.83.048-1.675.048-2.53v-3.35c0-1.348-.02-2.69-.06-4.026M103 24.137a.952.952 0 0 1 .702-.293c.27 0 .505.097.7.293.193.193.29.428.29.7a.958.958 0 0 1-.29.7.953.953 0 0 1-.7.292.952.952 0 0 1-.7-.294.952.952 0 0 1-.294-.7.95.95 0 0 1 .293-.7m-3.678 10.43c.338 0 .69.008 1.05.02.365.012.714.02 1.052.02a56.517 56.517 0 0 0 2.18-.04l-2.16-4.94-2.122 4.94zm-.155-10.43a.95.95 0 0 1 .7-.292c.273 0 .506.097.702.293.193.193.29.428.29.7a.953.953 0 0 1-.29.7.955.955 0 0 1-.702.292.95.95 0 0 1-.7-.294.952.952 0 0 1-.294-.7c0-.272.098-.506.293-.7m3.93 5.303a529.69 529.69 0 0 0 2.24 5.32 269.02 269.02 0 0 0 1.955 4.496c.265.597.482 1.05.65 1.36a3.497 3.497 0 0 0-.515-.037H106.396c-.162 0-.334.01-.516.037-.09-.3-.213-.657-.368-1.08-.156-.42-.33-.862-.517-1.323l-.574-1.4c-.193-.475-.376-.925-.545-1.353a84.007 84.007 0 0 0-3.735-.028c-.39.007-.786.017-1.187.03a85.733 85.733 0 0 0-1.128 2.89c-.337.913-.592 1.67-.76 2.266a5.945 5.945 0 0 0-.72-.038c-.26 0-.5.01-.72.038 1.05-2.27 2.075-4.528 3.075-6.772a980.8 980.8 0 0 0 3.017-6.85h.37c.31.753.647 1.567 1.01 2.443M112.925 28.262c-.337 0-.69.003-1.06.01a37.34 37.34 0 0 0-2.18.107c-.345.023-.654.058-.925.096.064-.233.098-.44.098-.623a2.75 2.75 0 0 0-.098-.604c.856.026 1.692.05 2.51.07a120.84 120.84 0 0 0 5.02 0c.818-.022 1.655-.044 2.51-.07-.064.258-.096.468-.096.623 0 .168.032.37.097.603a14.03 14.03 0 0 0-.923-.097 39.754 39.754 0 0 0-2.18-.11 65.72 65.72 0 0 0-1.062-.008c-.038 1.335-.056 2.68-.056 4.026v3.35c0 .855.015 1.7.047 2.53.032.83.07 1.646.108 2.45-.3-.027-.617-.038-.955-.038-.337 0-.655.01-.953.038.04-.804.076-1.62.107-2.45.033-.83.048-1.675.048-2.53v-3.35c0-1.348-.02-2.69-.057-4.026M121.187 38.8c.174.238.39.457.64.65a3.276 3.276 0 0 0 2.015.664A2.86 2.86 0 0 0 125 39.89c.344-.15.636-.352.877-.604a2.66 2.66 0 0 0 .554-.896c.132-.344.195-.71.195-1.1 0-.595-.15-1.07-.457-1.42a3.798 3.798 0 0 0-1.137-.876 13.267 13.267 0 0 0-1.47-.642 7.774 7.774 0 0 1-1.47-.73 3.935 3.935 0 0 1-1.137-1.117c-.304-.455-.457-1.064-.457-1.83 0-.545.097-1.042.293-1.49.192-.445.476-.833.845-1.155.37-.325.814-.58 1.332-.76.52-.183 1.103-.272 1.75-.272.624 0 1.162.074 1.617.223a4.1 4.1 0 0 1 1.265.692 4.25 4.25 0 0 0-.294.702c-.076.245-.155.556-.233.932h-.233a5.108 5.108 0 0 0-.263-.592 2.298 2.298 0 0 0-.448-.595 2.49 2.49 0 0 0-.672-.457 2.167 2.167 0 0 0-.934-.185c-.363 0-.697.058-1.002.175a2.37 2.37 0 0 0-.798.495 2.17 2.17 0 0 0-.524.768c-.124.3-.186.624-.186.975 0 .61.152 1.09.458 1.44.304.35.683.645 1.136.886.455.24.946.454 1.47.642a8.262 8.262 0 0 1 1.47.69c.454.272.833.624 1.14 1.052.303.428.456 1 .456 1.713a4.47 4.47 0 0 1-.322 1.692 3.94 3.94 0 0 1-.934 1.39 4.143 4.143 0 0 1-1.498.917c-.59.214-1.262.32-2.015.32-.804 0-1.456-.106-1.954-.32a5.28 5.28 0 0 1-1.255-.73c.117-.298.198-.568.243-.807.045-.24.088-.55.127-.925h.233c.105.232.242.47.42.71M132.657 37.895l.078 1.965c.246.027.537.05.875.068.337.02.68.03 1.032.03.414 0 .814-.07 1.196-.215a2.843 2.843 0 0 0 1.003-.633 3.09 3.09 0 0 0 .682-1.03c.17-.41.252-.874.252-1.394 0-.556-.1-1.013-.3-1.37a2.137 2.137 0 0 0-.867-.838c-.376-.2-.827-.34-1.353-.42a12.364 12.364 0 0 0-1.76-.113h-.876v1.982c0 .663.013 1.317.04 1.968m2.363-4.807c.448-.09.847-.243 1.198-.457.35-.214.632-.5.846-.856.214-.357.322-.806.322-1.354 0-.53-.097-.956-.293-1.273a2.105 2.105 0 0 0-.74-.738 2.82 2.82 0 0 0-1.01-.352 7.157 7.157 0 0 0-1.13-.088c-.337 0-.622.01-.856.028-.233.02-.44.043-.622.068l-.078 1.85a43.36 43.36 0 0 0-.04 1.848v1.46h1.053a6.85 6.85 0 0 0 1.35-.136m-4.047-3.348c-.032-.83-.068-1.66-.108-2.492.338.028.682.05 1.033.07.35.02.694.027 1.03.027.34 0 .682-.016 1.032-.047.35-.034.693-.05 1.032-.05.557 0 1.082.042 1.577.126a4.01 4.01 0 0 1 1.302.448c.376.214.674.504.895.866.22.362.33.817.33 1.362 0 .96-.3 1.712-.903 2.257-.605.545-1.392.928-2.366 1.147v.04c1.155.053 2.066.332 2.735.835.667.507 1 1.316 1 2.433 0 .728-.147 1.337-.447 1.83a3.598 3.598 0 0 1-1.166 1.197c-.48.304-1.01.518-1.586.642a8.196 8.196 0 0 1-1.722.185c-.312 0-.627-.007-.944-.02-.32-.012-.634-.02-.944-.02h-.943c-.32 0-.632.012-.945.04.04-.83.076-1.657.108-2.48.033-.824.05-1.664.05-2.522v-3.347c0-.855-.017-1.697-.05-2.528M142.96 29.77a470.48 470.48 0 0 0-.106-2.52c.17.027.33.05.485.07a4.09 4.09 0 0 0 .934 0c.157-.02.32-.043.487-.07-.038.857-.073 1.697-.107 2.52a66.99 66.99 0 0 0-.048 2.52v3.35c0 .854.017 1.698.048 2.527.034.832.07 1.648.108 2.452-.298-.028-.615-.04-.953-.04-.338 0-.655.012-.953.04.04-.805.074-1.62.107-2.453.032-.83.05-1.673.05-2.528v-3.35c0-.856-.018-1.696-.05-2.52M150.152 37.895l.077 1.965c.246.027.536.05.875.068.337.02.68.03 1.032.03.414 0 .812-.07 1.196-.215a2.852 2.852 0 0 0 1.003-.633c.283-.28.51-.623.68-1.03.168-.41.253-.874.253-1.394 0-.556-.1-1.013-.302-1.37a2.137 2.137 0 0 0-.866-.838c-.376-.2-.828-.34-1.353-.42a12.374 12.374 0 0 0-1.762-.113h-.876v1.982c0 .663.013 1.317.04 1.968m2.363-4.807a3.7 3.7 0 0 0 1.198-.457c.35-.214.632-.5.846-.856.213-.357.32-.806.32-1.354 0-.53-.097-.956-.292-1.273a2.113 2.113 0 0 0-.74-.738 2.82 2.82 0 0 0-1.01-.352 7.148 7.148 0 0 0-1.13-.088c-.336 0-.622.01-.856.028-.234.02-.44.043-.623.068l-.078 1.85a41.76 41.76 0 0 0-.04 1.848v1.46h1.052c.453 0 .905-.046 1.35-.136m-4.046-3.348c-.033-.83-.067-1.66-.108-2.492.338.028.682.05 1.033.07.35.02.694.027 1.03.027.34 0 .682-.016 1.032-.047.35-.034.693-.05 1.032-.05.557 0 1.082.042 1.577.126a4.01 4.01 0 0 1 1.303.448c.376.214.675.504.895.866.22.362.33.817.33 1.362 0 .96-.3 1.712-.903 2.257-.606.545-1.393.928-2.367 1.147v.04c1.155.053 2.066.332 2.735.835.668.507 1 1.316 1 2.433 0 .728-.147 1.337-.447 1.83a3.592 3.592 0 0 1-1.166 1.197c-.48.304-1.01.518-1.585.642a8.196 8.196 0 0 1-1.723.185c-.312 0-.627-.007-.945-.02-.318-.012-.633-.02-.943-.02h-.944c-.32 0-.634.012-.946.04.04-.83.075-1.657.108-2.48.032-.824.05-1.664.05-2.522v-3.347c0-.855-.018-1.697-.05-2.528M160.454 29.77c-.032-.823-.067-1.663-.106-2.52.168.027.33.05.485.07a4.083 4.083 0 0 0 .934 0c.157-.02.32-.043.488-.07-.04.857-.074 1.697-.107 2.52a62.98 62.98 0 0 0-.05 2.52c0 1.636.007 3.054.02 4.252.014 1.2.026 2.274.04 3.22.92 0 1.802-.01 2.646-.027.842-.02 1.75-.094 2.724-.225a2.31 2.31 0 0 0-.098.585c0 .142.034.317.098.524a39.62 39.62 0 0 0-1.79-.04h-3.59c-.577 0-1.177.012-1.8.04.04-.805.074-1.62.106-2.453.033-.83.05-1.673.05-2.528v-3.35c0-.856-.017-1.696-.05-2.52M170.282 29.77a467.56 467.56 0 0 0-.105-2.52c.166.027.33.05.484.07a4.09 4.09 0 0 0 .936 0c.156-.02.318-.043.487-.07-.04.857-.074 1.697-.108 2.52a64.936 64.936 0 0 0-.048 2.52v3.35c0 .854.016 1.698.048 2.527.034.832.067 1.648.108 2.452-.3-.028-.617-.04-.954-.04-.34 0-.657.012-.953.04.038-.805.073-1.62.105-2.453.032-.83.05-1.673.05-2.528v-3.35c0-.856-.018-1.696-.05-2.52M187.008 31.17c-.273-.785-.65-1.432-1.138-1.944a4.543 4.543 0 0 0-1.712-1.14 6 6 0 0 0-2.132-.368c-.75 0-1.456.12-2.11.368a4.546 4.546 0 0 0-1.714 1.14c-.486.513-.866 1.16-1.138 1.944-.273.785-.408 1.717-.408 2.793s.135 2.008.408 2.793c.272.786.652 1.434 1.138 1.945a4.532 4.532 0 0 0 1.713 1.14c.655.247 1.36.37 2.11.37a6 6 0 0 0 2.133-.37 4.528 4.528 0 0 0 1.712-1.14c.487-.51.865-1.158 1.138-1.944.272-.785.41-1.717.41-2.793s-.138-2.008-.41-2.793m-11.725-.155a6.193 6.193 0 0 1 1.5-2.19c.64-.596 1.41-1.05 2.305-1.36.895-.312 1.874-.467 2.938-.467 1.077 0 2.063.155 2.958.466a6.514 6.514 0 0 1 2.307 1.36c.642.6 1.142 1.33 1.498 2.19.357.865.535 1.847.535 2.95 0 1.103-.178 2.086-.535 2.947a6.157 6.157 0 0 1-1.497 2.19 6.134 6.134 0 0 1-2.306 1.333c-.895.29-1.88.437-2.958.437-1.064 0-2.043-.146-2.938-.437a6.115 6.115 0 0 1-2.306-1.332 6.184 6.184 0 0 1-1.5-2.19c-.356-.86-.534-1.844-.534-2.947s.178-2.084.535-2.948M194.072 28.262c-.337 0-.69.003-1.06.01a37.103 37.103 0 0 0-2.18.107c-.344.023-.652.058-.924.096a2.39 2.39 0 0 0 .097-.623c0-.142-.033-.345-.097-.604.855.026 1.693.05 2.51.07a120.768 120.768 0 0 0 5.02 0c.818-.022 1.654-.044 2.51-.07a2.76 2.76 0 0 0-.096.623c0 .168.032.37.096.603a14.07 14.07 0 0 0-.923-.097 40.022 40.022 0 0 0-2.18-.11c-.37-.005-.723-.008-1.06-.008-.04 1.335-.06 2.68-.06 4.026v3.35c0 .855.017 1.7.05 2.53.032.83.067 1.646.107 2.45-.3-.027-.617-.038-.954-.038-.337 0-.656.01-.953.038.038-.804.074-1.62.106-2.45.034-.83.05-1.675.05-2.53v-3.35c0-1.348-.02-2.69-.058-4.026M212.024 29.77c-.033-.823-.07-1.663-.108-2.52.17.027.332.05.488.07a4.06 4.06 0 0 0 .933 0c.157-.02.32-.043.487-.07-.04.857-.075 1.697-.107 2.52a64.936 64.936 0 0 0-.048 2.52v3.35c0 .854.015 1.698.047 2.527.032.832.068 1.648.107 2.452-.3-.028-.616-.04-.953-.04-.337 0-.655.012-.954.04.04-.805.075-1.62.108-2.453.033-.83.048-1.673.048-2.528v-1.752c-.7-.014-1.378-.025-2.033-.032-.656-.004-1.333-.01-2.035-.01-.7 0-1.378.006-2.033.01-.655.007-1.333.02-2.032.032v1.75c0 .856.015 1.7.047 2.53.032.83.068 1.647.108 2.45-.3-.026-.617-.037-.955-.037-.337 0-.655.012-.954.04.04-.805.077-1.62.108-2.453.033-.83.048-1.673.048-2.528v-3.35c0-.855-.015-1.695-.048-2.52a283.19 283.19 0 0 0-.108-2.52c.17.027.33.05.487.07a4.086 4.086 0 0 0 .935 0c.155-.02.318-.043.487-.07-.04.857-.076 1.697-.108 2.52a64.96 64.96 0 0 0-.047 2.52v.682l2.032.038a95.236 95.236 0 0 0 4.067 0l2.032-.038v-.683c0-.856-.015-1.696-.048-2.52M217.53 29.74c-.033-.83-.066-1.66-.106-2.49.583.026 1.164.05 1.74.07a55.893 55.893 0 0 0 3.476 0c.57-.022 1.147-.044 1.73-.07-.037.195-.058.39-.058.584 0 .194.02.39.06.583a89.373 89.373 0 0 1-1.14-.078 59.25 59.25 0 0 0-2.345-.146c-.454-.02-1-.028-1.634-.028-.014.414-.03.81-.05 1.187-.018.376-.03.804-.03 1.285 0 .504.005 1 .012 1.48.006.478.01.84.01 1.088a54.138 54.138 0 0 0 2.782-.07c.377-.018.723-.038 1.042-.057.317-.02.618-.043.904-.07a3.06 3.06 0 0 0 0 1.188c-.338-.04-.73-.072-1.177-.1-.448-.024-.896-.04-1.342-.047-.45-.006-.87-.013-1.266-.02-.397-.007-.71-.01-.945-.01 0 .118-.003.244-.01.382-.006.135-.01.308-.01.515v1.927c0 .738.004 1.35.01 1.828.007.48.017.844.03 1.09h1.362c.493 0 .976-.01 1.45-.028.473-.02.92-.047 1.343-.078.42-.032.788-.08 1.1-.146-.027.092-.043.19-.05.302-.007.11-.01.21-.01.302 0 .207.02.375.06.506a37.635 37.635 0 0 0-1.742-.038h-3.533c-.582 0-1.173.01-1.77.038.04-.83.073-1.656.107-2.48.032-.823.05-1.663.05-2.52V32.27c0-.86-.02-1.7-.05-2.532M227.36 38.167c.03-.83.047-1.674.047-2.53v-3.35c0-.853-.016-1.693-.048-2.518a470.48 470.48 0 0 0-.108-2.522c.167.027.33.05.486.07a4.06 4.06 0 0 0 .934 0c.156-.02.318-.043.486-.07-.04.857-.075 1.697-.107 2.52a64.936 64.936 0 0 0-.047 2.52v1.07c0 .105.04.156.116.156.052 0 .142-.058.273-.175.453-.39.93-.832 1.43-1.324.498-.49 1-1.004 1.506-1.538a68.262 68.262 0 0 0 1.498-1.624c.493-.552.966-1.085 1.42-1.605.142.026.28.05.41.07.13.017.26.025.39.025.155 0 .31-.01.466-.026.156-.022.31-.044.468-.07-.456.39-.97.85-1.54 1.38-.57.534-1.144 1.077-1.72 1.635-.578.56-1.13 1.107-1.654 1.646-.526.54-.963 1.01-1.314 1.412a500.78 500.78 0 0 1 3.182 3.61 387.337 387.337 0 0 0 3.26 3.687 4.257 4.257 0 0 0-.586-.04h-1.119c-.172 0-.352.012-.533.04a68.5 68.5 0 0 1-1.548-1.83 286.57 286.57 0 0 0-3.113-3.725 20.046 20.046 0 0 0-.963-1.08c-.104-.104-.182-.155-.234-.155-.065 0-.097.038-.097.117v1.692c0 .854.016 1.698.048 2.528.033.83.07 1.647.108 2.45-.3-.026-.616-.037-.953-.037-.337 0-.656.012-.953.04.04-.806.074-1.622.107-2.453M255.322 28.924a5.2 5.2 0 0 0-.977-.614 6.016 6.016 0 0 0-1.184-.428c-.437-.11-.9-.164-1.394-.164-.803 0-1.553.12-2.246.368a4.77 4.77 0 0 0-1.81 1.14c-.513.513-.915 1.16-1.206 1.944-.293.785-.438 1.717-.438 2.793 0 .947.13 1.803.39 2.568.26.77.64 1.412 1.14 1.94a5.07 5.07 0 0 0 1.827 1.215c.72.285 1.535.427 2.443.427.27 0 .56-.013.854-.038.3-.026.588-.064.87-.116.278-.052.536-.117.776-.196.24-.076.443-.167.61-.272.017-.387.024-.776.032-1.166.006-.39.008-.785.008-1.188 0-.452-.008-.906-.027-1.36a62.5 62.5 0 0 0-.07-1.304c.325.064.636.097.935.097.145 0 .285-.008.43-.022a2.08 2.08 0 0 0 .406-.076c-.024.297-.044.77-.056 1.41-.014.643-.02 1.488-.02 2.54 0 .258.004.52.01.787.006.265.01.528.01.787-.273.104-.613.21-1.023.32-.405.11-.84.2-1.302.273-.46.072-.92.135-1.383.193a9.9 9.9 0 0 1-1.254.088c-1.155 0-2.194-.14-3.122-.415-.928-.28-1.715-.71-2.365-1.294a5.826 5.826 0 0 1-1.497-2.18c-.35-.87-.526-1.875-.526-3.017 0-1.103.182-2.084.545-2.948a6.08 6.08 0 0 1 1.537-2.19c.662-.596 1.463-1.05 2.404-1.36.94-.312 1.982-.467 3.12-.467.663 0 1.25.036 1.765.105.513.072.966.167 1.362.284.396.117.742.238 1.04.37.3.13.565.25.798.368a3.35 3.35 0 0 0-.28.7c-.085.285-.142.553-.165.8h-.234a5.115 5.115 0 0 0-.728-.7M267.55 24.137a.955.955 0 0 1 .702-.293c.273 0 .506.097.7.293a.95.95 0 0 1 .292.7.95.95 0 0 1-.29.7.952.952 0 0 1-.702.292.955.955 0 0 1-.7-.294.958.958 0 0 1-.292-.7c0-.272.097-.506.29-.7m-3.83 0a.947.947 0 0 1 .698-.292c.273 0 .506.097.7.293a.96.96 0 0 1 .294.7.96.96 0 0 1-.293.7.952.952 0 0 1-.702.292.947.947 0 0 1-.7-.294.95.95 0 0 1-.29-.7c0-.272.095-.506.29-.7m7.59 7.034c-.272-.785-.65-1.432-1.14-1.944a4.523 4.523 0 0 0-1.71-1.14 5.993 5.993 0 0 0-2.132-.368c-.754 0-1.457.12-2.11.368a4.546 4.546 0 0 0-1.714 1.14c-.486.513-.867 1.16-1.14 1.944-.272.785-.407 1.717-.407 2.793s.135 2.008.408 2.793c.27.786.652 1.434 1.14 1.945.485.514 1.058.894 1.712 1.14.654.247 1.357.37 2.11.37.767 0 1.476-.123 2.132-.37a4.51 4.51 0 0 0 1.71-1.14c.49-.51.868-1.158 1.142-1.944.27-.785.407-1.717.407-2.793s-.137-2.008-.408-2.793m-11.728-.155c.36-.862.855-1.592 1.5-2.19.64-.596 1.41-1.05 2.305-1.36.895-.312 1.875-.467 2.94-.467 1.075 0 2.062.155 2.956.466a6.505 6.505 0 0 1 2.307 1.36c.643.6 1.14 1.33 1.498 2.19.357.865.535 1.847.535 2.95 0 1.1-.178 2.086-.535 2.947a6.147 6.147 0 0 1-1.498 2.19 6.132 6.132 0 0 1-2.307 1.333c-.895.29-1.88.437-2.957.437-1.064 0-2.045-.146-2.94-.437-.894-.292-1.663-.735-2.304-1.332-.645-.596-1.14-1.327-1.5-2.19-.355-.86-.535-1.845-.535-2.947s.18-2.084.535-2.948M279.092 28.262c-.338 0-.69.003-1.06.01a37.103 37.103 0 0 0-2.18.107c-.344.023-.652.058-.924.096a2.44 2.44 0 0 0 .098-.623c0-.142-.035-.345-.098-.604.855.026 1.69.05 2.51.07a120.792 120.792 0 0 0 5.02 0c.818-.022 1.654-.044 2.512-.07a2.67 2.67 0 0 0-.098.623c0 .168.03.37.098.603a14.176 14.176 0 0 0-.926-.097 39.78 39.78 0 0 0-2.177-.11c-.37-.005-.725-.008-1.063-.008-.04 1.335-.057 2.68-.057 4.026v3.35c0 .855.016 1.7.047 2.53.033.83.07 1.646.107 2.45-.298-.027-.614-.038-.954-.038-.336 0-.652.01-.95.038.038-.804.073-1.62.106-2.45.03-.83.05-1.675.05-2.53v-3.35c-.002-1.348-.02-2.69-.06-4.026M290.008 28.262c-.338 0-.69.003-1.063.01a37.688 37.688 0 0 0-2.177.107c-.344.023-.652.058-.924.096.064-.233.096-.44.096-.623 0-.142-.03-.345-.096-.604.857.026 1.69.05 2.51.07a120.89 120.89 0 0 0 5.022 0c.816-.022 1.652-.044 2.508-.07-.063.258-.096.468-.096.623 0 .168.033.37.096.603-.27-.038-.58-.072-.922-.097a40.102 40.102 0 0 0-2.18-.11c-.37-.005-.724-.008-1.06-.008-.04 1.335-.057 2.68-.057 4.026v3.35c0 .855.016 1.7.047 2.53.03.83.066 1.646.107 2.45-.3-.027-.616-.038-.954-.038-.338 0-.656.01-.955.038.042-.804.077-1.62.108-2.45.03-.83.05-1.675.05-2.53v-3.35c-.002-1.348-.023-2.69-.06-4.026M298.23 29.77c-.03-.823-.067-1.663-.105-2.52.168.027.33.05.484.07a4.036 4.036 0 0 0 .933 0c.156-.02.318-.043.488-.07-.038.857-.073 1.697-.108 2.52-.03.824-.047 1.664-.047 2.52v3.35c0 .854.016 1.698.047 2.527.035.832.07 1.648.11 2.452a10.7 10.7 0 0 0-.956-.04c-.338 0-.656.012-.95.04.036-.805.073-1.62.103-2.453.032-.83.05-1.673.05-2.528v-3.35c0-.856-.018-1.696-.05-2.52M309.973 35.567c-1.686-1.81-3.37-3.61-5.06-5.4-.01.366-.024.853-.038 1.46-.012.61-.02 1.44-.02 2.49 0 .273.004.61.012 1.013.004.404.01.825.018 1.266.006.44.018.89.03 1.342.013.455.024.878.038 1.268.012.387.025.73.04 1.02.013.292.024.49.038.594a5.17 5.17 0 0 0-.683-.038c-.258 0-.496.01-.72.038.028-.13.056-.37.09-.72.032-.353.062-.77.087-1.256.025-.486.055-1.016.086-1.585.035-.572.06-1.142.08-1.714a113.582 113.582 0 0 0 .067-3.133c0-1.244-.002-2.316-.008-3.212a41.24 41.24 0 0 0-.052-2.002h.314c.79.855 1.635 1.773 2.537 2.753.9.982 1.796 1.947 2.685 2.9.89.953 1.734 1.855 2.53 2.704a93.226 93.226 0 0 0 2.09 2.17v-2.646c0-1.362-.01-2.688-.026-3.98a86.616 86.616 0 0 0-.13-3.647c.264.066.482.098.662.098.156 0 .365-.03.623-.097a41.22 41.22 0 0 0-.086 1.286c-.034.572-.065 1.18-.1 1.83a177.44 177.44 0 0 0-.087 1.906c-.027.623-.04 1.123-.04 1.5v1.165c0 .44.005.902.01 1.382.01.48.015.962.02 1.448l.02 1.363c.007.423.01.79.01 1.1v.642h-.27a198.8 198.8 0 0 0-4.77-5.305M329.443 28.924a5.248 5.248 0 0 0-.975-.614 6.036 6.036 0 0 0-1.186-.428 5.665 5.665 0 0 0-1.393-.164 6.65 6.65 0 0 0-2.25.368 4.8 4.8 0 0 0-1.808 1.14c-.514.513-.914 1.16-1.207 1.944-.29.785-.44 1.717-.44 2.793 0 .947.132 1.803.392 2.568.26.77.64 1.412 1.14 1.94.497.523 1.108.93 1.83 1.215.718.285 1.532.427 2.44.427.27 0 .56-.013.855-.038.3-.026.586-.064.867-.116a6.11 6.11 0 0 0 .778-.196c.238-.076.44-.167.61-.272.015-.387.024-.776.03-1.166.006-.39.008-.785.008-1.188 0-.452-.008-.906-.027-1.36-.02-.455-.044-.89-.07-1.304.325.064.638.097.935.097.145 0 .285-.008.43-.022a2 2 0 0 0 .406-.076c-.022.297-.044.77-.056 1.41-.012.642-.018 1.488-.018 2.54 0 .258.002.52.008.787.008.265.01.528.01.787-.273.104-.613.21-1.023.32-.405.11-.84.2-1.302.273-.46.072-.92.135-1.38.193-.46.06-.88.088-1.255.088-1.158 0-2.197-.14-3.123-.415-.928-.28-1.72-.71-2.367-1.294a5.874 5.874 0 0 1-1.498-2.18c-.348-.87-.523-1.875-.523-3.017 0-1.103.182-2.084.545-2.948a6.07 6.07 0 0 1 1.537-2.19c.66-.596 1.463-1.05 2.402-1.36.94-.312 1.98-.467 3.123-.467.66 0 1.247.036 1.76.105a9.353 9.353 0 0 1 2.403.653c.3.13.566.252.8.37-.105.18-.2.415-.284.698-.087.286-.14.554-.165.8h-.234a5 5 0 0 0-.727-.7M334.21 29.74c-.032-.83-.07-1.66-.106-2.49.584.026 1.162.05 1.74.07a56.032 56.032 0 0 0 3.472 0c.572-.022 1.15-.044 1.734-.07a2.95 2.95 0 0 0 0 1.168 90.656 90.656 0 0 1-1.14-.08l-1.09-.077a59.25 59.25 0 0 0-1.255-.067 40.3 40.3 0 0 0-1.635-.027c-.012.414-.03.81-.05 1.187a27.16 27.16 0 0 0-.026 1.285c0 .504.002 1 .01 1.48.006.478.008.84.008 1.088a54.212 54.212 0 0 0 2.785-.07c.373-.018.723-.038 1.04-.057.317-.02.618-.043.905-.07a3.073 3.073 0 0 0 0 1.188c-.338-.04-.73-.072-1.178-.1-.447-.024-.896-.04-1.344-.047-.445-.006-.87-.013-1.266-.02a53.21 53.21 0 0 0-.943-.01c0 .118 0 .244-.007.382a9.31 9.31 0 0 0-.01.515v1.927c0 .738.002 1.35.01 1.828.006.48.016.844.03 1.09h1.36c.492 0 .977-.01 1.45-.028.474-.02.92-.047 1.343-.078.422-.032.787-.08 1.098-.146-.025.092-.04.19-.047.302-.006.11-.012.21-.012.302 0 .207.02.375.06.506a37.592 37.592 0 0 0-1.74-.038h-3.533c-.583 0-1.175.01-1.77.038.036-.83.073-1.656.106-2.48.03-.823.047-1.663.047-2.52V32.27c.003-.86-.013-1.7-.044-2.532M350.273 35.567c-1.686-1.81-3.37-3.61-5.057-5.4-.014.366-.027.853-.04 1.46-.013.61-.02 1.44-.02 2.49 0 .273.005.61.01 1.013.007.404.01.825.02 1.266.005.44.017.89.03 1.342a89.643 89.643 0 0 0 .078 2.288c.012.292.025.49.037.594a5.148 5.148 0 0 0-.68-.038c-.26 0-.5.01-.72.038.025-.13.055-.37.088-.72.03-.353.06-.77.088-1.256.023-.486.055-1.016.088-1.585.03-.572.06-1.142.076-1.714.02-.57.035-1.13.05-1.675.013-.543.017-1.03.017-1.457 0-1.244-.002-2.316-.008-3.212a41.836 41.836 0 0 0-.05-2.002h.313c.79.855 1.64 1.773 2.54 2.753.9.982 1.794 1.947 2.683 2.9.89.953 1.734 1.855 2.53 2.704.8.852 1.495 1.573 2.093 2.17v-2.646c0-1.362-.013-2.688-.028-3.98a90.13 90.13 0 0 0-.13-3.647c.263.066.48.098.66.098.16 0 .366-.03.626-.097-.025.287-.055.715-.088 1.286l-.098 1.83c-.033.648-.06 1.283-.088 1.906a39.055 39.055 0 0 0-.037 1.5v1.165c0 .44.002.902.008 1.382.008.48.016.962.02 1.448.01.486.01.94.02 1.363.005.423.01.79.01 1.1v.642h-.27a193.815 193.815 0 0 0-4.772-5.305" fill="#013967"/><path fill="#adb7c9" d="M375.105 3.086h1.01V40.92h-1.01z"/><path d="M455.596 28.036c0 2.546-.586 4.812-1.754 6.792-1.172 1.98-2.79 3.513-4.857 4.596-2.047 1.087-4.355 1.63-6.92 1.63-2.55 0-4.848-.543-6.896-1.63a12.13 12.13 0 0 1-3.128-2.344c1.713.688 3.584 1.032 5.617 1.032 2.562 0 4.872-.54 6.92-1.627 2.063-1.083 3.683-2.617 4.854-4.597 1.17-1.98 1.758-4.243 1.758-6.79V3.084h4.404v24.95zM429.88 3.086h4.41v24.69c0 1.652.317 3.1.954 4.34.127.238.262.464.402.682a7.42 7.42 0 0 1-2.098-.78 6.82 6.82 0 0 1-2.71-2.84c-.638-1.24-.958-2.69-.958-4.34V3.087zm-35.26 33.008l3.696-3.648c1.77 1.76 3.705 3.026 5.814 3.798 2.137.757 4.64 1.136 7.516 1.136 1.98 0 3.787-.242 5.424-.723 1.13-.346 2.158-.8 3.088-1.365a9.917 9.917 0 0 1-2.475 2.843c-1.22.963-2.652 1.696-4.29 2.194-1.634.48-3.44.722-5.42.724-2.878 0-5.38-.38-7.517-1.137-2.116-.776-4.06-2.052-5.835-3.823m21.046-4.416c.12-.473.184-.98.184-1.525 0-1.703-.5-3.003-1.496-3.9a4.378 4.378 0 0 0-1.578-1.005c-.584-.242-1.426-.438-2.53-.594l-4.442-.62c-3.064-.432-5.45-1.44-7.154-3.023-1.824-1.702-2.736-4.096-2.736-7.18 0-2.186.508-4.113 1.525-5.784.858-1.415 2.034-2.56 3.528-3.43-.922 1.612-1.383 3.46-1.383 5.542 0 3.082.912 5.477 2.74 7.18 1.707 1.585 4.086 2.592 7.152 3.02l4.443.62c1.1.158 1.947.356 2.53.597.603.223 1.126.56 1.573 1.007 1 .896 1.502 2.194 1.502 3.898-.004 1.826-.69 3.246-2.068 4.262-.52.383-1.12.696-1.79.936m2.85-26.018c.573.413 1.132.874 1.673 1.378l-3.668 3.614c-.758-.74-1.566-1.315-2.428-1.728-.86-.43-1.754-.732-2.686-.905a15.458 15.458 0 0 0-3.072-.285c-1.105 0-2.092.15-2.96.447.132-.454.32-.88.563-1.278.55-.896 1.34-1.594 2.372-2.094 1.035-.498 2.266-.75 3.695-.75 1.117 0 2.143.097 3.072.288.93.17 1.825.472 2.685.903.256.123.506.26.753.41m66.92 21.643c-.2-.274-.41-.536-.627-.78-.472-.69-1.116-1.245-1.938-1.663a9.79 9.79 0 0 0-1.49-.734c.896-.343 1.73-.886 2.504-1.625.777-.756 1.396-1.677 1.86-2.764.48-1.1.726-2.298.726-3.59 0-2.083-.467-3.898-1.396-5.448-.914-1.566-2.238-2.764-3.977-3.592-1.726-.842-3.72-1.262-5.995-1.262h-10.26V3.087h14.67c2.273 0 4.27.422 5.994 1.266 1.73.827 3.06 2.023 3.97 3.59.934 1.55 1.398 3.367 1.398 5.448 0 1.293-.242 2.49-.725 3.59-.463 1.088-1.082 2.008-1.86 2.766-.77.74-1.608 1.283-2.503 1.628 1.62.618 2.97 1.677 4.053 3.175 1.088 1.498 1.63 3.35 1.63 5.553 0 2.273-.483 4.21-1.446 5.81-.95 1.585-2.293 2.79-4.03 3.615a11.32 11.32 0 0 1-1.42.56c.388-.434.733-.906 1.042-1.418.962-1.604 1.444-3.54 1.444-5.812 0-2.206-.543-4.056-1.626-5.555m-14.862-16.35v8.042h8.447c.41 0 .81-.022 1.186-.068a4.387 4.387 0 0 1-1.103 1.4c-1.1.95-2.602 1.424-4.494 1.424h-8.445V10.955h4.408zm0 15.936v8.713h8.988c.37 0 .73-.02 1.07-.06a5.215 5.215 0 0 1-2.148 2.09c-.93.485-2.04.725-3.328.725h-8.99v-11.47h4.408z" fill="#013967"/></svg>