<svg xmlns="http://www.w3.org/2000/svg" width="491.109" height="44.242" viewBox="0 0 491.109 44.242"><path fill="#fff" d="M140.726 11.76c-1.692-1.815-3.384-3.62-5.075-5.416a115.463 115.463 0 0 0-.05 4.976l.02 1.27.03 1.347.04 1.27.04 1.024c.02.3.03.5.04.6a6.002 6.002 0 0 0-1.4 0c.03-.13.06-.37.09-.72.04-.35.06-.77.09-1.26l.09-1.59a90.29 90.29 0 0 0 .13-3.39c.02-.54.02-1.03.02-1.46V5.19a44.77 44.77 0 0 0-.05-2.01h.31c.8.86 1.65 1.78 2.55 2.768a863.334 863.334 0 0 0 5.24 5.62 98.4 98.4 0 0 0 2.1 2.18v-2.66c0-1.366-.01-2.696-.03-3.99a87.35 87.35 0 0 0-.12-3.66c.26.064.48.096.67.096.16 0 .37-.033.63-.1a34.94 34.94 0 0 0-.09 1.29c-.03.57-.06 1.18-.1 1.83l-.09 1.91c-.03.626-.04 1.127-.04 1.504v1.17c0 .44.01.905.01 1.385.01.484.01.97.02 1.457.01.487.01.943.02 1.365.01.43.01.79.01 1.11v.64h-.27a197.9 197.9 0 0 0-4.79-5.32zm9.03-5.815c-.034-.83-.07-1.67-.11-2.528.17.024.333.05.488.067a3.542 3.542 0 0 0 .938 0c.157-.018.32-.043.49-.067-.04.858-.076 1.7-.11 2.528-.032.826-.048 1.668-.048 2.526v3.36c0 .86.016 1.71.05 2.54.032.84.068 1.66.107 2.46-.3-.02-.61-.04-.95-.04-.34 0-.65.02-.96.04.04-.81.08-1.62.11-2.46.03-.83.05-1.67.05-2.54V8.47c0-.857-.01-1.7-.04-2.525zm5.524-.032c-.035-.83-.07-1.664-.11-2.497.586.024 1.168.05 1.748.067.58.02 1.16.03 1.748.03.585 0 1.164-.01 1.736-.03.573-.018 1.152-.043 1.738-.067a2.9 2.9 0 0 0 0 1.17 86.507 86.507 0 0 1-1.142-.078c-.346-.025-.71-.052-1.093-.077a36.767 36.767 0 0 0-2.9-.1c-.013.42-.028.82-.05 1.2-.018.38-.027.81-.027 1.29 0 .51.003 1.01.01 1.49.006.49.01.85.01 1.1a50.682 50.682 0 0 0 2.79-.07c.376-.02.727-.04 1.044-.06.318-.02.62-.04.908-.06a3.047 3.047 0 0 0 0 1.19c-.34-.04-.73-.07-1.18-.09-.45-.02-.9-.04-1.35-.05l-1.268-.02c-.396 0-.71-.01-.946-.01 0 .12-.003.25-.01.38-.006.14-.01.31-.01.52v1.93c0 .74.004 1.36.01 1.84.007.49.017.85.03 1.09h1.366a38.585 38.585 0 0 0 2.802-.1c.422-.03.79-.08 1.102-.14a1.36 1.36 0 0 0-.05.31c-.006.11-.01.21-.01.3 0 .21.022.38.06.51a37.89 37.89 0 0 0-1.748-.04h-3.542c-.585 0-1.178.01-1.777.04l.1-2.49c.03-.83.04-1.67.04-2.53v-3.4a62.322 62.322 0 0 0-.05-2.53zm9.856.032c-.033-.83-.07-1.67-.108-2.528.494.024.987.05 1.474.067.488.02.98.03 1.474.03s.986-.016 1.474-.047c.488-.034.978-.05 1.474-.05 1.145 0 2.125.15 2.938.45.813.297 1.48.724 2 1.277.52.553.9 1.23 1.143 2.03.24.8.36 1.702.36 2.704 0 1.3-.225 2.398-.674 3.29-.44.892-1.02 1.61-1.71 2.156a6.43 6.43 0 0 1-2.3 1.163 9.31 9.31 0 0 1-2.41.34c-.44 0-.87-.006-1.3-.02-.43-.014-.86-.02-1.31-.02h-1.3c-.43 0-.86.013-1.31.04.04-.81.08-1.628.11-2.46.03-.832.05-1.678.05-2.54V8.472c0-.857-.01-1.7-.04-2.525zm1.767 10.02c.273.067.643.117 1.112.148.47.034.95.05 1.445.05.715 0 1.43-.086 2.147-.255a4.642 4.642 0 0 0 1.924-.955c.57-.47 1.03-1.11 1.39-1.924.36-.82.54-1.87.54-3.16 0-1.14-.14-2.07-.42-2.79-.28-.73-.66-1.31-1.15-1.73a4.09 4.09 0 0 0-1.74-.88 9.513 9.513 0 0 0-2.22-.25 23.912 23.912 0 0 0-3 .19c-.04.62-.07 1.28-.09 1.96-.02.68-.03 1.37-.03 2.08v3.35a70.088 70.088 0 0 0 .12 4.14zM180.42 5.913c-.03-.83-.067-1.664-.106-2.497.586.024 1.168.05 1.746.067.58.02 1.163.03 1.748.03.586 0 1.165-.01 1.738-.03.572-.018 1.152-.043 1.737-.067-.038.194-.06.39-.06.584 0 .197.022.39.06.587a88.722 88.722 0 0 1-1.14-.08l-1.095-.076a36.774 36.774 0 0 0-2.9-.1c-.01.42-.028.82-.047 1.2-.02.38-.02.81-.02 1.29 0 .51 0 1.01.01 1.49s.01.85.01 1.1c.57 0 1.09 0 1.54-.02.46-.01.87-.03 1.25-.05.38-.02.73-.04 1.05-.06.32-.02.62-.04.91-.06a3.045 3.045 0 0 0 0 1.19c-.33-.04-.73-.07-1.18-.09a33.6 33.6 0 0 0-1.34-.05l-1.27-.02a66.18 66.18 0 0 0-.95-.01c0 .12 0 .25-.01.38 0 .14-.01.31-.01.52v1.93c0 .74.01 1.36.01 1.84.01.49.02.85.03 1.09h1.37a37.767 37.767 0 0 0 2.8-.1 9.11 9.11 0 0 0 1.1-.14c-.02.09-.04.19-.05.31 0 .11-.01.21-.01.3 0 .21.02.38.06.51a37.913 37.913 0 0 0-1.74-.04h-3.55c-.58 0-1.18.01-1.77.04.04-.83.08-1.66.11-2.49a63.32 63.32 0 0 0 .05-2.53v-3.4c0-.85-.01-1.7-.05-2.53zm9.857.032c-.03-.83-.067-1.67-.107-2.528.378.024.75.05 1.113.067.364.02.735.03 1.112.03.378 0 .75-.016 1.113-.047.364-.034.735-.05 1.112-.05a7.6 7.6 0 0 1 1.563.156c.495.104.926.278 1.298.517.37.242.67.558.88.946.22.39.32.878.32 1.465 0 .63-.14 1.16-.42 1.61-.27.45-.62.82-1.02 1.12a5.11 5.11 0 0 1-1.3.69 6.59 6.59 0 0 1-1.26.32c.16.2.37.47.65.82s.58.74.92 1.17l1.06 1.33 1.05 1.33c.34.42.66.81.96 1.16.3.36.54.62.72.81a4.26 4.26 0 0 0-.58-.04h-1.15a3.87 3.87 0 0 0-.56.04c-.19-.27-.49-.68-.89-1.23a77.647 77.647 0 0 0-1.31-1.75c-.48-.62-.97-1.24-1.47-1.86-.5-.62-.96-1.14-1.37-1.57h-.74v1.43c0 .86.02 1.71.05 2.54.03.84.07 1.66.11 2.46-.3-.02-.62-.04-.95-.04-.34 0-.66.02-.96.04.04-.81.08-1.62.11-2.46.04-.83.05-1.67.05-2.54v-3.4c0-.86-.01-1.7-.05-2.52zm2.246 3.718c.215.012.453.02.712.02a6.17 6.17 0 0 0 1.26-.137c.436-.092.835-.25 1.2-.48a2.84 2.84 0 0 0 .907-.916c.24-.386.36-.87.36-1.456 0-.506-.093-.925-.283-1.257a2.236 2.236 0 0 0-.74-.79 2.78 2.78 0 0 0-.98-.402 5.31 5.31 0 0 0-1.04-.106c-.46 0-.84 0-1.13.02-.3.02-.56.04-.76.06-.03.71-.06 1.42-.08 2.12-.03.7-.04 1.4-.04 2.11v1.11c.18.04.38.06.59.08zM202.34 15c.176.242.392.46.646.655a3.25 3.25 0 0 0 2.02.664c.43 0 .815-.08 1.16-.23.346-.15.638-.36.88-.61a2.65 2.65 0 0 0 .556-.9 3.11 3.11 0 0 0 .195-1.11c0-.6-.153-1.07-.458-1.43a3.797 3.797 0 0 0-1.15-.88c-.46-.24-.95-.45-1.48-.65a7.638 7.638 0 0 1-1.48-.73 3.885 3.885 0 0 1-1.14-1.13c-.31-.46-.46-1.07-.46-1.83 0-.55.1-1.05.29-1.5.19-.45.48-.84.85-1.16.37-.33.81-.58 1.34-.76a5.344 5.344 0 0 1 1.75-.27c.62 0 1.16.08 1.62.22.45.15.88.38 1.27.69-.12.22-.22.46-.29.7-.08.25-.16.56-.24.93H208a5.143 5.143 0 0 0-.263-.6 2.223 2.223 0 0 0-.45-.59 2.503 2.503 0 0 0-.676-.46 2.183 2.183 0 0 0-.94-.19c-.36 0-.7.06-1 .18a2.37 2.37 0 0 0-.8.5 2.216 2.216 0 0 0-.52.77c-.12.3-.18.63-.18.98 0 .61.15 1.09.46 1.44.31.35.69.65 1.15.89.46.24.95.45 1.47.64a8.23 8.23 0 0 1 1.48.69 3.75 3.75 0 0 1 1.13 1.07c.31.43.46 1 .46 1.72 0 .6-.1 1.16-.32 1.69a4.032 4.032 0 0 1-.93 1.39c-.41.4-.91.7-1.5.92-.6.21-1.27.32-2.02.32-.81 0-1.46-.11-1.97-.32-.5-.22-.92-.46-1.26-.74a4.6 4.6 0 0 0 .25-.81c.04-.24.09-.55.13-.93h.23c.1.23.24.47.42.71zm15.784-9.387c.363.876.733 1.766 1.112 2.664a430.71 430.71 0 0 0 3.093 7.184c.26.6.48 1.06.65 1.37a3.53 3.53 0 0 0-.52-.04h-1.04a3.54 3.54 0 0 0-.52.04c-.09-.3-.22-.66-.37-1.08a42.75 42.75 0 0 0-.52-1.33l-.58-1.4c-.2-.47-.38-.92-.55-1.35l-1.27-.03c-.43 0-.86-.01-1.29-.01-.41 0-.8.01-1.19.01l-1.19.03a91.235 91.235 0 0 0-1.13 2.9c-.34.92-.6 1.68-.77 2.28-.22-.02-.46-.04-.72-.04-.27 0-.51.02-.73.04a539.92 539.92 0 0 0 3.08-6.79c1-2.25 2.01-4.54 3.02-6.87h.37c.31.76.65 1.58 1.01 2.46zM214.18.29a.96.96 0 0 1 .7-.29c.276 0 .51.097.706.29a.97.97 0 0 1 .292.706.96.96 0 0 1-.292.702.957.957 0 0 1-.705.293.956.956 0 0 1-.7-.29.96.96 0 0 1-.29-.7.97.97 0 0 1 .29-.7zm.155 10.466c.34 0 .69.007 1.055.02.366.013.716.02 1.054.02.363 0 .73-.003 1.093-.01.366-.007.73-.018 1.094-.03L216.47 5.8l-2.13 4.956zM218.025.29a.963.963 0 0 1 .704-.29.96.96 0 0 1 .7.29.97.97 0 0 1 .29.706.96.96 0 0 1-.29.702.95.95 0 0 1-.7.293.958.958 0 0 1-.71-.29.955.955 0 0 1-.29-.7c0-.27.09-.51.29-.7zm16.835 16.08c-.254.12-.56.23-.916.33-.358.098-.76.186-1.202.263-.44.08-.903.117-1.384.117-1.03 0-1.98-.146-2.85-.438a6.023 6.023 0 0 1-2.255-1.34 6.273 6.273 0 0 1-1.483-2.193c-.36-.87-.537-1.86-.537-2.96s.178-2.1.537-2.96c.357-.87.858-1.6 1.5-2.2a6.496 6.496 0 0 1 2.315-1.37c.9-.31 1.888-.47 2.967-.47.86 0 1.643.09 2.352.26.71.17 1.337.39 1.883.63a2.58 2.58 0 0 0-.253.74 44.48 44.48 0 0 0-.156.78l-.117.04a4.38 4.38 0 0 0-.54-.53 5.91 5.91 0 0 0-.82-.57 5.19 5.19 0 0 0-1.05-.46 4.29 4.29 0 0 0-1.28-.19 5.98 5.98 0 0 0-2.13.37 4.533 4.533 0 0 0-1.71 1.14c-.49.51-.87 1.16-1.14 1.95-.27.79-.41 1.72-.41 2.8 0 1.08.14 2.01.41 2.8.28.79.66 1.44 1.15 1.95a4.53 4.53 0 0 0 1.72 1.14 6.05 6.05 0 0 0 2.14.37c.47 0 .9-.06 1.3-.18a6.822 6.822 0 0 0 1.99-.95c.27-.19.49-.36.67-.5l.08.07-.18 1.15c-.12.11-.3.22-.55.34zm13.294-10.425c-.033-.83-.068-1.67-.108-2.528.17.024.332.05.488.067.155.02.313.03.47.03.155 0 .31-.01.467-.03.16-.018.32-.043.49-.067-.04.858-.07 1.7-.1 2.528-.03.826-.05 1.668-.05 2.526v3.36c0 .86.02 1.71.05 2.54.03.84.07 1.66.11 2.46-.3-.02-.61-.04-.95-.04-.34 0-.66.02-.95.04.04-.81.08-1.62.11-2.46.04-.83.05-1.67.05-2.54v-1.75a192.323 192.323 0 0 0-6.12-.03l-2.04.03v1.76c0 .86.02 1.71.05 2.54.04.84.07 1.66.11 2.46-.3-.02-.62-.04-.96-.04-.34 0-.66.02-.96.04.04-.81.08-1.62.11-2.46.03-.83.05-1.67.05-2.54V8.47c0-.857-.01-1.7-.04-2.525-.03-.83-.07-1.67-.11-2.528.17.024.33.05.49.067a3.542 3.542 0 0 0 .94 0c.16-.018.32-.043.49-.067-.04.858-.08 1.7-.11 2.528-.03.826-.05 1.668-.05 2.526v.69c.71.02 1.39.03 2.04.04a103.092 103.092 0 0 0 4.08 0c.66-.01 1.34-.02 2.04-.04v-.69c0-.85-.01-1.7-.04-2.52zM253.717 15c.176.242.39.46.644.655a3.253 3.253 0 0 0 2.02.664 2.9 2.9 0 0 0 1.17-.23 2.618 2.618 0 0 0 1.44-1.51 3.11 3.11 0 0 0 .2-1.11c0-.6-.15-1.07-.46-1.43a3.776 3.776 0 0 0-1.14-.88c-.45-.24-.94-.45-1.47-.65a7.655 7.655 0 0 1-1.47-.73 3.88 3.88 0 0 1-1.14-1.13c-.3-.46-.46-1.07-.46-1.83 0-.55.1-1.05.3-1.5.2-.45.48-.84.85-1.16.37-.33.82-.59 1.34-.77a5.355 5.355 0 0 1 1.76-.27c.63 0 1.17.08 1.62.23.46.15.88.38 1.27.69-.11.22-.21.46-.29.7-.08.25-.16.56-.23.93h-.23a5.143 5.143 0 0 0-.26-.6 2.27 2.27 0 0 0-.45-.59 2.508 2.508 0 0 0-.67-.46 2.207 2.207 0 0 0-.94-.19c-.36 0-.7.06-1 .18a2.375 2.375 0 0 0-.8.5c-.23.21-.4.47-.53.77-.12.3-.18.63-.18.98 0 .61.15 1.09.46 1.44.31.35.69.65 1.14.89.46.24.95.45 1.48.64s1.02.42 1.48.69a3.76 3.76 0 0 1 1.13 1.07c.31.43.46 1 .46 1.71 0 .6-.1 1.16-.32 1.69a4.03 4.03 0 0 1-.94 1.39 4.21 4.21 0 0 1-1.5.92c-.59.21-1.27.32-2.02.32-.81 0-1.46-.11-1.96-.32a5.44 5.44 0 0 1-1.26-.73 4.6 4.6 0 0 0 .25-.81c.05-.24.09-.55.13-.93h.24c.11.23.25.47.42.71zm9.82-9.055c-.034-.83-.07-1.67-.108-2.528.16.024.33.05.48.067.15.02.31.03.47.03.15 0 .31-.01.47-.03.15-.018.32-.043.49-.067-.04.858-.08 1.7-.11 2.528-.04.826-.05 1.668-.05 2.526v3.36c0 .86.01 1.71.05 2.54.03.84.06 1.66.1 2.46-.3-.02-.62-.04-.96-.04-.34 0-.66.02-.96.04.03-.81.07-1.62.1-2.46.03-.83.05-1.67.05-2.54V8.47c0-.857-.02-1.7-.05-2.525zM269.1 15c.174.242.39.46.643.655a3.25 3.25 0 0 0 2.02.664 2.9 2.9 0 0 0 1.163-.23c.345-.15.64-.36.88-.61s.425-.56.556-.9c.13-.35.195-.72.195-1.11 0-.6-.15-1.07-.46-1.43a3.76 3.76 0 0 0-1.14-.88c-.456-.24-.947-.45-1.475-.65a7.61 7.61 0 0 1-1.473-.73 3.868 3.868 0 0 1-1.15-1.13c-.31-.46-.46-1.07-.46-1.83 0-.55.09-1.05.29-1.5.19-.45.48-.84.85-1.16.37-.33.81-.59 1.33-.77a5.357 5.357 0 0 1 1.76-.27c.62 0 1.16.08 1.62.23.45.15.88.38 1.27.69-.12.22-.22.46-.3.7-.08.25-.16.56-.24.93h-.23a5.143 5.143 0 0 0-.27-.6 2.266 2.266 0 0 0-.45-.59 2.53 2.53 0 0 0-.67-.46 2.2 2.2 0 0 0-.94-.19c-.37 0-.7.06-1.01.18a2.38 2.38 0 0 0-.8.5 2.218 2.218 0 0 0-.53.77c-.12.3-.19.63-.19.98 0 .61.15 1.09.45 1.44.31.35.68.65 1.14.89.45.24.94.45 1.47.64.52.19 1.02.42 1.47.69.45.27.83.62 1.14 1.05.31.43.46 1 .46 1.71 0 .6-.11 1.16-.32 1.69a3.99 3.99 0 0 1-.94 1.39c-.41.4-.91.7-1.51.92-.59.21-1.27.32-2.02.32-.81 0-1.46-.11-1.96-.32-.5-.22-.92-.46-1.26-.73.12-.3.2-.57.24-.81.04-.24.09-.55.12-.93h.24c.1.23.24.47.42.71zm19.402 1.37c-.255.12-.56.23-.916.33-.36.098-.76.186-1.203.263-.44.08-.904.117-1.384.117-1.03 0-1.98-.146-2.86-.438a6.03 6.03 0 0 1-2.26-1.34 6.26 6.26 0 0 1-1.49-2.193c-.36-.87-.54-1.86-.54-2.96s.18-2.1.53-2.96c.35-.87.85-1.6 1.5-2.2a6.475 6.475 0 0 1 2.31-1.37c.9-.31 1.89-.47 2.97-.47.86 0 1.64.09 2.35.26.71.17 1.34.39 1.88.63a2.61 2.61 0 0 0-.26.74 35.9 35.9 0 0 0-.15.78l-.12.04a4.45 4.45 0 0 0-.55-.53 5.984 5.984 0 0 0-.82-.57 5.206 5.206 0 0 0-1.05-.46 4.297 4.297 0 0 0-1.29-.19c-.77 0-1.48.12-2.14.37a4.533 4.533 0 0 0-1.72 1.14c-.49.51-.87 1.16-1.14 1.95-.28.79-.41 1.72-.41 2.8 0 1.08.13 2.01.41 2.8.27.79.65 1.44 1.14 1.95a4.52 4.52 0 0 0 1.72 1.14 6.05 6.05 0 0 0 2.14.37c.47 0 .9-.06 1.3-.18a6.87 6.87 0 0 0 1.09-.42c.33-.16.63-.34.89-.53s.49-.36.67-.5l.08.07-.18 1.15c-.12.11-.31.22-.56.34zm13.293-10.425c-.033-.83-.067-1.67-.107-2.528.17.024.333.05.486.067a3.557 3.557 0 0 0 .94 0c.156-.018.318-.043.488-.067-.04.858-.076 1.7-.11 2.528a65.262 65.262 0 0 0-.047 2.526v3.36c0 .86.016 1.71.048 2.54.033.84.068 1.66.11 2.46-.302-.02-.62-.04-.958-.04-.34 0-.658.02-.957.04.04-.81.074-1.62.107-2.46.032-.83.05-1.67.05-2.54v-1.75a192.132 192.132 0 0 0-6.12-.03l-2.04.03v1.76c0 .86.016 1.71.048 2.54.032.84.07 1.66.11 2.46-.302-.02-.62-.04-.958-.04-.34 0-.658.02-.958.04.04-.81.076-1.62.108-2.46.03-.83.047-1.67.047-2.54V8.47c0-.857-.016-1.7-.047-2.525-.032-.83-.068-1.67-.108-2.528.17.024.332.05.488.067.157.02.313.03.47.03.155 0 .312-.01.47-.03.155-.018.317-.043.487-.067-.04.858-.077 1.7-.11 2.528a65.262 65.262 0 0 0-.047 2.526v.69c.702.02 1.383.03 2.04.04a103.27 103.27 0 0 0 4.08 0c.656-.01 1.336-.02 2.04-.04v-.69c-.002-.85-.018-1.7-.05-2.52zm5.525-.032c-.035-.83-.07-1.664-.11-2.497.587.024 1.168.05 1.75.067.578.02 1.16.03 1.746.03.585 0 1.164-.01 1.736-.03.574-.018 1.152-.043 1.737-.067-.04.194-.06.39-.06.584 0 .197.02.39.06.587a86.507 86.507 0 0 1-1.15-.08l-1.1-.076a36.845 36.845 0 0 0-2.9-.1c-.02.42-.03.82-.05 1.2-.02.38-.03.81-.03 1.29 0 .51 0 1.01.01 1.49 0 .49.01.85.01 1.1a50.87 50.87 0 0 0 2.79-.07c.37-.02.72-.04 1.04-.06.31-.02.62-.04.9-.06a3.088 3.088 0 0 0 0 1.19c-.34-.04-.73-.07-1.18-.09a33.65 33.65 0 0 0-1.35-.05l-1.27-.02c-.4 0-.71-.01-.95-.01 0 .12-.01.25-.01.38-.01.14-.01.31-.01.52v1.93c0 .74 0 1.36.01 1.84 0 .49.01.85.03 1.09h1.36a38.247 38.247 0 0 0 2.8-.1c.42-.03.79-.08 1.1-.14-.03.09-.05.19-.05.31-.01.11-.01.21-.01.3 0 .21.02.38.06.51a37.913 37.913 0 0 0-1.75-.04h-3.54c-.59 0-1.18.01-1.78.04.04-.83.07-1.66.11-2.49.03-.83.05-1.67.05-2.53v-3.4a64.203 64.203 0 0 0-.05-2.53zM322.74 15c.175.242.39.46.644.655a3.237 3.237 0 0 0 2.02.664c.43 0 .817-.08 1.16-.23.346-.15.64-.36.88-.61s.427-.56.557-.9a3.11 3.11 0 0 0 .2-1.11c0-.6-.15-1.07-.46-1.43a3.8 3.8 0 0 0-1.14-.88c-.45-.24-.94-.45-1.47-.65a7.598 7.598 0 0 1-1.47-.73 3.907 3.907 0 0 1-1.14-1.13c-.3-.46-.46-1.07-.46-1.83 0-.55.1-1.05.3-1.5.2-.45.48-.84.85-1.16.37-.33.82-.59 1.34-.77a5.344 5.344 0 0 1 1.76-.27c.63 0 1.17.08 1.63.23.45.15.88.38 1.27.69a4.19 4.19 0 0 0-.29.7c-.07.25-.15.56-.23.93h-.23a4.996 4.996 0 0 0-.26-.6 2.223 2.223 0 0 0-.45-.59 2.498 2.498 0 0 0-.67-.46 2.2 2.2 0 0 0-.94-.19c-.37 0-.7.06-1.01.18a2.37 2.37 0 0 0-.8.5c-.23.21-.4.47-.53.77-.12.3-.18.63-.18.98 0 .61.15 1.09.46 1.44.31.35.69.65 1.14.89.46.24.95.45 1.48.64s1.02.42 1.48.69c.46.27.84.62 1.14 1.05.31.43.46 1 .46 1.71 0 .6-.1 1.16-.32 1.69a4 4 0 0 1-.93 1.39c-.41.4-.91.7-1.5.92-.59.21-1.27.32-2.02.32-.81 0-1.46-.11-1.96-.32-.5-.22-.92-.46-1.26-.73.11-.3.2-.57.24-.81.04-.24.08-.55.12-.93h.24c.1.23.24.47.42.71zm12.52-10.568c-.338 0-.692.002-1.064.01-.37.006-.74.017-1.11.038-.372.02-.73.043-1.075.067-.34.027-.65.06-.92.1.07-.235.1-.442.1-.625 0-.145-.03-.346-.1-.605.86.024 1.7.05 2.52.067.82.02 1.66.03 2.52.03.86 0 1.7-.01 2.52-.03.82-.018 1.66-.043 2.52-.067-.06.26-.1.467-.1.625 0 .167.04.37.1.605-.27-.04-.58-.072-.93-.1a68.915 68.915 0 0 0-1.07-.067c-.37-.02-.74-.032-1.11-.04a56.09 56.09 0 0 0-1.06-.008c-.04 1.34-.06 2.687-.06 4.04v3.356c0 .86.02 1.707.05 2.538.03.833.07 1.653.11 2.46-.3-.026-.61-.04-.95-.04-.34 0-.65.014-.95.04.04-.808.08-1.627.11-2.46.03-.83.05-1.677.05-2.538V8.47c0-1.35-.02-2.7-.06-4.038zm17.628 12.395a3.553 3.553 0 0 0-.518-.04h-1.037c-.162 0-.334.013-.517.04-.09-.3-.214-.662-.37-1.084a36.332 36.332 0 0 0-.518-1.328l-.576-1.407c-.194-.474-.376-.925-.546-1.356l-1.27-.03c-.43-.004-.857-.008-1.287-.008-.41 0-.81.004-1.2.01-.39.008-.79.017-1.19.028a86.877 86.877 0 0 0-1.14 2.898 32.43 32.43 0 0 0-.76 2.276 6.002 6.002 0 0 0-.73-.04c-.26 0-.5.013-.72.04a500.033 500.033 0 0 0 3.08-6.794 828.427 828.427 0 0 0 3.02-6.872h.37l1.01 2.452a518.403 518.403 0 0 0 2.24 5.337 313.262 313.262 0 0 0 1.96 4.51c.27.6.48 1.05.65 1.36zm-8.647-6.07c.34 0 .69.006 1.06.018.37.014.72.02 1.06.02a57.164 57.164 0 0 0 2.19-.038L346.37 5.8l-2.13 4.956zm21.77 6.07a3.53 3.53 0 0 0-.51-.04h-1.03c-.16 0-.33.013-.52.04a21.26 21.26 0 0 0-.37-1.084 40.372 40.372 0 0 0-.52-1.328l-.57-1.407c-.19-.474-.37-.925-.54-1.356l-1.27-.03c-.43-.004-.86-.008-1.28-.008-.4 0-.8.004-1.19.01-.39.008-.78.017-1.19.028a86.666 86.666 0 0 0-1.13 2.898 31.49 31.49 0 0 0-.76 2.276 5.99 5.99 0 0 0-.72-.04c-.26 0-.5.013-.72.04a488.31 488.31 0 0 0 3.09-6.794c1.01-2.25 2.01-4.542 3.03-6.872h.37l1.02 2.452 1.11 2.664c.38.896.75 1.79 1.13 2.673l1.07 2.47c.34.76.63 1.44.9 2.04.27.6.49 1.05.66 1.36zm-8.65-6.07c.34 0 .69.006 1.06.018.36.014.72.02 1.06.02a56.962 56.962 0 0 0 2.19-.038L359.49 5.8l-2.13 4.956zm12.2-6.325c-.34 0-.69.002-1.06.01-.37.006-.74.017-1.11.038-.37.02-.73.043-1.07.067-.34.027-.65.06-.92.1.07-.235.1-.442.1-.625 0-.145-.03-.346-.1-.605.86.024 1.7.05 2.52.067.82.02 1.66.03 2.52.03.86 0 1.7-.01 2.52-.03.82-.018 1.66-.043 2.52-.067a2.71 2.71 0 0 0-.1.625c0 .167.04.37.1.605-.27-.04-.58-.072-.93-.1a69.396 69.396 0 0 0-1.07-.067c-.37-.02-.74-.032-1.11-.04-.37-.006-.73-.008-1.06-.008-.04 1.34-.06 2.687-.06 4.04v3.356c0 .86.02 1.707.05 2.538.04.833.07 1.653.11 2.46-.3-.026-.62-.04-.96-.04-.33 0-.65.014-.95.04.04-.808.08-1.627.11-2.46.03-.83.05-1.677.05-2.538V8.47c0-1.35-.02-2.7-.06-4.038zM377.85 15c.177.242.392.46.646.655a3.235 3.235 0 0 0 2.02.664c.425 0 .81-.08 1.16-.23.34-.15.635-.36.88-.61.235-.25.42-.56.553-.9.13-.35.19-.72.19-1.11 0-.6-.16-1.07-.46-1.43a3.79 3.79 0 0 0-1.14-.88 13.24 13.24 0 0 0-1.48-.65 7.627 7.627 0 0 1-1.48-.73 3.89 3.89 0 0 1-1.14-1.13c-.31-.46-.46-1.07-.46-1.83 0-.55.1-1.05.29-1.5.19-.45.48-.84.85-1.16.37-.33.81-.59 1.33-.77a5.355 5.355 0 0 1 1.76-.27c.62 0 1.16.08 1.62.23.45.15.88.38 1.27.69-.12.22-.22.46-.3.7-.08.25-.16.56-.24.93h-.24a4.538 4.538 0 0 0-.27-.6 2.202 2.202 0 0 0-.44-.59 2.498 2.498 0 0 0-.68-.46 2.2 2.2 0 0 0-.94-.19c-.37 0-.7.06-1.01.18a2.375 2.375 0 0 0-.8.5c-.23.21-.41.47-.53.77-.12.3-.19.63-.19.98 0 .61.15 1.09.46 1.44a3.93 3.93 0 0 0 1.15.89c.45.24.95.45 1.47.64.53.19 1.02.42 1.47.69.45.27.83.63 1.14 1.06.3.43.46 1 .46 1.71 0 .6-.11 1.16-.32 1.69a4.015 4.015 0 0 1-.94 1.39c-.41.4-.91.7-1.5.92-.59.21-1.26.32-2.02.32-.81 0-1.46-.11-1.96-.32a5.44 5.44 0 0 1-1.26-.73c.12-.3.2-.57.24-.81.05-.24.09-.55.13-.93h.24c.1.23.24.47.42.71zm13.637-3.328v1.21h-4.86v-1.21h4.86zm18.5-6.188c-.012-1-.043-1.69-.094-2.068.14.024.277.05.408.067.13.02.26.03.39.03.17 0 .37-.032.59-.097-.04.456-.08.998-.11 1.63-.04.63-.07 1.307-.1 2.03L411 9.302c-.03.76-.05 1.5-.06 2.215-.017.872-.15 1.653-.4 2.34a4.92 4.92 0 0 1-1.086 1.757 4.513 4.513 0 0 1-1.726 1.095c-.687.24-1.47.37-2.355.37-1.95 0-3.37-.45-4.253-1.33-.887-.89-1.33-2.29-1.33-4.2 0-.61.018-1.16.05-1.63.03-.48.05-.96.05-1.46 0-1.09-.01-2.06-.036-2.91a155.8 155.8 0 0 0-.08-2.15c.156.02.325.05.51.06.18.02.35.03.51.03.14 0 .28-.01.42-.03.133-.02.27-.05.42-.07-.03.28-.06.66-.08 1.12a104.126 104.126 0 0 0-.137 3.47c-.015.67-.02 1.38-.02 2.1 0 .44.006.9.02 1.38.01.47.06.93.134 1.38.08.45.21.88.38 1.29.18.41.43.77.76 1.07.33.3.74.54 1.23.72.5.17 1.11.26 1.84.26.72 0 1.32-.11 1.81-.32a3.44 3.44 0 0 0 1.2-.82c.32-.34.56-.73.74-1.17a6.6 6.6 0 0 0 .39-1.39c.08-.48.12-.96.14-1.45.01-.48.02-.92.02-1.33 0-1.85-.01-3.27-.02-4.28zm11.344 6.276c-1.69-1.815-3.38-3.62-5.07-5.416-.01.363-.03.85-.04 1.463a115.463 115.463 0 0 0-.01 3.513l.02 1.27.03 1.347a255.627 255.627 0 0 0 .08 2.294c.02.3.03.5.04.6a5.997 5.997 0 0 0-1.41 0c.03-.13.06-.37.09-.72s.06-.77.09-1.26l.09-1.59a90.29 90.29 0 0 0 .13-3.39c.02-.54.02-1.03.02-1.46 0-1.25 0-2.32-.01-3.22a41.612 41.612 0 0 0-.05-2.01h.32l2.55 2.77c.91.99 1.8 1.95 2.7 2.91.9.96 1.74 1.86 2.54 2.71.8.85 1.5 1.58 2.1 2.18v-2.66c0-1.36-.01-2.69-.03-3.99a88.88 88.88 0 0 0-.13-3.66c.26.07.49.1.67.1.16 0 .37-.03.63-.1-.03.28-.06.71-.09 1.29l-.1 1.83a182.3 182.3 0 0 0-.09 1.91c-.02.63-.04 1.13-.04 1.5v1.17c0 .45.01.91.01 1.39l.02 1.46.02 1.37c.01.43.01.79.01 1.11v.65h-.27a201.293 201.293 0 0 0-4.78-5.32zm9.03-5.815a243.8 243.8 0 0 0-.1-2.528c.5.024.99.05 1.48.067.48.02.98.03 1.47.03s.99-.016 1.48-.047c.49-.034.98-.05 1.47-.05 1.15 0 2.13.15 2.94.45.82.297 1.48.724 2 1.277.53.553.9 1.23 1.15 2.03.24.8.36 1.702.36 2.704 0 1.3-.23 2.398-.68 3.29-.44.892-1.02 1.61-1.71 2.156a6.46 6.46 0 0 1-2.3 1.163 9.306 9.306 0 0 1-2.41.34c-.44 0-.87-.006-1.3-.02a40.06 40.06 0 0 0-1.31-.02h-1.3c-.43 0-.87.013-1.31.04.04-.81.08-1.628.11-2.46.03-.832.05-1.678.05-2.54V8.472c0-.857-.02-1.7-.05-2.525zm1.77 10.02c.28.067.65.117 1.11.148.47.034.95.05 1.45.05.72 0 1.43-.086 2.15-.255a4.642 4.642 0 0 0 1.93-.955c.56-.47 1.03-1.11 1.39-1.924.36-.82.54-1.87.54-3.16 0-1.14-.14-2.07-.41-2.79-.28-.73-.66-1.31-1.15-1.73a4.09 4.09 0 0 0-1.74-.88 9.51 9.51 0 0 0-2.23-.25 23.638 23.638 0 0 0-3 .19c-.04.62-.07 1.28-.09 1.96a79.035 79.035 0 0 0-.03 2.08v3.35c0 1.4.04 2.78.12 4.14zm-287.45 13.44c-.01-1.004-.04-1.694-.1-2.07.15.025.28.05.41.07.13.02.26.025.39.025.17 0 .37-.03.59-.097a79.81 79.81 0 0 0-.21 3.66l-.08 2.226-.06 2.21c-.01.87-.14 1.65-.4 2.34a4.926 4.926 0 0 1-1.08 1.75c-.47.48-1.04.84-1.73 1.09-.68.25-1.46.37-2.35.37-1.95 0-3.37-.45-4.25-1.33-.89-.89-1.33-2.29-1.33-4.2 0-.61.02-1.16.05-1.63.03-.48.05-.96.05-1.45a95.72 95.72 0 0 0-.04-2.91 147.02 147.02 0 0 0-.08-2.15c.16.02.32.05.51.07.18.02.35.02.5.02.15 0 .29-.01.42-.03.14-.02.28-.05.42-.07-.02.28-.05.66-.07 1.12l-.08 1.57a80.965 80.965 0 0 0-.06 1.89c-.01.68-.01 1.38-.01 2.11 0 .44.01.9.02 1.37.01.48.06.94.14 1.39.08.45.2.88.38 1.29.17.4.43.77.75 1.07.33.31.74.55 1.23.72.5.17 1.11.26 1.84.26.72 0 1.32-.11 1.81-.31a3.42 3.42 0 0 0 1.2-.82 3.74 3.74 0 0 0 .74-1.18 6.57 6.57 0 0 0 .38-1.39c.08-.48.13-.97.14-1.45.01-.48.02-.92.02-1.33a343.21 343.21 0 0 0-.02-4.28zm11.34 6.275a1592.84 1592.84 0 0 0-5.07-5.418l-.04 1.463c-.01.612-.02 1.445-.02 2.5 0 .272.01.61.01 1.016l.02 1.27.03 1.35.04 1.27.04 1.03c.02.3.03.5.04.6a6.458 6.458 0 0 0-1.4 0c.03-.13.06-.37.09-.72.04-.35.06-.77.09-1.26l.09-1.59c.03-.57.06-1.14.08-1.71.02-.57.04-1.13.05-1.68.01-.55.02-1.03.02-1.46 0-1.25 0-2.32-.01-3.22a45.346 45.346 0 0 0-.05-2h.31c.8.86 1.65 1.78 2.55 2.76a548.8 548.8 0 0 0 2.69 2.91c.89.96 1.74 1.86 2.54 2.71.8.86 1.5 1.58 2.1 2.18V35c0-1.37-.01-2.7-.03-3.99a87.476 87.476 0 0 0-.13-3.66c.26.06.48.093.67.093.16 0 .36-.03.63-.097a36.61 36.61 0 0 0-.09 1.29c-.03.57-.06 1.18-.09 1.834l-.09 1.914c-.02.624-.04 1.125-.04 1.503v1.17c0 .44 0 .9.01 1.38l.02 1.453.02 1.365c.01.424.01.79.01 1.104V41h-.27a194.06 194.06 0 0 0-4.78-5.32zm9.03-5.818c-.03-.826-.07-1.668-.11-2.528.17.026.34.05.49.07a3.7 3.7 0 0 0 .47.026c.16 0 .32-.008.47-.027.16-.02.32-.043.49-.07-.04.86-.08 1.703-.11 2.53-.03.825-.05 1.668-.05 2.527v3.358c0 .857.02 1.703.05 2.537.03.833.07 1.652.11 2.458a11.54 11.54 0 0 0-.95-.038c-.33 0-.65.013-.95.038.04-.806.08-1.625.11-2.458.03-.834.05-1.68.05-2.537V32.39c0-.86-.01-1.702-.05-2.528zm8.35 8.11a442.01 442.01 0 0 0-1.37-3.415l-1.5-3.67a669.83 669.83 0 0 0-1.47-3.553c.18.026.36.05.53.07a4.38 4.38 0 0 0 .98 0c.17-.02.35-.044.53-.07.29.86.6 1.76.95 2.705.35.94.71 1.9 1.1 2.87.38.97.78 1.96 1.18 2.96.4 1 .82 2 1.23 2.98.24-.54.49-1.13.76-1.79a125.32 125.32 0 0 0 1.66-4.22l.79-2.12c.26-.68.49-1.31.7-1.9a76.03 76.03 0 0 0 .53-1.52c.28.07.53.1.72.1.19 0 .44-.03.72-.1a313.037 313.037 0 0 0-2.92 6.73 241.985 241.985 0 0 0-2.7 6.67 5.393 5.393 0 0 0-.64-.04c-.26 0-.47.01-.64.04-.3-.77-.66-1.69-1.09-2.77zm10.3-8.14a421.14 421.14 0 0 0-.11-2.5c.59.028 1.17.05 1.75.07.58.02 1.16.028 1.75.028.59 0 1.17-.008 1.74-.027.58-.02 1.16-.043 1.74-.07a2.922 2.922 0 0 0 0 1.173 62.733 62.733 0 0 1-1.14-.08l-1.09-.076c-.38-.026-.8-.05-1.26-.07a40.478 40.478 0 0 0-1.64-.026c-.01.415-.03.813-.05 1.19-.02.376-.03.805-.03 1.288 0 .508.01 1.003.01 1.483.01.48.01.844.01 1.093.57 0 1.09-.007 1.54-.02.46-.012.88-.03 1.25-.048.38-.02.73-.04 1.05-.06.32-.02.62-.042.91-.07a3.087 3.087 0 0 0 0 1.192c-.34-.04-.73-.07-1.18-.1-.45-.024-.9-.04-1.35-.046l-1.27-.02c-.4-.007-.71-.01-.95-.01 0 .118 0 .244-.01.382 0 .136-.01.31-.01.518v1.933c0 .74.01 1.35.01 1.83.01.48.02.84.03 1.09h1.37a38.335 38.335 0 0 0 2.8-.11c.42-.03.79-.08 1.1-.15a1.37 1.37 0 0 0-.05.3v.3c0 .2.02.37.06.5a40.916 40.916 0 0 0-1.75-.04h-3.54c-.58 0-1.18.01-1.78.04.04-.83.08-1.66.11-2.49a65.33 65.33 0 0 0 .05-2.53v-3.35a62.338 62.338 0 0 0-.04-2.54zm9.86.03c-.03-.826-.07-1.668-.11-2.528.38.026.75.05 1.11.07.37.02.74.026 1.11.026s.75-.016 1.12-.047a13.1 13.1 0 0 1 1.12-.05c.55 0 1.07.052 1.56.155a3.79 3.79 0 0 1 1.3.518c.37.242.67.558.88.947.22.392.32.88.32 1.464 0 .625-.14 1.162-.42 1.612a3.9 3.9 0 0 1-1.02 1.11 5.02 5.02 0 0 1-1.29.68c-.46.16-.88.27-1.26.32.16.19.37.47.64.82s.58.74.92 1.16c.34.42.69.86 1.06 1.32.37.46.72.9 1.06 1.32.34.42.66.81.96 1.16.3.35.54.61.72.8a4.64 4.64 0 0 0-.59-.04h-1.15c-.2 0-.39.01-.57.04-.19-.28-.49-.69-.89-1.23a91.157 91.157 0 0 0-2.79-3.63c-.5-.62-.96-1.14-1.37-1.57h-.74v1.43c0 .85.02 1.7.05 2.53.03.83.07 1.65.11 2.45-.3-.03-.62-.04-.95-.04-.34 0-.66.01-.96.04.04-.81.08-1.63.11-2.46.03-.84.05-1.68.05-2.54v-3.35c0-.86-.02-1.7-.05-2.53zm2.25 3.72c.22.013.45.02.71.02.41 0 .83-.046 1.26-.138.44-.09.84-.25 1.2-.48.37-.225.67-.532.91-.916.25-.384.36-.87.36-1.453 0-.51-.09-.928-.28-1.26a2.27 2.27 0 0 0-.73-.79c-.3-.194-.63-.33-.98-.4a5.16 5.16 0 0 0-1.03-.107c-.45 0-.83.01-1.13.03-.3.02-.55.04-.76.066l-.08 2.13c-.02.7-.04 1.404-.04 2.107v1.11c.19.05.39.07.6.08zm9.82 5.338a3.28 3.28 0 0 0 2.66 1.316c.43 0 .82-.073 1.17-.222.35-.15.64-.353.88-.605.24-.26.43-.56.56-.9.13-.35.2-.72.2-1.11 0-.6-.15-1.08-.46-1.43a3.81 3.81 0 0 0-1.15-.88c-.45-.24-.94-.45-1.47-.65a7.748 7.748 0 0 1-1.47-.73 3.95 3.95 0 0 1-1.14-1.12c-.3-.46-.46-1.07-.46-1.84 0-.55.1-1.05.3-1.5.2-.45.48-.84.85-1.16.37-.33.82-.58 1.34-.76.52-.19 1.11-.27 1.76-.27.63 0 1.16.07 1.62.22.46.15.88.38 1.27.69a4.305 4.305 0 0 0-.29.7 9.647 9.647 0 0 0-.23.93h-.23a5.126 5.126 0 0 0-.26-.6 2.274 2.274 0 0 0-.45-.6 2.513 2.513 0 0 0-.68-.46c-.26-.12-.57-.19-.94-.19-.36 0-.7.06-1 .18a2.372 2.372 0 0 0-.8.49 2.223 2.223 0 0 0-.53.77c-.12.3-.18.63-.18.98 0 .61.15 1.09.46 1.44.3.35.68.65 1.14.89.46.24.95.46 1.47.65a8.3 8.3 0 0 1 1.47.69c.46.27.84.62 1.14 1.05.31.43.46 1 .46 1.72 0 .59-.11 1.16-.32 1.69-.21.53-.53 1-.93 1.4-.41.39-.91.7-1.5.92-.596.21-1.27.32-2.02.32-.81 0-1.46-.11-1.965-.32-.5-.22-.92-.46-1.26-.73.12-.3.2-.58.25-.82.044-.24.09-.55.13-.93h.23c.1.23.24.47.42.71zm9.82-9.058c-.03-.826-.07-1.668-.11-2.528.17.026.33.05.49.07.16.018.32.026.47.026.16 0 .32-.008.47-.027.16-.02.32-.043.49-.07-.04.86-.07 1.703-.1 2.53-.03.825-.05 1.668-.05 2.527v3.358c0 .857.02 1.703.05 2.537.04.833.07 1.652.11 2.458-.3-.025-.62-.038-.95-.038-.34 0-.66.013-.95.038.04-.806.07-1.625.11-2.458.03-.834.05-1.68.05-2.537V32.39c-.01-.86-.02-1.702-.05-2.528zm8.23-1.512a41.008 41.008 0 0 0-2.17.048c-.37.02-.73.043-1.07.07-.34.024-.65.058-.92.097.07-.235.1-.442.1-.625a2.75 2.75 0 0 0-.1-.605c.86.026 1.7.05 2.52.07.82.02 1.66.026 2.52.026.86 0 1.7 0 2.52-.02.82-.02 1.66-.04 2.52-.07-.06.26-.1.47-.1.63 0 .17.04.37.1.61-.27-.04-.58-.07-.93-.1a37.783 37.783 0 0 0-3.25-.11c-.04 1.34-.06 2.69-.06 4.04v3.36c0 .86.02 1.71.05 2.54.03.84.07 1.66.11 2.46-.3-.02-.62-.04-.96-.04-.34 0-.66.02-.96.04.04-.8.08-1.62.11-2.46.03-.83.05-1.68.05-2.53V32.4c0-1.355-.02-2.703-.06-4.04zm14.21 1.18l1.11 2.664a330.74 330.74 0 0 0 3.09 7.185c.27.59.49 1.05.66 1.36a3.818 3.818 0 0 0-.52-.04h-1.03c-.16 0-.33.01-.51.04-.09-.3-.21-.66-.37-1.09a41.66 41.66 0 0 0-.52-1.33c-.18-.46-.38-.93-.57-1.4-.19-.48-.38-.93-.55-1.36a79.076 79.076 0 0 0-4.94 0 89.79 89.79 0 0 0-1.13 2.9c-.34.92-.59 1.68-.76 2.27a6.464 6.464 0 0 0-.73-.04c-.26 0-.5.01-.72.03 1.06-2.28 2.09-4.54 3.09-6.79s2.01-4.54 3.02-6.87h.37c.32.75.66 1.57 1.02 2.45zm-3.94-5.318a.953.953 0 0 1 .7-.294c.28 0 .51.098.7.294.19.193.29.43.29.702a.95.95 0 0 1-.29.7.95.95 0 0 1-.7.295.95.95 0 0 1-.7-.3.95.95 0 0 1-.29-.7c0-.28.1-.51.29-.71zm.16 10.462c.33 0 .68.006 1.05.02.36.012.72.02 1.05.02.37 0 .73-.004 1.1-.01.37-.008.73-.016 1.1-.03l-2.16-4.957-2.13 4.957zm3.69-10.462a.953.953 0 0 1 .7-.294c.27 0 .51.098.7.294.2.193.29.43.29.702a.953.953 0 0 1-.29.7.953.953 0 0 1-.7.295.95.95 0 0 1-.7-.3.946.946 0 0 1-.29-.7c0-.28.1-.51.29-.71zm9.95 4.138a41.152 41.152 0 0 0-2.17.048c-.37.02-.73.043-1.07.07-.35.024-.66.058-.93.097.07-.235.1-.442.1-.625 0-.143-.03-.346-.1-.605.86.026 1.7.05 2.52.07.82.018 1.66.026 2.52.026.86 0 1.7 0 2.52-.02.82-.02 1.66-.04 2.52-.07a2.85 2.85 0 0 0-.1.63c0 .17.03.37.1.61-.27-.04-.58-.07-.93-.1a37.356 37.356 0 0 0-2.18-.1c-.37 0-.72-.01-1.06-.01-.04 1.34-.06 2.69-.06 4.04v3.36c0 .86.02 1.7.05 2.54.03.83.07 1.65.11 2.46a11.48 11.48 0 0 0-.95-.04c-.34 0-.66.02-.96.04.04-.8.08-1.62.11-2.46.03-.83.05-1.68.05-2.54V32.4c0-1.354-.02-2.7-.06-4.04zM256 38.92a3.234 3.234 0 0 0 1.535 1.13c.337.126.714.187 1.13.187.43 0 .817-.074 1.163-.223.344-.15.637-.353.878-.605a2.7 2.7 0 0 0 .556-.9 3.08 3.08 0 0 0 .194-1.11c0-.6-.15-1.08-.458-1.43a3.788 3.788 0 0 0-1.14-.88c-.456-.24-.948-.45-1.475-.65a7.765 7.765 0 0 1-1.475-.73 3.947 3.947 0 0 1-1.14-1.12c-.308-.46-.46-1.07-.46-1.84 0-.55.098-1.05.292-1.5.194-.45.48-.84.85-1.16a4.02 4.02 0 0 1 1.336-.76c.52-.19 1.106-.27 1.758-.27.625 0 1.164.07 1.62.22.455.15.878.38 1.27.69a4.308 4.308 0 0 0-.294.7 9.914 9.914 0 0 0-.235.93h-.233a4.96 4.96 0 0 0-.263-.6 2.274 2.274 0 0 0-.45-.6 2.508 2.508 0 0 0-.68-.46 2.185 2.185 0 0 0-.94-.19c-.37 0-.7.06-1.01.18a2.363 2.363 0 0 0-.8.49c-.23.21-.41.47-.53.77-.13.3-.19.63-.19.98 0 .61.15 1.09.46 1.44.3.35.68.65 1.14.89.45.24.94.46 1.47.65s1.02.42 1.47.69c.45.27.83.62 1.14 1.05.3.43.46 1 .46 1.72a4.5 4.5 0 0 1-.33 1.69c-.22.53-.53 1-.94 1.4-.41.39-.91.7-1.5.92-.6.21-1.27.32-2.02.32-.81 0-1.46-.11-1.96-.32-.51-.22-.93-.46-1.26-.73.11-.3.19-.58.24-.82.04-.24.09-.55.13-.93h.23c.1.23.24.47.42.71zm9.82-9.087c-.032-.832-.068-1.666-.108-2.5.338.027.683.05 1.035.07.352.02.695.027 1.034.027.34 0 .69-.016 1.04-.047.35-.03.7-.05 1.04-.05.56 0 1.09.043 1.59.126.5.08.93.23 1.31.45.38.21.68.5.9.86.22.36.33.82.33 1.36 0 .96-.3 1.72-.9 2.26-.6.54-1.39.93-2.37 1.15v.04c1.16.05 2.08.33 2.75.83.67.51 1.01 1.32 1.01 2.44 0 .73-.15 1.34-.45 1.83-.3.49-.69.89-1.17 1.2a4.86 4.86 0 0 1-1.59.64 8.228 8.228 0 0 1-1.73.19c-.31 0-.63-.01-.95-.02-.32-.01-.63-.02-.95-.02h-.94c-.32 0-.64.01-.95.04.04-.83.07-1.66.1-2.49.04-.83.05-1.67.05-2.53v-3.35c0-.86-.01-1.71-.05-2.54zm4.06 3.356a3.66 3.66 0 0 0 1.2-.46c.353-.22.635-.5.85-.86.214-.36.32-.81.32-1.36 0-.54-.096-.96-.292-1.28a2.117 2.117 0 0 0-.74-.74 2.88 2.88 0 0 0-1.017-.35 7.29 7.29 0 0 0-1.13-.09 10.45 10.45 0 0 0-1.48.09l-.08 1.86c-.02.61-.04 1.23-.04 1.85v1.46h1.06c.46 0 .91-.05 1.36-.14zm-2.372 4.82c.024.65.05 1.31.078 1.97.247.02.54.05.877.06.34.02.684.03 1.036.03.41 0 .81-.07 1.2-.22a2.83 2.83 0 0 0 1-.64c.28-.28.51-.63.68-1.04.17-.41.25-.88.25-1.4 0-.56-.1-1.02-.31-1.38a2.148 2.148 0 0 0-.87-.84c-.38-.2-.83-.34-1.36-.42a12.402 12.402 0 0 0-1.77-.12h-.88V36c0 .667.01 1.32.04 1.977zm10.335-8.15a385.02 385.02 0 0 0-.108-2.53c.17.02.332.05.49.07.155.02.312.02.467.02.156 0 .313-.01.47-.03.157-.02.318-.05.487-.07-.04.86-.08 1.7-.11 2.53-.03.82-.05 1.66-.05 2.52v3.35c0 .85.01 1.7.05 2.53.03.83.07 1.65.1 2.46a11.52 11.52 0 0 0-.96-.04c-.34 0-.66.01-.96.04.04-.81.07-1.63.1-2.46.03-.84.05-1.68.05-2.54v-3.35c0-.86-.02-1.71-.05-2.53zm5.525-.03c-.032-.83-.07-1.67-.108-2.5.34.03.684.05 1.035.07.35.02.696.03 1.035.03.338 0 .682-.02 1.034-.05.352-.03.696-.05 1.033-.05.56 0 1.088.04 1.582.12.49.08.93.23 1.3.45.37.21.67.5.89.86.22.36.33.82.33 1.36 0 .96-.3 1.71-.91 2.26-.61.54-1.4.93-2.38 1.15v.04c1.15.05 2.07.33 2.74.84.67.5 1 1.32 1 2.44 0 .73-.15 1.34-.45 1.83-.3.49-.69.89-1.17 1.2a4.86 4.86 0 0 1-1.59.64 8.228 8.228 0 0 1-1.73.18c-.31 0-.63-.01-.95-.02-.32-.01-.63-.02-.95-.02h-.95c-.32 0-.64.01-.95.04.04-.84.07-1.66.11-2.49.03-.83.05-1.67.05-2.53v-3.35c0-.86-.02-1.71-.05-2.54zm4.06 3.35c.448-.09.848-.25 1.2-.46.35-.22.634-.5.85-.86.213-.36.322-.81.322-1.36 0-.54-.1-.96-.294-1.28a2.12 2.12 0 0 0-.74-.74c-.3-.18-.64-.29-1.017-.35a7.316 7.316 0 0 0-1.14-.09 10.4 10.4 0 0 0-1.49.09c-.03.62-.06 1.24-.08 1.85-.03.61-.04 1.23-.04 1.85v1.47h1.05c.45 0 .9-.05 1.35-.14zM285.056 38c.024.65.05 1.307.078 1.97.248.026.538.05.877.067.34.022.69.03 1.04.03.42 0 .82-.07 1.2-.214.39-.143.72-.354 1.01-.634.29-.28.52-.63.69-1.04.17-.41.26-.88.26-1.4 0-.56-.1-1.02-.3-1.37a2.155 2.155 0 0 0-.86-.84c-.38-.2-.83-.34-1.36-.42a12.442 12.442 0 0 0-1.76-.12h-.87v1.99c0 .66.02 1.32.04 1.97zm10.336-8.15c-.034-.827-.07-1.67-.108-2.53.17.027.332.05.487.07.16.02.32.027.47.027.16 0 .32-.008.47-.027.16-.02.32-.042.49-.07-.04.86-.07 1.704-.1 2.53-.03.826-.05 1.67-.05 2.528 0 1.64.01 3.064.02 4.266.01 1.204.03 2.28.04 3.23.93 0 1.81-.01 2.66-.028.85-.02 1.76-.097 2.74-.228a2.23 2.23 0 0 0-.1.586c0 .142.03.32.1.525-.6-.03-1.2-.04-1.79-.04h-3.6c-.58 0-1.18.01-1.8.04.04-.81.08-1.63.11-2.46.04-.84.05-1.68.05-2.54v-3.36c0-.86-.01-1.7-.04-2.53zm9.858 0c-.033-.827-.07-1.67-.11-2.53.17.027.334.05.49.07a3.7 3.7 0 0 0 .47.027c.154 0 .312-.008.468-.027.156-.02.318-.042.488-.07-.04.86-.075 1.704-.11 2.53-.03.826-.047 1.67-.047 2.528v3.36c0 .857.01 1.703.04 2.537.03.833.07 1.652.11 2.46-.3-.025-.62-.038-.96-.038-.34 0-.66.012-.96.037.04-.803.07-1.622.11-2.455.03-.84.05-1.68.05-2.54v-3.35c0-.86-.02-1.71-.05-2.53zm5.015 1.247a6.156 6.156 0 0 1 1.503-2.195 6.485 6.485 0 0 1 2.313-1.368c.9-.313 1.88-.467 2.95-.467 1.08 0 2.07.155 2.97.467.9.313 1.67.77 2.32 1.367.65.6 1.15 1.33 1.51 2.2.36.87.54 1.85.54 2.96s-.18 2.09-.54 2.96a6.152 6.152 0 0 1-1.5 2.2c-.64.6-1.41 1.05-2.31 1.34-.89.29-1.88.44-2.96.44-1.06 0-2.05-.14-2.94-.44-.9-.29-1.67-.73-2.31-1.33a6.173 6.173 0 0 1-1.5-2.19c-.35-.86-.53-1.85-.53-2.96 0-1.1.18-2.09.54-2.95zm11.76.157c-.273-.785-.65-1.436-1.14-1.95a4.58 4.58 0 0 0-1.72-1.143 6.05 6.05 0 0 0-2.137-.37c-.755 0-1.46.13-2.117.37a4.544 4.544 0 0 0-1.71 1.15c-.49.52-.87 1.17-1.14 1.95-.27.79-.41 1.73-.41 2.81s.14 2.02.41 2.8c.28.79.66 1.44 1.15 1.95a4.51 4.51 0 0 0 1.72 1.15 5.92 5.92 0 0 0 2.12.37c.77 0 1.48-.12 2.14-.37a4.522 4.522 0 0 0 1.72-1.14c.49-.51.87-1.16 1.14-1.95.28-.79.41-1.72.41-2.8 0-1.08-.13-2.01-.41-2.8zm7.087-2.917a41.226 41.226 0 0 0-2.176.05c-.372.02-.73.044-1.074.07-.344.025-.653.06-.927.098a2.41 2.41 0 0 0 .097-.627c0-.14-.032-.343-.097-.602.858.025 1.697.05 2.518.07.82.02 1.658.025 2.518.025.86 0 1.7 0 2.52-.02.82-.02 1.66-.04 2.52-.07-.06.26-.09.47-.09.63 0 .17.04.37.1.61-.27-.04-.58-.07-.92-.09a37.677 37.677 0 0 0-2.18-.11 65.72 65.72 0 0 0-1.06-.01 146.3 146.3 0 0 0-.06 4.04v3.36c0 .86.02 1.7.05 2.54.04.84.07 1.66.11 2.46a11.48 11.48 0 0 0-.95-.04c-.33 0-.65.02-.95.04.04-.8.08-1.62.11-2.46.03-.83.05-1.68.05-2.53V32.4c0-1.356-.02-2.704-.06-4.04zm18.008 1.514a384.07 384.07 0 0 0-.107-2.53c.168.03.332.05.485.07.158.02.315.03.47.03.157 0 .312 0 .47-.02.157-.02.32-.04.488-.07-.04.86-.076 1.71-.108 2.53-.032.83-.048 1.67-.048 2.53v3.36c0 .86.016 1.71.048 2.54.032.83.067 1.65.108 2.46-.3-.02-.62-.03-.957-.03-.34 0-.66.01-.96.04.04-.81.07-1.63.1-2.46.03-.83.04-1.68.04-2.54V34c-.71-.013-1.39-.024-2.04-.028a167.81 167.81 0 0 0-4.08 0c-.66.004-1.34.016-2.04.03v1.756c0 .856.01 1.7.04 2.536.03.834.07 1.65.11 2.46-.3-.026-.62-.04-.96-.04-.34 0-.66.013-.96.038.04-.806.07-1.625.11-2.458.03-.836.04-1.68.04-2.54v-3.36c0-.86-.02-1.7-.05-2.53-.04-.822-.07-1.664-.11-2.524.17.026.33.05.49.07.15.02.31.026.47.026.15 0 .31-.01.47-.027.15-.02.32-.05.49-.07-.04.86-.07 1.7-.1 2.53-.04.82-.05 1.67-.05 2.52v.68l2.04.04c.65.01 1.33.02 2.04.02.7 0 1.38-.01 2.04-.02l2.03-.04v-.69c0-.86-.02-1.7-.05-2.53zm5.524-.03c-.032-.83-.07-1.66-.108-2.5.587.03 1.168.05 1.747.07.58.02 1.162.03 1.747.03.586 0 1.165 0 1.737-.02.573-.02 1.152-.04 1.738-.07a3 3 0 0 0-.06.59c0 .2.02.39.06.59a62.585 62.585 0 0 1-1.142-.08l-1.095-.07c-.384-.02-.803-.05-1.258-.07a40.517 40.517 0 0 0-1.64-.02c-.014.42-.03.81-.05 1.19a23.7 23.7 0 0 0-.027 1.29c0 .51.002 1 .008 1.48.01.48.01.85.01 1.09.58 0 1.09-.01 1.55-.02.46-.01.87-.03 1.25-.05.38-.02.73-.04 1.05-.06.32-.02.62-.04.91-.07a3.087 3.087 0 0 0 0 1.19c-.34-.04-.73-.07-1.18-.1-.45-.02-.9-.04-1.35-.04l-1.27-.02a65.8 65.8 0 0 0-.94-.01c0 .12 0 .25-.01.39v2.45c0 .74.01 1.35.01 1.84.01.48.02.84.03 1.09h1.37a37.695 37.695 0 0 0 2.81-.11c.42-.03.79-.08 1.1-.14-.02.09-.04.19-.04.3a5.76 5.76 0 0 0-.01.31c0 .21.02.38.06.51a41.023 41.023 0 0 0-1.75-.04h-3.54c-.58 0-1.17.02-1.77.04.04-.83.08-1.66.11-2.49.03-.82.05-1.67.05-2.53V32.4a62.338 62.338 0 0 0-.04-2.54zm9.856 8.46c.035-.83.05-1.68.05-2.54v-3.36c0-.86-.015-1.7-.05-2.52-.03-.82-.066-1.67-.105-2.53.17.03.33.05.488.07.155.02.312.03.467.03.157 0 .314 0 .47-.02.156-.02.32-.04.488-.07-.038.86-.075 1.71-.108 2.53a67.42 67.42 0 0 0-.047 2.53v1.08c0 .1.037.15.117.15.05 0 .142-.06.272-.17.454-.39.933-.83 1.434-1.33a70.67 70.67 0 0 0 3.016-3.17c.494-.55.968-1.09 1.424-1.61.145.03.28.05.41.07.13.02.26.03.392.03.155 0 .31-.01.467-.02.157-.02.313-.04.47-.07-.456.4-.97.86-1.544 1.39a149.66 149.66 0 0 0-1.72 1.64 89.48 89.48 0 0 0-1.66 1.65 34.09 34.09 0 0 0-1.31 1.42 464.413 464.413 0 0 1 3.19 3.62 376.305 376.305 0 0 0 3.27 3.7 4.608 4.608 0 0 0-.58-.04h-1.12c-.17 0-.35.01-.53.04a69.01 69.01 0 0 1-1.55-1.83c-.57-.69-1.12-1.36-1.66-2-.54-.65-1.03-1.23-1.46-1.74-.43-.52-.76-.88-.96-1.09-.1-.1-.18-.15-.23-.15-.06 0-.09.04-.09.12v1.7c0 .86.02 1.7.05 2.54.03.84.07 1.66.11 2.46-.3-.02-.62-.03-.96-.03-.34 0-.66.01-.96.04.04-.8.08-1.62.11-2.45zM390.55 29a5.395 5.395 0 0 0-.976-.613 6.208 6.208 0 0 0-1.19-.43c-.435-.11-.9-.165-1.395-.165-.81 0-1.57.127-2.26.37a4.81 4.81 0 0 0-1.82 1.146c-.52.516-.92 1.166-1.21 1.95-.3.79-.44 1.724-.44 2.803 0 .95.13 1.81.39 2.58s.64 1.42 1.14 1.94c.5.53 1.11.94 1.83 1.22.72.29 1.54.43 2.45.43.27 0 .56-.01.85-.04.3-.02.59-.06.87-.11s.54-.11.78-.19.44-.17.61-.27c.01-.39.02-.78.02-1.17 0-.39.01-.78.01-1.19 0-.45-.01-.91-.03-1.36a56.32 56.32 0 0 0-.07-1.31c.32.07.64.1.94.1.14 0 .29 0 .43-.02.14-.01.28-.03.41-.07a25.49 25.49 0 0 0-.06 1.42c-.01.64-.02 1.49-.02 2.55 0 .26 0 .52.01.79 0 .27.01.53.01.79-.27.1-.61.21-1.03.32-.41.11-.84.21-1.31.28a47.09 47.09 0 0 1-1.39.19c-.46.06-.88.09-1.26.09-1.16 0-2.2-.14-3.13-.42-.93-.28-1.72-.71-2.37-1.3a5.85 5.85 0 0 1-1.51-2.19c-.35-.87-.53-1.88-.53-3.02 0-1.1.18-2.09.55-2.95a6.098 6.098 0 0 1 1.54-2.2c.66-.6 1.47-1.06 2.41-1.37.94-.31 1.98-.47 3.13-.47.66 0 1.25.04 1.76.11s.97.17 1.37.28c.4.12.75.24 1.05.37.3.13.56.25.8.37-.11.19-.2.42-.28.7-.09.29-.14.56-.17.8h-.24a5.075 5.075 0 0 0-.74-.7zm4.277 2.1a6.177 6.177 0 0 1 1.5-2.195 6.488 6.488 0 0 1 2.314-1.368c.9-.312 1.88-.466 2.95-.466 1.08 0 2.07.16 2.97.47.9.32 1.67.77 2.31 1.37.65.6 1.15 1.33 1.51 2.2.36.87.54 1.85.54 2.96s-.18 2.09-.53 2.96a6.13 6.13 0 0 1-1.5 2.2c-.64.6-1.41 1.04-2.31 1.34-.9.29-1.89.44-2.96.44s-2.05-.14-2.95-.44c-.89-.29-1.66-.73-2.31-1.33a6.18 6.18 0 0 1-1.5-2.19c-.36-.86-.54-1.85-.54-2.96 0-1.1.18-2.09.54-2.95zm11.76.157c-.273-.784-.653-1.435-1.143-1.95a4.553 4.553 0 0 0-1.716-1.142 6.05 6.05 0 0 0-2.138-.37c-.757 0-1.46.123-2.12.37a4.54 4.54 0 0 0-1.716 1.142c-.488.515-.87 1.165-1.143 1.95-.27.788-.41 1.723-.41 2.802 0 1.07.14 2.01.41 2.8.28.78.66 1.44 1.15 1.95.49.51 1.06.89 1.72 1.14.66.25 1.37.37 2.12.37.77 0 1.48-.12 2.14-.37a4.515 4.515 0 0 0 1.72-1.14c.49-.51.87-1.16 1.14-1.95.28-.79.41-1.73.41-2.8 0-1.08-.13-2.02-.41-2.8zm-7.614-7.054a.963.963 0 0 1 .704-.294c.273 0 .507.09.702.29.19.19.29.43.29.7a.957.957 0 0 1-.29.7.95.95 0 0 1-.71.29.96.96 0 0 1-.71-.3.956.956 0 0 1-.29-.7c0-.27.09-.51.29-.7zm3.845 0a.962.962 0 0 1 .705-.294c.272 0 .507.09.7.29.198.19.295.43.295.7a.947.947 0 0 1-.294.7.95.95 0 0 1-.7.29.958.958 0 0 1-.706-.3.957.957 0 0 1-.292-.7c0-.27.098-.51.292-.7zm11.577 4.138a41.148 41.148 0 0 0-2.175.05c-.37.02-.73.05-1.075.07-.345.03-.652.06-.926.1a2.46 2.46 0 0 0 .09-.62 2.75 2.75 0 0 0-.1-.6c.85.03 1.69.05 2.51.07.82.02 1.66.03 2.51.03.86 0 1.7-.01 2.52-.03.82-.02 1.65-.04 2.52-.07-.07.26-.1.47-.1.63 0 .17.03.37.1.61a14.16 14.16 0 0 0-.93-.1 37.783 37.783 0 0 0-3.25-.11c-.04 1.34-.06 2.69-.06 4.04v3.36c0 .86.02 1.71.05 2.54.03.83.07 1.65.11 2.46-.3-.02-.62-.04-.96-.04-.34 0-.66.02-.96.04.04-.8.07-1.62.1-2.46.03-.83.05-1.68.05-2.53V32.4a146.157 146.157 0 0 0-.06-4.04zm10.95 0a41.37 41.37 0 0 0-2.177.05c-.37.02-.728.05-1.07.07-.346.03-.655.06-.93.1.066-.23.098-.44.098-.62 0-.14-.03-.34-.097-.6.86.03 1.69.05 2.51.07.82.02 1.66.03 2.52.03.85 0 1.69-.01 2.51-.03.82-.02 1.66-.04 2.51-.07-.07.26-.1.47-.1.63 0 .17.03.37.09.61-.27-.04-.58-.07-.92-.1a37.32 37.32 0 0 0-2.19-.1 65.72 65.72 0 0 0-1.07-.01 146.3 146.3 0 0 0-.06 4.04v3.36c0 .85.02 1.7.05 2.53.03.84.06 1.65.1 2.46a11.436 11.436 0 0 0-.96-.04c-.34 0-.66.01-.96.04l.1-2.46c.03-.83.05-1.68.05-2.54V32.4c0-1.353-.03-2.7-.06-4.04zm8.247 1.52c-.03-.82-.068-1.67-.106-2.53.17.03.332.05.488.07.155.02.312.03.467.03.16 0 .32 0 .47-.02.16-.02.32-.04.49-.07-.04.86-.07 1.71-.11 2.53-.03.83-.04 1.67-.04 2.53v3.36c0 .86.02 1.71.05 2.54.04.83.07 1.65.11 2.46-.3-.02-.62-.03-.96-.03-.33 0-.65.01-.95.04.04-.8.08-1.62.11-2.46.04-.83.05-1.68.05-2.54V32.4c0-.86-.01-1.7-.05-2.53zm11.78 5.82c-1.69-1.81-3.38-3.62-5.074-5.41-.012.37-.025.86-.04 1.47-.013.61-.02 1.45-.02 2.5 0 .27.005.61.013 1.02.01.41.01.83.02 1.27l.03 1.35.04 1.27c.01.39.03.73.04 1.02.02.3.03.49.04.6a6.45 6.45 0 0 0-1.4 0c.03-.13.06-.37.09-.72s.06-.77.09-1.26l.09-1.59c.04-.57.06-1.14.08-1.72a115.398 115.398 0 0 0 .07-3.14c0-1.25 0-2.32-.01-3.22a40.505 40.505 0 0 0-.05-2h.32l2.55 2.76c.91.98 1.8 1.95 2.7 2.91.89.95 1.74 1.86 2.54 2.71.8.85 1.5 1.58 2.1 2.18V35c0-1.37-.01-2.7-.02-3.99a89.014 89.014 0 0 0-.13-3.66c.27.06.49.093.67.093.16 0 .37-.03.63-.096l-.09 1.29a269.623 269.623 0 0 0-.18 3.75c-.03.62-.04 1.12-.04 1.5v1.17c0 .44.01.903.01 1.39l.02 1.45c.01.483.01.94.02 1.364.01.42.01.79.01 1.1V41h-.27a192.434 192.434 0 0 0-4.78-5.32zm19.532-6.66a5.44 5.44 0 0 0-.978-.61 6.208 6.208 0 0 0-1.19-.43 5.63 5.63 0 0 0-1.396-.16c-.808 0-1.56.13-2.255.37-.695.25-1.3.63-1.815 1.15-.515.52-.916 1.17-1.21 1.95-.293.79-.44 1.72-.44 2.8 0 .95.13 1.81.39 2.58s.643 1.41 1.144 1.94c.5.53 1.112.93 1.835 1.22.72.29 1.53.43 2.45.43.27 0 .56-.02.85-.04.3-.03.59-.06.87-.12.28-.05.54-.11.78-.19s.44-.17.61-.27l.03-1.17v-1.19c0-.45-.01-.91-.03-1.36-.02-.46-.04-.89-.07-1.31.32.07.64.1.93.1.14 0 .29-.01.43-.02s.28-.04.41-.07c-.03.3-.05.77-.06 1.42-.01.64-.02 1.49-.02 2.54 0 .26 0 .53.01.79v.79a11.864 11.864 0 0 1-2.33.6 47.09 47.09 0 0 1-1.39.19c-.46.06-.89.09-1.26.09-1.16 0-2.2-.14-3.13-.42-.93-.28-1.72-.71-2.37-1.3a5.85 5.85 0 0 1-1.51-2.19c-.35-.87-.53-1.88-.53-3.02 0-1.1.18-2.09.55-2.95a6.125 6.125 0 0 1 1.54-2.19c.66-.6 1.46-1.05 2.41-1.37.94-.31 1.98-.46 3.13-.46.67 0 1.25.04 1.77.11.51.07.97.17 1.36.28.4.12.75.24 1.05.37.3.13.57.25.8.37-.1.18-.2.42-.28.7-.08.29-.14.56-.17.8h-.24a5.106 5.106 0 0 0-.73-.7zm4.78.82c-.03-.83-.07-1.66-.107-2.5.587.03 1.17.05 1.748.07.58.02 1.162.03 1.747.03.585 0 1.165-.01 1.736-.03.573-.02 1.153-.04 1.738-.07a2.997 2.997 0 0 0 0 1.17 64.01 64.01 0 0 1-1.143-.08l-1.093-.07c-.384-.02-.804-.05-1.26-.07a40.41 40.41 0 0 0-1.64-.02c-.013.42-.028.82-.05 1.19a27.42 27.42 0 0 0-.026 1.29c0 .51.003 1 .01 1.48.006.48.01.85.01 1.1.572 0 1.084 0 1.54-.02.456-.01.87-.03 1.25-.05.38-.02.726-.04 1.045-.06.31-.02.62-.04.9-.07-.04.2-.06.4-.06.61 0 .2.02.39.06.59-.34-.04-.73-.07-1.18-.1-.45-.02-.9-.04-1.35-.04l-1.27-.02c-.4 0-.72-.01-.95-.01 0 .12-.01.25-.01.38-.01.14-.01.31-.01.52V37c0 .74 0 1.35.01 1.834 0 .48.01.844.03 1.09h1.36a37.71 37.71 0 0 0 2.8-.11c.42-.03.79-.08 1.1-.14-.03.09-.05.19-.05.3a4.27 4.27 0 0 0-.02.3c0 .21.02.38.06.51a40.87 40.87 0 0 0-1.75-.04h-3.54c-.59 0-1.18.014-1.78.04.04-.83.07-1.66.11-2.485.03-.83.05-1.67.05-2.53V32.4a64.196 64.196 0 0 0-.05-2.54zm16.116 5.85c-1.69-1.81-3.384-3.62-5.074-5.41-.014.37-.025.86-.04 1.47a116.626 116.626 0 0 0-.01 3.52l.02 1.27a174.99 174.99 0 0 0 .108 3.64c.015.3.024.5.038.6a6.49 6.49 0 0 0-1.407 0c.027-.13.057-.37.09-.72.032-.35.062-.77.087-1.26l.088-1.59c.03-.57.06-1.14.078-1.72.02-.57.037-1.13.05-1.68.013-.55.02-1.03.02-1.46 0-1.25-.003-2.32-.01-3.22a40.505 40.505 0 0 0-.05-2.01h.312l2.55 2.76c.902.99 1.8 1.96 2.692 2.91.893.96 1.736 1.86 2.538 2.71.8.86 1.5 1.58 2.097 2.18V35c0-1.367-.008-2.697-.03-3.99a85.798 85.798 0 0 0-.125-3.66c.26.063.48.095.664.095.155 0 .365-.03.625-.096a34.78 34.78 0 0 0-.09 1.29l-.09 1.83-.09 1.91a37.618 37.618 0 0 0-.04 1.5v1.17c0 .44 0 .9.01 1.38.01.48.01.96.02 1.45.01.48.01.94.02 1.36.01.42.01.79.01 1.1V41h-.27a189.183 189.183 0 0 0-4.78-5.32zM115.4 3.07v37.952h-1.01V3.07zM76.19 26.946v8.74h9.018c.373 0 .73-.02 1.073-.06a5.236 5.236 0 0 1-2.15 2.1c-.93.483-2.04.725-3.34.725h-9.01v-11.5h4.42zm0-15.984v8.065h8.474c.413 0 .812-.02 1.19-.067a4.43 4.43 0 0 1-1.106 1.406c-1.104.95-2.608 1.426-4.507 1.426h-8.47v-10.83h4.42zm14.907 16.4c-.202-.275-.41-.54-.628-.784-.48-.692-1.13-1.248-1.95-1.668-.53-.313-1-.544-1.5-.735.89-.345 1.73-.89 2.51-1.63.78-.76 1.4-1.685 1.86-2.774.48-1.1.72-2.3.72-3.6 0-2.09-.47-3.91-1.4-5.46-.92-1.57-2.25-2.77-3.99-3.6-1.72-.84-3.72-1.26-6-1.26H70.44V3.07h14.715c2.28 0 4.284.422 6.012 1.27 1.74.83 3.07 2.03 3.986 3.6.934 1.556 1.4 3.378 1.4 5.465 0 1.296-.242 2.498-.725 3.6-.465 1.09-1.087 2.014-1.865 2.774-.776.74-1.614 1.28-2.514 1.63 1.62.62 2.97 1.68 4.06 3.18 1.09 1.5 1.63 3.36 1.63 5.57 0 2.28-.49 4.22-1.45 5.83-.96 1.59-2.3 2.79-4.04 3.62-.46.22-.94.4-1.43.56.39-.44.74-.91 1.05-1.43.96-1.61 1.45-3.55 1.45-5.83 0-2.21-.54-4.07-1.63-5.57zM23.97 5.652c.574.415 1.135.876 1.677 1.382l-3.68 3.626c-.76-.742-1.57-1.32-2.432-1.734a10.18 10.18 0 0 0-2.696-.907c-.94-.19-1.97-.29-3.09-.29-1.11 0-2.1.15-2.97.45a5.32 5.32 0 0 1 .56-1.28c.55-.9 1.34-1.6 2.38-2.1 1.04-.5 2.27-.76 3.71-.76 1.12 0 2.15.09 3.08.28a10.1 10.1 0 0 1 2.69.9c.25.12.51.26.75.41zM21.11 31.75c.122-.474.184-.984.184-1.53 0-1.71-.5-3.013-1.5-3.91a4.384 4.384 0 0 0-1.583-1.01c-.58-.243-1.43-.44-2.53-.597l-4.46-.622c-3.07-.43-5.46-1.44-7.17-3.03-1.83-1.71-2.74-4.11-2.74-7.2 0-2.19.51-4.12 1.53-5.8.87-1.42 2.04-2.56 3.54-3.44C5.46 6.23 5 8.08 5 10.17c0 3.09.914 5.5 2.746 7.2 1.71 1.59 4.1 2.6 7.175 3.03l4.46.62c1.11.16 1.96.36 2.54.6.61.22 1.13.56 1.58 1.01 1 .9 1.51 2.2 1.51 3.91 0 1.83-.69 3.26-2.07 4.28-.52.39-1.12.7-1.79.94zM0 36.18l3.708-3.66c1.774 1.767 3.716 3.037 5.83 3.81 2.144.76 4.656 1.14 7.54 1.14 1.986 0 3.8-.242 5.44-.725a13.653 13.653 0 0 0 3.1-1.37 9.97 9.97 0 0 1-2.483 2.852c-1.226.967-2.66 1.703-4.3 2.202-1.64.48-3.453.72-5.44.72-2.885 0-5.397-.38-7.54-1.14C3.73 39.23 1.78 37.95 0 36.18zM35.37 3.07h4.422v24.768c0 1.656.318 3.11.958 4.352.125.24.26.466.403.685a7.45 7.45 0 0 1-2.104-.783 6.844 6.844 0 0 1-2.72-2.85c-.64-1.243-.96-2.695-.96-4.352V3.07zm25.794 25.027c0 2.555-.587 4.827-1.76 6.814-1.176 1.99-2.798 3.53-4.872 4.61-2.053 1.09-4.37 1.64-6.942 1.64-2.556 0-4.862-.54-6.917-1.63a12.195 12.195 0 0 1-3.136-2.35c1.716.69 3.594 1.04 5.632 1.04 2.57 0 4.88-.54 6.94-1.63 2.07-1.08 3.69-2.62 4.87-4.61 1.17-1.98 1.76-4.25 1.76-6.81V3.07h4.42v25.027z"/></svg>
