<svg xmlns="http://www.w3.org/2000/svg" width="386.365" height="72.087" viewBox="0 0 386.36505 72.086977"><path d="M102.385 12.72c-.807-1.013-2.336-2.026-4.32-2.026-3.258 0-5.75 2.046-5.75 6.635 0 4.05 2.16 6.53 5.85 6.53 1.12 0 2.47-.23 3.14-.663.02-.826.04-1.652.04-2.5 0-.97-.06-1.962-.1-2.832.254.063.63.104.944.104.292 0 .586-.022.843-.105-.038.62-.078 1.965-.078 4.194 0 .536.02 1.114.02 1.674-1.12.412-3.476.992-5.007.992-4.67 0-7.575-2.562-7.575-7.4 0-4.69 3.02-7.4 7.673-7.4 2.652 0 4.083.683 5.006 1.2-.197.373-.393 1.075-.45 1.592h-.237zM107.176 15.53c0-1.776-.078-3.575-.156-5.332 1.176.062 2.334.103 3.512.103 1.18 0 2.337-.04 3.496-.102-.04.205-.06.412-.06.62 0 .205.02.413.06.62-1.65-.125-2.613-.27-5.166-.27-.018.888-.08 1.612-.08 2.624 0 1.074.022 2.213.022 2.73 2.316 0 3.612-.104 4.77-.207a3.418 3.418 0 0 0 0 1.26c-1.355-.145-3.828-.186-4.77-.186-.02.496-.02 1.01-.02 2.995 0 1.572.02 2.583.038 3.1 1.748 0 4.064-.02 5.3-.27-.04.187-.058.456-.058.64 0 .186.02.415.06.6a64.886 64.886 0 0 0-3.533-.103c-1.198 0-2.374.04-3.572.104.078-1.798.156-3.595.156-5.372V15.53zM124.02 9.928c4.34 0 7.362 2.708 7.362 7.4 0 4.69-3.023 7.4-7.362 7.4-4.32 0-7.34-2.71-7.34-7.4s3.02-7.4 7.34-7.4zm0 .766c-3.06 0-5.417 2.046-5.417 6.635 0 4.588 2.355 6.633 5.417 6.633 3.082 0 5.436-2.044 5.436-6.634s-2.354-6.636-5.436-6.636zM134.898 15.55c0-1.776-.078-3.575-.158-5.352.747.062 1.493.103 2.24.103.744 0 1.49-.102 2.237-.102 2.217 0 4.082.805 4.082 3.265 0 2.666-2.533 3.742-4.024 3.947.96 1.262 4.24 5.705 5.38 7.048a7.475 7.475 0 0 0-1.18-.104c-.372 0-.765.04-1.137.104-.79-1.26-3.397-5.06-5.086-6.86h-.746v1.508c0 1.777.078 3.575.157 5.352a5.176 5.176 0 0 0-.96-.104c-.315 0-.63.04-.964.104.082-1.777.16-3.575.16-5.352V15.55zm1.61 1.18c.354.083.805.103 1.314.103 1.61 0 3.75-.703 3.75-3.162 0-2.17-1.707-2.707-3.044-2.707-.9 0-1.49.062-1.903.104-.058 1.51-.117 2.997-.117 4.485v1.177zM158.908 12.72c-.805-1.013-2.335-2.026-4.318-2.026-3.258 0-5.75 2.046-5.75 6.635 0 4.05 2.158 6.53 5.85 6.53 1.12 0 2.473-.23 3.14-.663.02-.826.04-1.652.04-2.5 0-.97-.06-1.962-.1-2.832.254.063.627.104.942.104.294 0 .587-.022.845-.105-.04.62-.08 1.965-.08 4.194 0 .536.02 1.114.02 1.674-1.12.412-3.473.992-5.003.992-4.673 0-7.578-2.562-7.578-7.4 0-4.69 3.02-7.4 7.674-7.4 2.652 0 4.082.683 5.007 1.2-.197.373-.394 1.075-.453 1.592h-.236zM162.603 18.942h4.888v1.28h-4.887v-1.28zM175.93 9.928c1.925 4.796 4.87 12.32 5.91 14.53a5.822 5.822 0 0 0-1.04-.104c-.353 0-.687.04-1.042.104-.37-1.427-1.315-3.698-2.02-5.536a94.47 94.47 0 0 0-2.572-.043c-.804 0-1.59.02-2.394.042-.825 2.126-1.57 4.233-1.905 5.536a3.007 3.007 0 0 0-.726-.104c-.234 0-.47.04-.726.104 2.1-4.834 4.143-9.65 6.145-14.53h.37zm-.647 2.79l-2.138 5.25c.687 0 1.43.042 2.12.042.726 0 1.472-.02 2.198-.04l-2.18-5.25zM194.405 10.198c.252.062.53.103.805.103.197 0 .41-.04.59-.102-.16 1.92-.316 5.56-.355 8.578-.037 3.657-2.062 5.952-5.594 5.952-3.886 0-5.612-1.902-5.612-5.91 0-1.283.096-2.234.096-3.267 0-2.272-.076-4.154-.116-5.352a5.71 5.71 0 0 0 1.02.103c.276 0 .59-.04.844-.102-.118 1.22-.234 4.03-.234 7.087 0 2.813 0 6.47 4.376 6.47 4.3 0 4.3-4.235 4.3-6.84 0-3.927 0-5.912-.12-6.717zM211.585 12.72c-.807-1.013-2.336-2.026-4.318-2.026-3.258 0-5.752 2.046-5.752 6.635 0 4.05 2.16 6.53 5.852 6.53 1.115 0 2.47-.23 3.14-.663.02-.826.036-1.652.036-2.5 0-.97-.06-1.962-.098-2.832.256.063.63.104.943.104.293 0 .59-.022.844-.105-.04.62-.08 1.965-.08 4.194 0 .536.02 1.114.02 1.674-1.116.412-3.472.992-5.007.992-4.67 0-7.574-2.562-7.574-7.4 0-4.69 3.022-7.4 7.677-7.4 2.648 0 4.082.683 5.002 1.2-.196.373-.392 1.075-.45 1.592h-.235zM226.483 10.198c.256.062.533.103.807.103.197 0 .412-.04.59-.102-.158 1.92-.314 5.56-.352 8.578-.04 3.657-2.064 5.952-5.596 5.952-3.885 0-5.615-1.902-5.615-5.91 0-1.283.098-2.234.098-3.267 0-2.272-.076-4.154-.117-5.352.314.062.71.103 1.02.103.275 0 .59-.04.846-.102-.115 1.22-.236 4.03-.236 7.087 0 2.813 0 6.47 4.38 6.47 4.298 0 4.298-4.235 4.298-6.84-.002-3.927-.002-5.912-.123-6.717zM231.985 21.71c.43.97 1.416 2.148 3.1 2.148 1.75 0 2.81-1.343 2.81-2.995 0-3.803-6.183-2.17-6.183-7.027 0-2.295 1.648-3.908 4.258-3.908 1.238 0 2.12.31 2.904.972-.234.475-.37.95-.53 1.736h-.233c-.276-.766-.862-1.943-2.335-1.943-1.475 0-2.533 1.055-2.533 2.563 0 3.865 6.186 2.254 6.186 6.823 0 2.518-1.79 4.648-4.81 4.648-1.632 0-2.554-.6-3.24-1.18.235-.64.294-1.052.374-1.838h.233zM245.747 15.55c0-1.425-.02-2.85-.06-4.278-1.353 0-3.1.084-4.198.23.058-.208.097-.436.097-.663 0-.208-.04-.415-.098-.64 1.685.06 3.374.102 5.065.102 1.686 0 3.373-.04 5.063-.103-.06.226-.098.433-.098.66 0 .207.037.434.098.64-1.1-.144-2.846-.228-4.2-.228a156.72 156.72 0 0 0-.06 4.28v3.554c0 1.777.08 3.575.154 5.352a5.126 5.126 0 0 0-.957-.104c-.318 0-.63.04-.963.104.078-1.777.154-3.575.154-5.352V15.55zM251.427 18.942h4.887v1.28h-4.887v-1.28zM269.938 10.198c.254.062.53.103.807.103.197 0 .41-.04.584-.102-.157 1.92-.312 5.56-.353 8.578-.035 3.657-2.06 5.952-5.594 5.952-3.887 0-5.613-1.902-5.613-5.91 0-1.283.1-2.234.1-3.267 0-2.272-.08-4.154-.12-5.352.315.062.71.103 1.024.103.273 0 .586-.04.84-.102-.117 1.22-.234 4.03-.234 7.087 0 2.813 0 6.47 4.38 6.47 4.298 0 4.298-4.235 4.298-6.84 0-3.927 0-5.912-.12-6.717zM286.92 24.728c-2.983-3.698-6.556-7.667-9.91-11.43-.02.765-.058 2.005-.058 4.196 0 1.778.078 6.136.174 6.964a2.47 2.47 0 0 0-.686-.104c-.238 0-.47.04-.727.104.154-.97.412-6.26.412-8.99 0-2.603 0-4.61-.06-5.54h.313c3.2 3.66 7.537 8.643 9.932 11.183 0-3.7 0-7.73-.156-10.912.217.062.45.103.664.103.22 0 .416-.04.633-.102-.118 1.22-.315 5.312-.315 6.923 0 2.11.04 6.676.06 7.607h-.274zM291.91 15.55c0-1.776-.08-3.575-.16-5.352.335.062.65.103.966.103.314 0 .625-.04.96-.102-.077 1.776-.155 3.575-.155 5.353v3.556c0 1.777.08 3.575.157 5.352a5.167 5.167 0 0 0-.96-.104c-.317 0-.632.04-.966.104.08-1.777.16-3.575.16-5.352V15.55zM296.546 10.198c.332.062.684.103 1.02.103.333 0 .685-.04 1.017-.102 1.162 3.657 2.83 8.04 4.48 12.213 1.43-3.346 3.628-9.505 4.454-12.212.238.062.488.103.723.103.24 0 .494-.04.73-.102a270.273 270.273 0 0 0-5.653 14.26 2.3 2.3 0 0 0-.646-.104c-.215 0-.472.04-.65.104-1.177-3.41-3.572-9.507-5.474-14.26zM312.015 15.53c0-1.776-.078-3.575-.156-5.332 1.177.062 2.335.103 3.515.103 1.178 0 2.334-.04 3.492-.102a3.31 3.31 0 0 0 0 1.24c-1.648-.125-2.61-.27-5.164-.27-.018.888-.076 1.612-.076 2.624 0 1.074.02 2.213.02 2.73 2.313 0 3.61-.104 4.768-.207a3.332 3.332 0 0 0 0 1.26c-1.354-.145-3.826-.186-4.768-.186-.02.496-.02 1.01-.02 2.995 0 1.572.02 2.583.037 3.1 1.746 0 4.064-.02 5.3-.27a3.56 3.56 0 0 0-.058.64c0 .186.02.415.06.6a64.907 64.907 0 0 0-3.536-.103c-1.193 0-2.373.04-3.57.104.078-1.798.156-3.595.156-5.372V15.53zM322.616 15.55c0-1.776-.078-3.575-.154-5.352.744.062 1.49.103 2.236.103.744 0 1.49-.102 2.238-.102 2.215 0 4.082.805 4.082 3.265 0 2.666-2.533 3.742-4.023 3.947.96 1.262 4.236 5.705 5.377 7.048a7.42 7.42 0 0 0-1.178-.104c-.373 0-.768.04-1.137.104-.787-1.26-3.398-5.06-5.084-6.86h-.746v1.508c0 1.777.078 3.575.156 5.352a5.167 5.167 0 0 0-.96-.104c-.316 0-.63.04-.962.104.077-1.777.155-3.575.155-5.352V15.55zm1.612 1.18c.354.083.803.103 1.314.103 1.61 0 3.75-.703 3.75-3.162 0-2.17-1.71-2.707-3.045-2.707-.902 0-1.488.062-1.902.104-.06 1.51-.117 2.997-.117 4.485v1.177zM334.948 21.71c.432.97 1.412 2.148 3.098 2.148 1.748 0 2.81-1.343 2.81-2.995 0-3.803-6.185-2.17-6.185-7.027 0-2.295 1.653-3.908 4.263-3.908 1.236 0 2.12.31 2.902.972-.234.475-.37.95-.527 1.736h-.236c-.275-.766-.863-1.943-2.336-1.943-1.473 0-2.533 1.055-2.533 2.563 0 3.865 6.184 2.254 6.184 6.823 0 2.518-1.79 4.648-4.81 4.648-1.628 0-2.552-.6-3.24-1.18.237-.64.296-1.052.374-1.838h.238zM345.98 15.55c0-1.776-.077-3.575-.155-5.352.332.062.648.103.96.103.315 0 .628-.04.964-.102-.08 1.776-.16 3.575-.16 5.353v3.556c0 1.777.08 3.575.16 5.352a5.188 5.188 0 0 0-.964-.104c-.313 0-.63.04-.96.104.077-1.777.153-3.575.153-5.352V15.55zM354.933 15.55c0-1.425-.02-2.85-.06-4.278-1.354 0-3.1.084-4.198.23.06-.208.098-.436.098-.663 0-.208-.04-.415-.098-.64 1.688.06 3.375.102 5.064.102 1.687 0 3.376-.04 5.063-.103-.06.226-.1.433-.1.66 0 .207.04.434.1.64-1.1-.144-2.848-.228-4.203-.228-.04 1.428-.06 2.854-.06 4.28v3.554c0 1.777.08 3.575.16 5.352a5.167 5.167 0 0 0-.962-.104c-.315 0-.63.04-.965.104.08-1.777.158-3.575.158-5.352V15.55zM368.813 9.928c1.924 4.796 4.87 12.32 5.908 14.53a5.815 5.815 0 0 0-1.036-.104c-.355 0-.69.04-1.043.104-.372-1.427-1.313-3.698-2.022-5.536a94.176 94.176 0 0 0-2.568-.043c-.81 0-1.594.02-2.396.042-.824 2.126-1.57 4.233-1.902 5.536a3.05 3.05 0 0 0-.727-.104c-.238 0-.47.04-.727.104 2.1-4.834 4.14-9.65 6.145-14.53h.37zm-2.238-3.347c.55 0 1.004.476 1.004 1.055 0 .58-.454 1.053-1.005 1.053-.547 0-1-.475-1-1.053 0-.58.453-1.054 1-1.054zm1.59 6.14l-2.137 5.25c.686 0 1.432.04 2.117.04.727 0 1.475-.02 2.2-.04l-2.18-5.25zm2.275-6.14c.55 0 1.002.476 1.002 1.055 0 .58-.45 1.053-1.002 1.053-.547 0-1-.475-1-1.053 0-.58.454-1.054 1-1.054zM380.497 15.55c0-1.425-.02-2.85-.06-4.278-1.356 0-3.1.084-4.2.23.06-.208.1-.436.1-.663 0-.208-.04-.415-.1-.64 1.686.06 3.377.102 5.064.102 1.688 0 3.374-.04 5.065-.103-.06.226-.102.433-.102.66 0 .207.04.434.102.64-1.104-.144-2.85-.228-4.203-.228-.04 1.428-.06 2.854-.06 4.28v3.554c0 1.777.08 3.575.16 5.352a5.224 5.224 0 0 0-.962-.104c-.314 0-.63.04-.965.104.078-1.777.16-3.575.16-5.352V15.55zM102.378 38.088c-.803-1.013-2.335-2.027-4.317-2.027-3.257 0-5.75 2.047-5.75 6.637 0 4.05 2.16 6.53 5.85 6.53 1.118 0 2.47-.228 3.14-.663.02-.824.04-1.652.04-2.5 0-.97-.06-1.963-.097-2.832.254.063.625.104.94.104.295 0 .59-.02.844-.104-.04.62-.08 1.965-.08 4.195 0 .54.023 1.12.023 1.676-1.12.412-3.475.992-5.007.992-4.67 0-7.577-2.564-7.577-7.398 0-4.693 3.023-7.402 7.676-7.402 2.65 0 4.083.684 5.003 1.2-.196.372-.39 1.075-.45 1.592h-.237zM113.414 35.296c4.338 0 7.362 2.708 7.362 7.402 0 4.69-3.024 7.398-7.362 7.398-4.318 0-7.34-2.71-7.34-7.398 0-4.694 3.022-7.402 7.34-7.402zm0 .765c-3.06 0-5.417 2.047-5.417 6.637 0 4.588 2.356 6.633 5.417 6.633 3.08 0 5.438-2.045 5.438-6.633 0-4.59-2.357-6.636-5.438-6.636zm-1.924-4.11c.552 0 1 .475 1 1.053s-.448 1.052-1 1.052c-.55 0-1-.474-1-1.052 0-.578.45-1.052 1-1.052zm3.87 0c.55 0 1 .475 1 1.053s-.45 1.052-1 1.052c-.553 0-1.003-.474-1.003-1.052 0-.578.45-1.052 1.002-1.052zM127.022 40.918c0-1.426-.02-2.852-.06-4.28-1.355 0-3.1.085-4.2.23.058-.207.1-.434.1-.662 0-.205-.042-.412-.1-.64 1.687.062 3.376.103 5.064.103 1.688 0 3.375-.042 5.066-.103a2.405 2.405 0 0 0-.102.66c0 .207.04.434.102.64-1.102-.144-2.85-.228-4.202-.228-.04 1.426-.06 2.852-.06 4.278v3.555c0 1.777.08 3.576.158 5.352a5.357 5.357 0 0 0-.963-.102c-.313 0-.628.04-.96.102.078-1.775.157-3.574.157-5.352v-3.555zM138.704 40.918c0-1.426-.02-2.852-.06-4.28-1.354 0-3.1.085-4.198.23a2.52 2.52 0 0 0 .095-.662c0-.205-.037-.412-.094-.64 1.686.062 3.374.103 5.064.103 1.685 0 3.375-.042 5.063-.103a2.44 2.44 0 0 0-.1.66c0 .207.04.434.1.64-1.102-.144-2.848-.228-4.202-.228-.038 1.426-.058 2.852-.058 4.278v3.555c0 1.777.08 3.576.16 5.352a5.345 5.345 0 0 0-.962-.102c-.317 0-.63.04-.962.102.08-1.775.156-3.574.156-5.352v-3.555zM147.656 40.918c0-1.777-.08-3.574-.156-5.35.333.06.647.1.96.1.315 0 .63-.04.962-.1-.08 1.776-.157 3.573-.157 5.35v3.555c0 1.777.078 3.576.157 5.352a5.307 5.307 0 0 0-.96-.102c-.316 0-.63.04-.962.102.078-1.775.156-3.574.156-5.352v-3.555zM164.932 50.096c-2.984-3.7-6.557-7.668-9.914-11.43-.02.764-.057 2.004-.057 4.195 0 1.778.08 6.14.177 6.964a2.554 2.554 0 0 0-.688-.102c-.235 0-.473.04-.728.102.16-.97.414-6.26.414-8.988 0-2.605 0-4.61-.058-5.54h.313c3.203 3.66 7.54 8.64 9.933 11.182 0-3.7 0-7.73-.156-10.912.215.06.452.102.666.102.217 0 .415-.04.63-.102-.12 1.22-.316 5.308-.316 6.923 0 2.106.04 6.675.062 7.604h-.278zM181.167 38.088c-.806-1.013-2.334-2.027-4.318-2.027-3.26 0-5.752 2.047-5.752 6.637 0 4.05 2.16 6.53 5.85 6.53 1.12 0 2.473-.228 3.14-.663.02-.824.04-1.652.04-2.5 0-.97-.06-1.963-.097-2.832.252.063.626.104.94.104.296 0 .59-.02.845-.104-.04.62-.08 1.965-.08 4.195 0 .54.022 1.12.022 1.676-1.12.412-3.476.992-5.008.992-4.672 0-7.576-2.564-7.576-7.398 0-4.693 3.022-7.402 7.674-7.402 2.65 0 4.083.684 5.006 1.2-.197.372-.392 1.075-.453 1.592h-.233zM185.96 40.897c0-1.777-.076-3.574-.154-5.33a67.53 67.53 0 0 0 3.512.102c1.18 0 2.336-.042 3.495-.103a3.223 3.223 0 0 0 0 1.238c-1.648-.125-2.61-.268-5.165-.268-.02.888-.08 1.613-.08 2.625 0 1.076.02 2.21.02 2.727 2.317 0 3.613-.103 4.772-.206a3.288 3.288 0 0 0 0 1.262c-1.354-.146-3.83-.188-4.77-.188-.02.496-.02 1.012-.02 2.996 0 1.57.02 2.584.04 3.102 1.747 0 4.063-.02 5.3-.27-.04.186-.06.455-.06.64 0 .19.02.413.06.6a67 67 0 0 0-3.533-.103c-1.198 0-2.376.04-3.572.102.078-1.797.155-3.596.155-5.37v-3.558zM207.614 50.096c-2.984-3.7-6.557-7.668-9.912-11.43-.02.764-.06 2.004-.06 4.195 0 1.778.08 6.14.177 6.964a2.548 2.548 0 0 0-.69-.102c-.236 0-.47.04-.724.102.154-.97.412-6.26.412-8.988 0-2.605 0-4.61-.06-5.54h.314c3.2 3.66 7.537 8.64 9.93 11.182 0-3.7 0-7.73-.154-10.912.215.06.453.102.67.102.213 0 .408-.04.625-.102-.12 1.22-.313 5.308-.313 6.923 0 2.106.037 6.675.055 7.604h-.27z" fill="#fff"/><g fill="#fff"><path d="M20.094 69.485a1.87 1.87 0 0 0-.174.854l-.737-.295c.385-.41.433-.53.602-.943l.986-2.414-.877.283-.153-.17c.16-.056 1.538-.593 1.726-.638l-1.372 3.323zM40.48 67.944l-.695.064c-.75.068-.995.232-1.226.412l.025-.486a.6.6 0 0 0-.014-.223l2.55-.23-.89 2.058c1.1.11 1.177.947 1.19 1.082.03.332-.15 1.328-1.477 1.45-.65.058-.93-.04-1.118-.11l.307-.773c.074.184.253.598.88.54a.99.99 0 0 0 .903-1.073.742.742 0 0 0-.476-.63c-.325-.11-.645-.075-.902-.046l.94-2.034zM31.022 69.727l-.018.004-.66-.067 1.116-2.04-2.284-.23a3.4 3.4 0 0 1-.298-.034c-.058-.015-.098-.022-.156-.034l-.116.744c.31-.207.437-.293 1.46-.19l.707.07-.9 1.667-.663-.068c-.122-.013-.187-.02-.238-.028-.047-.01-.08-.02-.125-.027l-.06.27-.017.005.017.002v.004l.018-.002.934.094-.404.746c-.255.477-.507.87-.806 1.143l.918.092a2.215 2.215 0 0 1 .005-.237c.026-.27.148-.586.517-1.266l.238-.432.39.04c.12.01.186.02.237.028.046.008.08.018.125.027l.06-.273.017-.002-.016-.002.002-.006zM50.72 68.412l-.015.01-.662.143.438-2.287-2.244.484c-.15.03-.23.05-.294.057-.06.005-.1.007-.158.015l.117.744c.233-.294.328-.415 1.332-.628l.695-.152-.344 1.865-.64.135c-.118.025-.182.04-.234.045l-.128.014.027.276-.017.01.017-.004v.004l.016-.008.904-.195-.153.836c-.097.53-.216.98-.418 1.33l.9-.192c-.013-.04-.05-.15-.064-.227-.058-.26-.04-.603.104-1.36l.093-.484.397-.086c.12-.025.182-.04.235-.045l.126-.014-.026-.276.016-.008-.016.004-.003-.008zM14.093 30.062h-4.88c0 8.38 5.295 17.258 16.688 20.776.68-1.385 1.365-2.865 2.055-4.45-10.712-2.968-13.862-11.102-13.862-16.326zM37.095 47.524c-2.485 0-4.713-.21-6.722-.582-.797 1.914-1.484 3.543-1.968 4.555 2.615.582 5.505.908 8.69.908 1.507 0 2.962-.145 4.375-.39a45.814 45.814 0 0 1-2.04-4.636c-.766.085-1.54.144-2.335.144zM43.056 54.873a28.77 28.77 0 0 1-5.56.652 40.783 40.783 0 0 1-10.548-1.207 63.4 63.4 0 0 1-2.826 4.754c4.307 1.236 8.894 1.88 13.472 1.795 3.05-.057 5.966-.51 8.726-1.277a76.32 76.32 0 0 1-.993-1.3 41.56 41.56 0 0 1-2.27-3.417z"/><path d="M11.805 46.35c-4.237-4.127-6.41-9.16-6.46-14.963-.132-16.12 15.444-25.898 30.58-26.04 14.845-.14 27.096 9.222 27.218 9.315l1.36 1.154 1.294-6.404C62.412 7.032 50.274-.132 35.873.002 18.113.17-.16 11.97 0 31.43c.06 7.18 2.853 13.664 8.075 18.75 3.586 3.49 8.316 6.26 13.583 8.108.934-1.373 1.87-2.932 2.812-4.676-4.952-1.577-9.387-4.07-12.665-7.262z"/><path d="M72.436 33.803l1-3.42H44.58v5.342h21.448C62.603 43.49 55.36 51.04 45.94 54.1a39.588 39.588 0 0 0 3.15 4.595c11.86-4.382 20.37-14.732 23.346-24.892z"/><path d="M74.51 9.813H68l-.376 1.983C65.17 24.676 56.56 43.174 42.26 46.86a74.195 74.195 0 0 0 2.15 4.462c15.18-4.58 24.443-22.854 27.57-36.63h.09v36.02h4.88v-40.9h-2.44z"/><path d="M65.425 63.592c-.75-.137-1.08 1.34.07 1.504.477.203.34 1.023-.616 1.844-.958.818-5.738 2.254-9.427-.82-3.69-3.074-7.516-7.31-10.11-11.816-1.972-3.426-4.256-8.07-5.54-12.02 5.327.128 4.72-2.257 4.72-2.257-.925 1.584-2.933 1.89-4.878 1.754-.327-1.065-.58-2.073-.723-2.983-.684-4.37-.546-8.672-.342-9.56 0 0-.114.073-.304.22l.03-.152s-5.874 3.755-12.637-.41c-6.763-4.167-5.192-19.33 6.557-19.263 2.254-.067 5.806.615 7.24 2.87 0 0 .41-.752 1.366-1.025 0 0-.957.068-1.64-.272-.683-.342-1.638-2.118-7.376-2.118-5.737 0-11.885 4.03-11.885 11.613 0 7.344 8.014 13.15 17.335 9.654-1.435 1.416-3.827 4.37-6.083 9.817-1.243-.044-2.302.198-2.332 1.157-.037 1.13.636 1.44 1.27 1.486-3.39 8.44-6.733 14.766-10.26 18.87-3.21 3.735-6.49 7.103-12.978 6.282-2.322-.34-5.67-3.62-2.87-7.24.338-.436.548.89 1.777.205 1.23-.682-.817-2.39-2.252-.682-1.435 1.707-2.938 8.06 6.215 8.605 9.154.547 16.12-13.662 17.965-17.35.897-1.795 2.7-6.35 4.58-10.754 1.823.296 4.168 1.054 5.53 1.394.213.023.417.043.616.06 1.162 4.817 3.492 10.5 7.376 15.72C54.972 70.22 59.755 69.33 64.33 68.17c1.505-.683 3.827-4.03 1.095-4.578zM29.7 41.392c0-.552.516-.757 1.294-.763-.067.165-.135.317-.2.49-.175.446-.35.882-.523 1.317-.466-.216-.57-.534-.57-1.044zm5.328-.546c-.402-.107-1.43-.38-2.536-.55 1.928-4.487 3.91-8.71 5.063-9.56 0 0-.57 4.03.49 9.63.075.405.177.835.272 1.26-1.55-.25-2.874-.67-3.29-.78z"/></g></svg>